<svg xmlns="http://www.w3.org/2000/svg">
<defs>
<font id="Blockletter" horiz-adv-x="1017" >
  <font-face 
    font-family="Blockletter"
    font-weight="400"
    font-stretch="normal"
    units-per-em="2048"
    panose-1="2 0 5 0 0 0 0 0 0 0"
    ascent="1638"
    descent="-410"
    x-height="1399"
    cap-height="1399"
    bbox="-212 -765.961 2398 2172"
    underline-thickness="150"
    underline-position="-292"
    unicode-range="U+001D-F002"
  />
<missing-glyph horiz-adv-x="2448" 
d="M401 417v325h66v-96q11 11 24 17q14 6 28 6q80 0 80 -102v-150h-66v145q0 41 -33 41t-33 -41v-145h-66zM733 480q9 0 22 5q10 5 18 13t12 19q4 9 4 24t-4 23q-4 11 -12 19q-6 9 -18 14q-8 4 -22 4t-22 -4q-12 -5 -18 -14q-8 -8 -12 -19q-5 -13 -5 -23q0 -9 5 -24
q4 -11 12 -19t18 -13q13 -5 22 -5zM857 671v-254h-65v33h-2q-16 -33 -66 -33h-4q-22 0 -41 9t-38 26q-16 16 -25 39q-9 20 -9 43v9q0 21 8 43q11 26 25 41q16 18 38 28q19 10 46 10q46 0 73 -29zM876 671h65v-41q8 20 13 27q8 11 15 16q11 5 22 7q22 2 28 2l-21 -76
q-27 0 -38 -12q-11 -14 -11 -41v-136h-73v254zM1026 742h72v-185h1l53 113h87l-63 -124l76 -129h-89l-64 110h-1v-110h-72v325zM1280 495q22 -22 52 -22q32 0 32 19q0 11 -18 15q-6 3 -19 5q-10 2 -21 6l-10 4l-10 4q-5 3 -8 6q-5 3 -9 8q-7 7 -11 21q-4 9 -4 29q0 21 7 34
q8 15 20 24q12 11 28 15q13 4 35 4q21 0 42 -9q20 -9 36 -24l-39 -41q-17 14 -38 14q-24 0 -24 -14q0 -13 17 -18q4 -1 13 -3l8 -2l9 -2q17 -4 31 -12t24 -23q8 -10 8 -31v-9q0 -22 -7 -35q-8 -15 -21 -25q-11 -10 -30 -16q-20 -5 -35 -5q-22 0 -27 1q-13 2 -23 6l-11 5
l-11 5l-11 8l-12 8zM1439 417v325h67v-96q9 11 23 17t28 6q81 0 81 -102v-150h-67v145q0 41 -33 41q-32 0 -32 -41v-145h-67zM1818 500q18 17 18 42q0 9 -5 22t-13 19q-6 8 -19 13t-23 5q-9 0 -22 -5q-10 -4 -19 -13q-8 -8 -13 -19q-5 -13 -5 -22q0 -25 18 -42
q20 -18 41 -18q23 0 42 18zM1656 493q-10 26 -10 46v3q0 25 11 50q12 25 28 40q21 17 42 26q23 9 49 9t50 -9q20 -8 42 -26q18 -17 29 -40q10 -20 10 -50t-10 -50q-11 -23 -29 -40q-19 -18 -42 -27q-21 -10 -50 -10q-27 0 -48 10q-24 10 -43 27q-18 17 -29 41zM2082 586

<glyph glyph-name=".notdef" horiz-adv-x="2448" 
d="M401 417v325h66v-96q11 11 24 17q14 6 28 6q80 0 80 -102v-150h-66v145q0 41 -33 41t-33 -41v-145h-66zM733 480q9 0 22 5q10 5 18 13t12 19q4 9 4 24t-4 23q-4 11 -12 19q-6 9 -18 14q-8 4 -22 4t-22 -4q-12 -5 -18 -14q-8 -8 -12 -19q-5 -13 -5 -23q0 -9 5 -24
q4 -11 12 -19t18 -13q13 -5 22 -5zM857 671v-254h-65v33h-2q-16 -33 -66 -33h-4q-22 0 -41 9t-38 26q-16 16 -25 39q-9 20 -9 43v9q0 21 8 43q11 26 25 41q16 18 38 28q19 10 46 10q46 0 73 -29zM876 671h65v-41q8 20 13 27q8 11 15 16q11 5 22 7q22 2 28 2l-21 -76
q-27 0 -38 -12q-11 -14 -11 -41v-136h-73v254zM1026 742h72v-185h1l53 113h87l-63 -124l76 -129h-89l-64 110h-1v-110h-72v325zM1280 495q22 -22 52 -22q32 0 32 19q0 11 -18 15q-6 3 -19 5q-10 2 -21 6l-10 4l-10 4q-5 3 -8 6q-5 3 -9 8q-7 7 -11 21q-4 9 -4 29q0 21 7 34
q8 15 20 24q12 11 28 15q13 4 35 4q21 0 42 -9q20 -9 36 -24l-39 -41q-17 14 -38 14q-24 0 -24 -14q0 -13 17 -18q4 -1 13 -3l8 -2l9 -2q17 -4 31 -12t24 -23q8 -10 8 -31v-9q0 -22 -7 -35q-8 -15 -21 -25q-11 -10 -30 -16q-20 -5 -35 -5q-22 0 -27 1q-13 2 -23 6l-11 5
l-11 5l-11 8l-12 8zM1439 417v325h67v-96q9 11 23 17t28 6q81 0 81 -102v-150h-67v145q0 41 -33 41q-32 0 -32 -41v-145h-67zM1818 500q18 17 18 42q0 9 -5 22t-13 19q-6 8 -19 13t-23 5q-9 0 -22 -5q-10 -4 -19 -13q-8 -8 -13 -19q-5 -13 -5 -22q0 -25 18 -42
q20 -18 41 -18q23 0 42 18zM1656 493q-10 26 -10 46v3q0 25 11 50q12 25 28 40q21 17 42 26q23 9 49 9t50 -9q20 -8 42 -26q18 -17 29 -40q10 -20 10 -50t-10 -50q-11 -23 -29 -40q-19 -18 -42 -27q-21 -10 -50 -10q-27 0 -48 10q-24 10 -43 27q-18 17 -29 41zM2082 586
q-23 17 -47 17q-25 0 -42 -17t-17 -42q0 -11 5 -26q6 -13 12 -22t18 -14q13 -5 25 -5q28 0 47 18v-72q-13 -7 -25 -9q-22 -2 -23 -2h-9q-24 0 -44 9q-24 10 -42 28q-17 17 -27 40q-9 20 -9 42v4q0 29 9 54q10 24 28 42t42 27t52 9q6 1 12 1q20 0 35 -8v-74zM2102 742h72
v-185h1l52 113h88l-64 -124l76 -129h-88l-64 110h-1v-110h-72v325zM2384 759q9 -9 9 -22t-9 -22t-22 -9t-22 9t-9 22t9 22t22 9t22 -9zM2387 711q11 11 11 26q0 14 -11 25t-25 11q-15 0 -26 -11q-10 -10 -10 -25q0 -16 10 -26q11 -11 26 -11q14 0 25 11zM2351 740h17l3 3
q1 1 1 3q0 3 -2 5t-6 2h-13v-13zM2345 717v40h18q7 0 8 -1q3 -1 5 -3q2 -6 2 -7q0 -4 -3 -7t-9 -3q2 -2 4 -2l2 -3l2 -3l7 -11h-7l-5 9l-2 3l-2 2l-3 3q-1 1 -2 1h-9v-18h-6zM1265 1445v14l-6 -21q6 -6 7 -8zM1467 1188q0 -32 -31 -90q-5 -25 -21 -41q-16 -40 -59 -89l-3 -4
l-2 -3q-5 -5 -8 -7l-6 -7l-5 -5l-8 -8l-3 -3l-2 -2l-1 -1q-4 -5 -17 -28l-13 -31l-16 -26l-11 -12l-5 -10l-1 -1l-1 -2l-3 -3q-1 -1 -2 -1h-1l-1 1q-2 -2 -3 -2h-1q-1 1 -1 2q-1 -1 -3 -1h-1q-2 2 -2 5v3l3 11l9 21q7 13 7 18v1q-2 8 -2 9q0 16 27 20l1 2v4q0 17 7 31
q2 7 9 22q13 28 28 34q2 11 6 18q0 1 1 2q1 2 3 5q4 6 9 13q9 10 12 20q1 1 1 7v6l1 6q0 11 3 18v1q0 12 20 29l3 4l3 4q-8 2 -12 22l-3 18q-1 11 -3 16q-10 2 -17 13v-4q0 -20 -10 -20q-11 0 -25 18q0 -14 -8 -22q-6 -7 -15 -7q-22 1 -22 31q-16 -21 -24 -21q-2 0 -4 2
q-3 4 -6 40q-16 -21 -26 -21q-3 0 -5 2q-6 5 -6 20q0 1 1 6v5l1 6q-7 -7 -17 -7q-8 0 -16 6q-5 8 -5 12v2q2 8 14 14q-30 0 -38 8q6 6 16 7q13 1 17 4q4 2 8 6l-8 -2q-3 0 -5 2q-5 3 -5 13v3q-13 -19 -19 -19q-2 0 -2 3l2 14l1 6l1 6l2 8q-11 -11 -19 -20q-6 -7 -6 -8l-1 2
v2q0 11 6 27q-19 -19 -28 -19q-5 0 -5 9q0 1 1 6v5l1 6q-13 -26 -25 -31v5q0 8 6 20q5 8 8 16l1 3l1 3l1 2v1l-3 -3l-3 -4q-5 -5 -10 -11q-9 -12 -16 -15v-1q1 0 3 11l1 6l1 8q1 9 2 17q-9 -9 -18 -9h-2q-9 1 -10 13q0 8 8 19q9 11 9 18q-20 -11 -25 -13q-2 -1 -9 -1t-10 6
q-1 1 -1 7q0 8 9 18q10 12 22 14l-7 -1h-6q-5 -1 -7 -1q-17 0 -19 11v2q0 9 12 15l2 1l2 1l7 3l5 2l4 2q-24 11 -24 17q0 1 1 2q2 2 35 12l-1 1l-1 2l-6 4l-3 3l-3 3l-3 2q-6 8 -6 13t1 6t5 1q5 0 18 -5t18 -5h3q-2 4 -15 22q-4 7 -4 11q0 6 7 6h1q10 0 20 -13
q14 -16 18 -18q-18 82 -23 82l-1 -1q24 -13 49 -73q-10 31 -12 68l-1 6v5q0 23 8 23h2l3 -1h-1v-1q0 -7 21 -58l1 -3l1 -3q1 -3 3 -7q3 -10 8 -22q10 -18 13 -36q-16 65 -16 115q0 52 21 65q10 -7 10 -31v-8q0 -8 -1 -11l-1 -5v-11q1 -14 6 -41l3 -13l2 -12l1 -9l1 -6
q0 109 30 157q9 -4 9 -29q0 -14 -3 -35q-9 -67 -9 -74v-1q0 2 1 4l2 6l2 10l3 11l3 14l4 15q4 14 7 22q19 61 37 61q2 0 3 -1q-1 -24 -20 -66t-22 -68q13 40 38 74q32 44 68 51q-1 -21 -60 -72q-35 -56 -35 -111v-13l1 -7q2 -15 8 -27q14 72 80 150q31 38 64 65h11
q-41 -22 -78 -85q54 39 125 40l-3 -11q-121 -3 -147 -90q-7 -20 -7 -49q0 -38 15 -88l4 -2l2 -2q13 -13 31 -58q0 7 8 15q8 6 16 6h2v-1l17 14q-11 -9 -14 -14h3l2 -1h1q7 4 7 9v-1l-2 -6l6 4l-8 -6l1 -1l8 4l-7 -5h1q5 2 9 7q-1 -4 -7 -8l17 2q2 -2 2 -3v-1l-2 -2h6
q1 0 1 -1q0 -2 -1 -3q3 0 3 -3v-3q7 0 8 -4v-2q0 -2 -3 -5q-6 -6 -6 -10v-1l2 -4l2 -4l2 -5l2 -4q7 -7 8 -9l1 1v-1q1 1 3 1q9 0 16 -10q10 -10 13 -28q1 -3 1 -12q0 -14 -6 -23l1 -7v-6q1 -6 1 -8v-2zM69 306l52 105l-121 100l366 230v-89l-86 -54l110 -91zM205 551l-5 -3
l71 -59l11 23l-60 50zM141 511l-22 -14l71 -59l12 23z" />
    <glyph glyph-name=".null" horiz-adv-x="0" 
 />
    <glyph glyph-name=".null" horiz-adv-x="0" 
 />
    <glyph glyph-name="nonmarkingreturn" horiz-adv-x="508" 
 />
    <glyph glyph-name="space" unicode=" " horiz-adv-x="276" 
 />
    <glyph glyph-name="space" unicode="&#xa0;" horiz-adv-x="276" 
 />
    <glyph glyph-name="exclam" unicode="!" horiz-adv-x="419" 
d="M0 0h267v268h-267v-268zM1 1401v-1046h268v1046h-268z" />
    <glyph glyph-name="quotedbl" unicode="&#x22;" horiz-adv-x="804" 
d="M267 843v556h-267v-556h267zM654 843v556h-267v-556h267z" />
    <glyph glyph-name="numbersign" unicode="#" horiz-adv-x="1242" 
d="M0 583v-267h110l-50 -316h279l50 316h199l-50 -316h279l50 316h145v267h-103l36 233h147v267h-105l50 316h-279l-50 -316h-199l50 316h-279l-50 -316h-150v-267h108l-36 -233h-152zM666 816l-36 -233h-199l36 233h199z" />
    <glyph glyph-name="dollar" unicode="$" 
d="M299 -40h269v90h94l205 205v371l-73 71l1 1l-138 135h-389v248h332v-159h267v221l-205 206h-94v73h-269v-73h-94l-205 -206v-373l200 -204h400v-248h-332v159h-268v-222l205 -205h94v-90z" />
    <glyph glyph-name="percent" unicode="%" horiz-adv-x="1266" 
d="M629 1616l-322 -835h179l322 835h-179zM304 1456h-144v-163h144v163zM341 1616l123 -123v-237l-123 -123h-218l-123 123v237l123 123h218zM957 1104h-144v-163h144v163zM994 1264l122 -124v-236l-122 -123h-219l-122 123v236l122 124h219z" />
    <glyph glyph-name="ampersand" unicode="&#x26;" horiz-adv-x="1060" 
d="M600 498v-230h-332v298h243v267h-243v298h332v-209h267v271l-205 206h-457l-205 -206v-423l73 -73l-73 -71v-421l205 -205h457l205 205v231h43v267h-105z" />
    <glyph glyph-name="quotesingle" unicode="'" horiz-adv-x="416" 
d="M266 843v556h-267v-556h267z" />
    <glyph glyph-name="parenleft" unicode="(" horiz-adv-x="508" 
d="M205 1399l-205 -206v-988l205 -205h153v268h-90v863h90v268h-153z" />
    <glyph glyph-name="parenright" unicode=")" horiz-adv-x="508" 
d="M0 1399v-268h90v-863h-90v-268h152l206 205v988l-206 206h-152z" />
    <glyph glyph-name="asterisk" unicode="*" horiz-adv-x="546" 
d="M32 1257l77 -77h-109v-74h109l-77 -77l52 -52l77 77v-109h73v110l78 -78l51 51l-77 78h110v74h-108l76 77l-52 52l-78 -77v109h-73v-110l-78 77z" />
    <glyph glyph-name="plus" unicode="+" horiz-adv-x="816" 
d="M200 367h267v199h199v267h-199v200h-267v-200h-200v-267h200v-199z" />
    <glyph glyph-name="comma" unicode="," horiz-adv-x="418" 
d="M0 -1h125l-60 -140h141l61 140h1v268h-268v-268z" />
    <glyph glyph-name="hyphen" unicode="-" horiz-adv-x="706" 
d="M0 566h556v267h-556v-267z" />
    <glyph glyph-name="hyphen" unicode="&#xad;" horiz-adv-x="706" 
d="M0 566h556v267h-556v-267z" />
    <glyph glyph-name="period" unicode="." horiz-adv-x="418" 
d="M0 0h268v268h-268v-268z" />
    <glyph glyph-name="slash" unicode="/" horiz-adv-x="649" 
d="M0 0h279l220 1399h-279z" />
    <glyph glyph-name="zero" unicode="0" 
d="M600 268h-332v863h332v-863zM205 1399l-205 -206v-988l205 -205h457l205 205v988l-205 206h-457z" />
    <glyph glyph-name="one" unicode="1" horiz-adv-x="418" 
d="M0 0h268v1399h-268v-1399z" />
    <glyph glyph-name="two" unicode="2" 
d="M205 1399l-205 -206v-271h268v209h332v-298h-395l-205 -205v-628h867v477h-267v-209h-332v298h391l208 211v416l-205 206h-457z" />
    <glyph glyph-name="three" unicode="3" 
d="M205 1399l-205 -206v-271h268v209h332v-298h-244v-267h244v-298h-332v209h-268v-272l205 -205h457l205 205v421l-73 71l73 73v423l-205 206h-457z" />
    <glyph glyph-name="four" unicode="4" horiz-adv-x="963" 
d="M545 833h-277v566h-268v-833h545v-566h268v1399h-268v-566z" />
    <glyph glyph-name="five" unicode="5" 
d="M0 566h599v-298h-331v209h-268v-272l205 -205h457l205 205v427h-1l-204 204h-394v295h599v268h-867v-833z" />
    <glyph glyph-name="six" unicode="6" 
d="M600 566v-298h-332v298h332zM205 1399l-205 -206v-988l205 -205h457l205 205v426l-205 205h-394v295h332v-209h267v271l-205 206h-457z" />
    <glyph glyph-name="seven" unicode="7" horiz-adv-x="915" 
d="M0 1399v-268h429l-252 -1131h278l310 1399h-765z" />
    <glyph glyph-name="eight" unicode="8" 
d="M600 268h-332v298h332v-298zM600 1131v-298h-332v298h332zM205 1399l-205 -206v-425l68 -69l-68 -68v-426l205 -205h457l205 205v426l-68 68l68 69v425l-205 206h-457z" />
    <glyph glyph-name="nine" unicode="9" 
d="M268 833v298h332v-298h-332zM662 0l205 205v988l-205 206h-457l-205 -206v-425l205 -205h395v-295h-332v209h-268v-272l205 -205h457z" />
    <glyph glyph-name="colon" unicode=":" horiz-adv-x="418" 
d="M0 0h268v268h-268v-268zM0 1131h268v268h-268v-268z" />
    <glyph glyph-name="semicolon" unicode=";" horiz-adv-x="418" 
d="M0 1131h268v268h-268v-268zM0 268h268v-268h-1l-61 -140h-141l60 140h-125v268z" />
    <glyph glyph-name="semicolon" unicode="&#x37e;" horiz-adv-x="418" 
d="M0 1131h268v268h-268v-268zM0 268h268v-268h-1l-61 -140h-141l60 140h-125v268z" />
    <glyph glyph-name="less" unicode="&#x3c;" horiz-adv-x="924" 
d="M774 508l-566 198l566 187v268l-774 -256v-393l774 -272v268z" />
    <glyph glyph-name="equal" unicode="=" horiz-adv-x="826" 
d="M0 396h676v267h-676v-267zM0 736h676v267h-676v-267z" />
    <glyph glyph-name="greater" unicode="&#x3e;" horiz-adv-x="924" 
d="M0 240l774 272v393l-774 256v-268l566 -187l-566 -198v-268z" />
    <glyph glyph-name="question" unicode="?" 
d="M243 0h267v268h-267v-268zM205 1399l-205 -206v-271h268v209h331v-298h-149l-206 -205v-273h268v211h147l208 211v416l-205 206h-457z" />
    <glyph glyph-name="at" unicode="@" horiz-adv-x="1025" 
d="M875 1261l-137 137h-601l-137 -137v-1260h179v1219h517v-286h-263l-137 -137v-660l137 -137h305l137 137v1124zM696 179h-221v577h221v-577z" />
    <glyph glyph-name="A" unicode="A" horiz-adv-x="1150" 
d="M604 506h-200l103 382zM332 238h340l61 -238h267l-355 1399h-268l-377 -1399h268z" />
    <glyph glyph-name="B" unicode="B" 
d="M268 1131h331v-298h-331v298zM600 268h-332v298h332v-298zM0 1399v-1399h662l205 205v421l-73 71l73 73v423l-205 206h-662z" />
    <glyph glyph-name="C" unicode="C" 
d="M205 1399l-205 -206v-988l205 -205h457l205 205v272h-267v-209h-332v863h332v-209h267v271l-205 206h-457z" />
    <glyph glyph-name="D" unicode="D" 
d="M600 268h-332v863h332v-863zM0 1399v-1399h662l205 205v988l-205 206h-662z" />
    <glyph glyph-name="E" unicode="E" horiz-adv-x="861" 
d="M0 1399v-1399h711v268h-443v298h354v267h-354v298h443v268h-711z" />
    <glyph glyph-name="F" unicode="F" horiz-adv-x="861" 
d="M0 1399v-1399h268v566h354v267h-354v298h443v268h-711z" />
    <glyph glyph-name="G" unicode="G" 
d="M205 1399l-205 -206v-988l205 -205h457l205 205v628h-421v-267h154v-298h-332v863h332v-209h267v271l-205 206h-457z" />
    <glyph glyph-name="H" unicode="H" horiz-adv-x="984" 
d="M566 833h-298v566h-268v-1399h268v566h298v-566h268v1399h-268v-566z" />
    <glyph glyph-name="I" unicode="I" horiz-adv-x="418" 
d="M0 0h268v1399h-268v-1399z" />
    <glyph glyph-name="J" unicode="J" 
d="M600 268h-332v209h-268v-272l205 -205h457l205 205v1194h-267v-1131z" />
    <glyph glyph-name="K" unicode="K" horiz-adv-x="1050" 
d="M601 1399l-333 -582v582h-268v-1399h268v581l333 -581h299l-401 699l401 700h-299z" />
    <glyph glyph-name="L" unicode="L" horiz-adv-x="860" 
d="M268 1399h-268v-1399h710v268h-442v1131z" />
    <glyph glyph-name="M" unicode="M" horiz-adv-x="1180" 
d="M515 715l-225 684h-290v-1399h268v567l132 -567h230l132 567v-567h268v1399h-290z" />
    <glyph glyph-name="N" unicode="N" horiz-adv-x="1073" 
d="M655 602l-354 797h-301v-1399h268v797l354 -797h301v1399h-268v-797z" />
    <glyph glyph-name="O" unicode="O" 
d="M600 268h-332v863h332v-863zM205 1399l-205 -206v-988l205 -205h457l205 205v988l-205 206h-457z" />
    <glyph glyph-name="P" unicode="P" 
d="M599 799h-331v332h331v-332zM0 1399v-1399h268v532h394l205 205v456l-205 206h-662z" />
    <glyph glyph-name="Q" unicode="Q" 
d="M493 387l-121 -117h-104v864h332v-857zM205 1401l-205 -205v-988l205 -206h287l182 -187l193 185l-102 106l102 102v988l-205 205h-457z" />
    <glyph glyph-name="R" unicode="R" 
d="M600 799h-332v332h332v-332zM0 1399v-1399h268v532h332v-532h267v626l-73 71l73 73v423l-205 206h-662z" />
    <glyph glyph-name="S" unicode="S" 
d="M205 1399l-205 -206v-423l200 -204h400v-298h-332v209h-268v-272l205 -205h457l205 205v421l-73 71l1 1l-138 135h-389v298h332v-209h267v271l-205 206h-457z" />
    <glyph glyph-name="T" unicode="T" horiz-adv-x="935" 
d="M0 1399v-268h258v-1131h268v1131h259v268h-785z" />
    <glyph glyph-name="U" unicode="U" 
d="M599 268h-331v1131h-268v-1194l205 -205h457l205 205v1194h-268v-1131z" />
    <glyph glyph-name="V" unicode="V" horiz-adv-x="1150" 
d="M493 511l-225 888h-268l355 -1399h268l377 1399h-267z" />
    <glyph glyph-name="W" unicode="W" horiz-adv-x="1577" 
d="M1023 644l-185 755h-249l-185 -755l-128 755h-276l229 -1399h315l170 747l168 -747h316l229 1399h-276z" />
    <glyph glyph-name="X" unicode="X" horiz-adv-x="1043" 
d="M893 1399h-293l-153 -357l-153 357h-294l300 -700l-300 -699h293l154 357l153 -357h293l-300 699z" />
    <glyph glyph-name="Y" unicode="Y" horiz-adv-x="1140" 
d="M488 825l-223 574h-265l351 -900v-499h267v499l372 900h-265z" />
    <glyph glyph-name="Z" unicode="Z" horiz-adv-x="952" 
d="M0 1131h457l-450 -863l-7 -16v-252h802v268h-457l450 863l7 15v253h-802v-268z" />
    <glyph glyph-name="bracketleft" unicode="[" horiz-adv-x="520" 
d="M0 1399v-1399h370v268h-102v863h102v268h-370z" />
    <glyph glyph-name="backslash" unicode="\" horiz-adv-x="649" 
d="M279 1399h-279l220 -1399h279z" />
    <glyph glyph-name="bracketright" unicode="]" horiz-adv-x="520" 
d="M0 1399v-268h102v-863h-102v-268h370v1399h-370z" />
    <glyph glyph-name="asciicircum" unicode="^" horiz-adv-x="924" 
d="M194 624l198 566l187 -566h268l-256 774h-393l-272 -774h268z" />
    <glyph glyph-name="underscore" unicode="_" horiz-adv-x="706" 
d="M0 -494h556v267h-556v-267z" />
    <glyph glyph-name="grave" unicode="`" horiz-adv-x="617" 
d="M192 1614l-191 389h267l191 -389h-267z" />
    <glyph glyph-name="a" unicode="a" horiz-adv-x="1150" 
d="M604 506h-200l103 382zM332 238h340l61 -238h267l-355 1399h-268l-377 -1399h268z" />
    <glyph glyph-name="b" unicode="b" 
d="M268 1131h331v-298h-331v298zM600 268h-332v298h332v-298zM0 1399v-1399h662l205 205v421l-73 71l73 73v423l-205 206h-662z" />
    <glyph glyph-name="c" unicode="c" 
d="M205 1399l-205 -206v-988l205 -205h457l205 205v272h-267v-209h-332v863h332v-209h267v271l-205 206h-457z" />
    <glyph glyph-name="d" unicode="d" 
d="M600 268h-332v863h332v-863zM0 1399v-1399h662l205 205v988l-205 206h-662z" />
    <glyph glyph-name="e" unicode="e" horiz-adv-x="861" 
d="M0 1399v-1399h711v268h-443v298h354v267h-354v298h443v268h-711z" />
    <glyph glyph-name="f" unicode="f" horiz-adv-x="861" 
d="M0 1399v-1399h268v566h354v267h-354v298h443v268h-711z" />
    <glyph glyph-name="g" unicode="g" 
d="M205 1399l-205 -206v-988l205 -205h457l205 205v628h-421v-267h154v-298h-332v863h332v-209h267v271l-205 206h-457z" />
    <glyph glyph-name="h" unicode="h" horiz-adv-x="984" 
d="M566 833h-298v566h-268v-1399h268v566h298v-566h268v1399h-268v-566z" />
    <glyph glyph-name="i" unicode="i" horiz-adv-x="418" 
d="M0 0h268v1399h-268v-1399z" />
    <glyph glyph-name="j" unicode="j" 
d="M600 268h-332v209h-268v-272l205 -205h457l205 205v1194h-267v-1131z" />
    <glyph glyph-name="k" unicode="k" horiz-adv-x="1050" 
d="M601 1399l-333 -582v582h-268v-1399h268v581l333 -581h299l-401 699l401 700h-299z" />
    <glyph glyph-name="l" unicode="l" horiz-adv-x="860" 
d="M268 1399h-268v-1399h710v268h-442v1131z" />
    <glyph glyph-name="m" unicode="m" horiz-adv-x="1180" 
d="M515 645l-225 754h-290v-1399h268v567l132 -567h230l132 567v-567h268v1399h-290z" />
    <glyph glyph-name="n" unicode="n" horiz-adv-x="1073" 
d="M655 602l-354 797h-301v-1399h268v797l354 -797h301v1399h-268v-797z" />
    <glyph glyph-name="o" unicode="o" 
d="M600 268h-332v863h332v-863zM205 1399l-205 -206v-988l205 -205h457l205 205v988l-205 206h-457z" />
    <glyph glyph-name="p" unicode="p" 
d="M599 799h-331v332h331v-332zM0 1399v-1399h268v532h394l205 205v456l-205 206h-662z" />
    <glyph glyph-name="q" unicode="q" 
d="M493 387l-121 -117h-104v864h332v-857zM205 1401l-205 -205v-988l205 -206h287l182 -187l193 185l-102 106l102 102v988l-205 205h-457z" />
    <glyph glyph-name="r" unicode="r" 
d="M600 799h-332v332h332v-332zM0 1399v-1399h268v532h332v-532h267v626l-73 71l73 73v423l-205 206h-662z" />
    <glyph glyph-name="s" unicode="s" 
d="M205 1399l-205 -206v-423l200 -204h400v-298h-332v209h-268v-272l205 -205h457l205 205v421l-73 71l1 1l-138 135h-389v298h332v-209h267v271l-205 206h-457z" />
    <glyph glyph-name="t" unicode="t" horiz-adv-x="935" 
d="M0 1399v-268h258v-1131h268v1131h259v268h-785z" />
    <glyph glyph-name="u" unicode="u" 
d="M599 268h-331v1131h-268v-1194l205 -205h457l205 205v1194h-268v-1131z" />
    <glyph glyph-name="v" unicode="v" horiz-adv-x="1150" 
d="M493 511l-225 888h-268l355 -1399h268l377 1399h-267z" />
    <glyph glyph-name="w" unicode="w" horiz-adv-x="1577" 
d="M1023 644l-185 755h-249l-185 -755l-128 755h-276l229 -1399h315l170 747l168 -747h316l229 1399h-276z" />
    <glyph glyph-name="x" unicode="x" horiz-adv-x="1043" 
d="M893 1399h-293l-153 -357l-153 357h-294l300 -700l-300 -699h293l154 357l153 -357h293l-300 699z" />
    <glyph glyph-name="y" unicode="y" horiz-adv-x="1140" 
d="M488 825l-223 574h-265l351 -900v-499h267v499l372 900h-265z" />
    <glyph glyph-name="z" unicode="z" horiz-adv-x="952" 
d="M0 1131h457l-450 -863l-7 -16v-252h802v268h-457l450 863l7 15v253h-802v-268z" />
    <glyph glyph-name="braceleft" unicode="{" horiz-adv-x="508" 
d="M268 755v379h90v268h-152l-206 -206v-448l49 -49l-49 -49v-445l206 -205h152v268h-90v375l56 56z" />
    <glyph glyph-name="bar" unicode="|" horiz-adv-x="418" 
d="M0 -200h268v1849h-268v-1849z" />
    <glyph glyph-name="braceright" unicode="}" horiz-adv-x="508" 
d="M34 699l56 -56v-375h-90v-268h152l206 205v445l-49 49l49 49v448l-206 206h-152v-268h90v-379z" />
    <glyph glyph-name="asciitilde" unicode="~" horiz-adv-x="910" 
d="M563 813q5 -77 -206 30q-39 14 -71 21q-81 19 -144 -2q-67 -23 -105 -84q-33 -54 -37 -127l190 -39q-3 25 14.5 43.5t191.5 -50t256.5 -15t107.5 184.5z" />
    <glyph glyph-name="exclamdown" unicode="&#xa1;" horiz-adv-x="419" 
d="M269 1401h-267v-268h267v268zM268 0v1046h-268v-1046h268z" />
    <glyph glyph-name="cent" unicode="&#xa2;" 
d="M205 1302l-205 -206v-544l205 -205h94v-97h269v97h94l205 205v162h-267v-99h-332v419h332v-99h267v161l-205 206h-94v96h-269v-96h-94z" />
    <glyph glyph-name="sterling" unicode="&#xa3;" horiz-adv-x="1076" 
d="M264 1399l-205 -206v-1193h867v268h-599v863h332v-209h267v271l-205 206h-457zM0 597h556v147h-556v-147z" />
    <glyph glyph-name="currency" unicode="&#xa4;" horiz-adv-x="150" 
 />
    <glyph glyph-name="yen" unicode="&#xa5;" horiz-adv-x="150" 
 />
    <glyph glyph-name="brokenbar" unicode="&#xa6;" horiz-adv-x="150" 
 />
    <glyph glyph-name="section" unicode="&#xa7;" horiz-adv-x="150" 
 />
    <glyph glyph-name="dieresis" unicode="&#xa8;" horiz-adv-x="841" 
d="M0 1616h268v268h-268v-268zM423 1616h268v268h-268v-268z" />
    <glyph glyph-name="copyright" unicode="&#xa9;" horiz-adv-x="150" 
 />
    <glyph glyph-name="ordfeminine" unicode="&#xaa;" horiz-adv-x="150" 
 />
    <glyph glyph-name="guillemotleft" unicode="&#xab;" horiz-adv-x="150" 
 />
    <glyph glyph-name="logicalnot" unicode="&#xac;" horiz-adv-x="150" 
 />
    <glyph glyph-name="registered" unicode="&#xae;" horiz-adv-x="150" 
 />
    <glyph glyph-name="macron" unicode="&#xaf;" horiz-adv-x="150" 
 />
    <glyph glyph-name="degree" unicode="&#xb0;" horiz-adv-x="150" 
 />
    <glyph glyph-name="plusminus" unicode="&#xb1;" horiz-adv-x="150" 
 />
    <glyph glyph-name="uni00B2" unicode="&#xb2;" horiz-adv-x="150" 
 />
    <glyph glyph-name="uni00B3" unicode="&#xb3;" horiz-adv-x="150" 
 />
    <glyph glyph-name="acute" unicode="&#xb4;" horiz-adv-x="617" 
d="M1 1614l191 389h267l-191 -389h-267z" />
    <glyph glyph-name="mu" unicode="&#xb5;" horiz-adv-x="150" 
 />
    <glyph glyph-name="paragraph" unicode="&#xb6;" horiz-adv-x="150" 
 />
    <glyph glyph-name="periodcentered" unicode="&#xb7;" horiz-adv-x="150" 
 />
    <glyph glyph-name="periodcentered" unicode="&#x2219;" horiz-adv-x="150" 
 />
    <glyph glyph-name="cedilla" unicode="&#xb8;" horiz-adv-x="679" 
d="M442 80l-227 82l-163 -444l-47 -131q276 6 290.5 -54.5t-87.5 -55.5q-42 5 -70 24l-138 -198q82 -57 187 -67t189 31q139 68 148 225q5 94 -62 166q-51 55 -141 95z" />
    <glyph glyph-name="uni00B9" unicode="&#xb9;" horiz-adv-x="150" 
 />
    <glyph glyph-name="ordmasculine" unicode="&#xba;" horiz-adv-x="150" 
 />
    <glyph glyph-name="guillemotright" unicode="&#xbb;" horiz-adv-x="150" 
 />
    <glyph glyph-name="onequarter" unicode="&#xbc;" horiz-adv-x="150" 
 />
    <glyph glyph-name="onehalf" unicode="&#xbd;" horiz-adv-x="150" 
 />
    <glyph glyph-name="threequarters" unicode="&#xbe;" horiz-adv-x="150" 
 />
    <glyph glyph-name="questiondown" unicode="&#xbf;" 
d="M624 1399h-267v-268h267v268zM662 0l205 205v272h-268v-209h-331v298h149l206 205v273h-268v-211h-147l-208 -211v-417l205 -205h457z" />
    <glyph glyph-name="Agrave" unicode="&#xc0;" horiz-adv-x="1150" 
d="M604 506h-200l103 382zM332 238h340l61 -238h267l-355 1399h-268l-377 -1399h268zM387 1534l-191 389h267l191 -389h-267z" />
    <glyph glyph-name="Aacute" unicode="&#xc1;" horiz-adv-x="1150" 
d="M604 506h-200l103 382zM332 238h340l61 -238h267l-355 1399h-268l-377 -1399h268zM347 1539l191 389h267l-191 -389h-267z" />
    <glyph glyph-name="Acircumflex" unicode="&#xc2;" horiz-adv-x="1150" 
d="M604 506h-200l103 382zM332 238h340l61 -238h267l-355 1399h-268l-377 -1399h268zM500 1656l-200 -151l-135 178l267 203l68 51l68 -51l267 -203l-135 -178z" />
    <glyph glyph-name="Atilde" unicode="&#xc3;" horiz-adv-x="1150" 
d="M604 506h-200l103 382zM332 238h340l61 -238h267l-355 1399h-268l-377 -1399h268zM683 1752q5 -77 -206 30q-39 14 -71 21q-81 19 -144 -2q-67 -23 -105 -84q-33 -54 -37 -127l190 -39q-3 25 14.5 43.5t191.5 -50t256.5 -15t107.5 184.5z" />
    <glyph glyph-name="Adieresis" unicode="&#xc4;" horiz-adv-x="1150" 
d="M604 506h-200l103 382zM332 238h340l61 -238h267l-355 1399h-268l-377 -1399h268zM155 1535h268v268h-268v-268zM578 1535h268v268h-268v-268z" />
    <glyph glyph-name="Aring" unicode="&#xc5;" horiz-adv-x="1150" 
d="M604 506h-200l103 382zM535 1603.5q14 -14.5 14 -35.5q0 -20 -14 -34.5t-35 -14.5q-20 0 -34.5 14.5t-14.5 34.5q0 21 14.5 35.5t34.5 14.5q21 0 35 -14.5zM640 1429q57 58 57 139q0 82 -57.5 140t-139.5 58t-139.5 -58t-57.5 -140q0 -81 58 -139q17 -18 37 -30h-21
l-377 -1399h268l64 238h340l61 -238h267l-355 1399h-43q20 12 38 30z" />
    <glyph glyph-name="AE" unicode="&#xc6;" horiz-adv-x="1598" 
d="M1448 0v268h-441v298h352v267h-352v298h441v268h-708l-740 -1399h268l127 238h345v-238h708zM740 506h-203l203 382v-382z" />
    <glyph glyph-name="Ccedilla" unicode="&#xc7;" 
d="M304 -103l-27 -74q157 3 165.5 -31.5t-49.5 -31.5q-24 3 -40 14l-78 -113q46 -32 106 -38t108 18q79 39 83 128q3 53 -35 94q-29 32 -80 54l36 83h169l205 205v272h-267v-209h-332v863h332v-209h267v271l-205 206h-457l-205 -206v-988l205 -205h142z" />
    <glyph glyph-name="Egrave" unicode="&#xc8;" horiz-adv-x="861" 
d="M0 1399v-1399h711v268h-443v298h354v267h-354v298h443v268h-711zM241 1538l-191 389h267l191 -389h-267z" />
    <glyph glyph-name="Eacute" unicode="&#xc9;" horiz-adv-x="861" 
d="M0 1399v-1399h711v268h-443v298h354v267h-354v298h443v268h-711zM203 1538l191 389h267l-191 -389h-267z" />
    <glyph glyph-name="Ecircumflex" unicode="&#xca;" horiz-adv-x="861" 
d="M0 1399v-1399h711v268h-443v298h354v267h-354v298h443v268h-711zM356 1656l-201 -151l-134 178l266 203l69 51l68 -51l266 -203l-134 -178z" />
    <glyph glyph-name="Edieresis" unicode="&#xcb;" horiz-adv-x="861" 
d="M0 1399v-1399h711v268h-443v298h354v267h-354v298h443v268h-711zM11 1534h268v268h-268v-268zM434 1534h268v268h-268v-268z" />
    <glyph glyph-name="Igrave" unicode="&#xcc;" horiz-adv-x="418" 
d="M0 0h268v1399h-268v-1399zM19 1534l-190 389h267l190 -389h-267z" />
    <glyph glyph-name="Iacute" unicode="&#xcd;" horiz-adv-x="417" 
d="M0 0h267v1399h-267v-1399zM-9 1534l191 389h267l-191 -389h-267z" />
    <glyph glyph-name="Icircumflex" unicode="&#xce;" horiz-adv-x="418" 
d="M0 0h268v1399h-268v-1399zM134 1656l-200 -151l-135 178l267 203l68 51l68 -51l267 -203l-135 -178z" />
    <glyph glyph-name="Idieresis" unicode="&#xcf;" horiz-adv-x="417" 
d="M-1 0h267v1399h-267v-1399zM-212 1536h267v268h-267v-268zM211 1536h267v268h-267v-268z" />
    <glyph glyph-name="Eth" unicode="&#xd0;" 
d="M268 833v298h332v-863h-332v298h208v267h-208zM-80 833v-267h80v-566h662l205 205v988l-205 206h-662v-566h-80z" />
    <glyph glyph-name="Ntilde" unicode="&#xd1;" horiz-adv-x="1073" 
d="M655 602l-354 797h-301v-1399h268v797l354 -797h301v1399h-268v-797zM644 1753q5 -77 -206 30q-39 14 -71 21q-81 19 -144 -2q-67 -23 -105 -84q-33 -54 -37 -127l190 -39q-3 25 14.5 43.5t191.5 -50t256.5 -15t107.5 184.5z" />
    <glyph glyph-name="Ograve" unicode="&#xd2;" 
d="M600 268h-332v863h332v-863zM205 1399l-205 -206v-988l205 -205h457l205 205v988l-205 206h-457zM319 1618l-191 389h267l191 -389h-267z" />
    <glyph glyph-name="Oacute" unicode="&#xd3;" 
d="M600 268h-332v863h332v-863zM205 1399l-205 -206v-988l205 -205h457l205 205v988l-205 206h-457zM281 1618l191 389h267l-191 -389h-267z" />
    <glyph glyph-name="Ocircumflex" unicode="&#xd4;" 
d="M600 268h-332v863h332v-863zM205 1399l-205 -206v-988l205 -205h457l205 205v988l-205 206h-457zM434 1657l-201 -151l-134 178l266 203l69 51l68 -51l266 -203l-134 -178z" />
    <glyph glyph-name="Otilde" unicode="&#xd5;" 
d="M600 268h-332v863h332v-863zM205 1399l-205 -206v-988l205 -205h457l205 205v988l-205 206h-457zM616 1753q5 -77 -206 30q-39 14 -71 21q-81 19 -144 -2q-67 -23 -105 -84q-33 -54 -37 -127l190 -39q-3 25 14.5 43.5t191.5 -50t256.5 -15t107.5 184.5z" />
    <glyph glyph-name="Odieresis" unicode="&#xd6;" 
d="M600 268h-332v863h332v-863zM205 1399l-205 -206v-988l205 -205h457l205 205v988l-205 206h-457zM88 1534h268v268h-268v-268zM511 1534h268v268h-268v-268z" />
    <glyph glyph-name="multiply" unicode="&#xd7;" horiz-adv-x="816" 
d="M474 370l189 189l-140 141l140 141l-189 189l-140 -141l-142 141l-189 -189l142 -141l-142 -141l189 -189l142 141z" />
    <glyph glyph-name="Oslash" unicode="&#xd8;" 
d="M600 810v-542h-273zM268 527v604h305zM205 1399l-205 -206v-988l205 -205h457l205 205v988l-205 206h-457z" />
    <glyph glyph-name="Ugrave" unicode="&#xd9;" 
d="M599 268h-331v1131h-268v-1194l205 -205h457l205 205v1194h-268v-1131zM319 1534l-191 389h267l191 -389h-267z" />
    <glyph glyph-name="Uacute" unicode="&#xda;" 
d="M599 268h-331v1131h-268v-1194l205 -205h457l205 205v1194h-268v-1131zM281 1534l191 389h267l-191 -389h-267z" />
    <glyph glyph-name="Ucircumflex" unicode="&#xdb;" 
d="M599 268h-331v1131h-268v-1194l205 -205h457l205 205v1194h-268v-1131zM403 1609l-200 -151l-135 178l267 203l68 51l68 -51l267 -203l-135 -178z" />
    <glyph glyph-name="Udieresis" unicode="&#xdc;" 
d="M599 268h-331v1131h-268v-1194l205 -205h457l205 205v1194h-268v-1131zM331 1536h268v268h-268v-268zM754 1536h268v268h-268v-268z" />
    <glyph glyph-name="Yacute" unicode="&#xdd;" horiz-adv-x="1140" 
d="M488 825l-223 574h-265l351 -900v-499h267v499l372 900h-265zM343 1534l191 389h267l-191 -389h-267z" />
    <glyph glyph-name="Thorn" unicode="&#xde;" 
d="M267 1399h-267v-140h-1v-1127h1v-132h267v132h394l205 205v716l-205 206h-394v140zM598 399h-331v592h331v-592z" />
    <glyph glyph-name="glyph159" unicode="&#x178;" horiz-adv-x="1140" 
d="M488 825l-223 574h-265l351 -900v-499h267v499l372 900h-265zM150 1537h267v268h-267v-268zM573 1537h267v268h-267v-268z" />
    <glyph glyph-name="germandbls" unicode="&#xdf;" horiz-adv-x="1061" 
d="M706 1399h-501l-205 -206v-1193h268v1131h376v-298h-243v-267h243v-298h-243v-268h305l205 205v421l-72 71l72 73v423z" />
    <glyph glyph-name="agrave" unicode="&#xe0;" horiz-adv-x="1150" 
d="M604 506h-200l103 382zM332 238h340l61 -238h267l-355 1399h-268l-377 -1399h268zM387 1534l-191 389h267l191 -389h-267z" />
    <glyph glyph-name="aacute" unicode="&#xe1;" horiz-adv-x="1150" 
d="M604 506h-200l103 382zM332 238h340l61 -238h267l-355 1399h-268l-377 -1399h268zM347 1539l191 388h267l-191 -388h-267z" />
    <glyph glyph-name="acircumflex" unicode="&#xe2;" horiz-adv-x="1150" 
d="M604 506h-200l103 382zM332 238h340l61 -238h267l-355 1399h-268l-377 -1399h268zM500 1657l-200 -151l-135 178l267 203l68 51l68 -51l267 -203l-135 -178z" />
    <glyph glyph-name="atilde" unicode="&#xe3;" horiz-adv-x="1150" 
d="M604 506h-200l103 382zM332 238h340l61 -238h267l-355 1399h-268l-377 -1399h268zM683 1752q5 -77 -206 30q-39 14 -71 21q-81 19 -144 -2q-67 -23 -105 -84q-33 -54 -37 -127l190 -39q-3 25 14.5 43.5t191.5 -50t256.5 -15t107.5 184.5z" />
    <glyph glyph-name="adieresis" unicode="&#xe4;" horiz-adv-x="1150" 
d="M604 506h-200l103 382zM332 238h340l61 -238h267l-355 1399h-268l-377 -1399h268zM155 1535h268v268h-268v-268zM578 1535h268v268h-268v-268z" />
    <glyph glyph-name="aring" unicode="&#xe5;" horiz-adv-x="1150" 
d="M604 506h-200l103 382zM535 1603.5q14 -14.5 14 -35.5q0 -20 -14 -34.5t-35 -14.5q-20 0 -34.5 14.5t-14.5 34.5q0 21 14.5 35.5t34.5 14.5q21 0 35 -14.5zM640 1429q57 58 57 139q0 82 -57.5 140t-139.5 58t-139.5 -58t-57.5 -140q0 -81 58 -139q17 -18 37 -30h-21
l-377 -1399h268l64 238h340l61 -238h267l-355 1399h-43q20 12 38 30z" />
    <glyph glyph-name="ae" unicode="&#xe6;" horiz-adv-x="1598" 
d="M1448 0v268h-441v298h352v267h-352v298h441v268h-708l-740 -1399h268l127 238h345v-238h708zM740 506h-203l203 382v-382z" />
    <glyph glyph-name="ccedilla" unicode="&#xe7;" 
d="M304 -103l-27 -74q157 3 165.5 -31.5t-49.5 -31.5q-24 3 -40 14l-78 -113q46 -32 106 -38t108 18q79 39 83 128q3 53 -35 94q-29 32 -80 54l36 83h169l205 205v272h-267v-209h-332v863h332v-209h267v271l-205 206h-457l-205 -206v-988l205 -205h142z" />
    <glyph glyph-name="egrave" unicode="&#xe8;" horiz-adv-x="861" 
d="M0 1399v-1399h711v268h-443v298h354v267h-354v298h443v268h-711zM241 1538l-190 389h266l191 -389h-267z" />
    <glyph glyph-name="eacute" unicode="&#xe9;" horiz-adv-x="861" 
d="M0 1399v-1399h711v268h-443v298h354v267h-354v298h443v268h-711zM203 1538l191 389h267l-191 -389h-267z" />
    <glyph glyph-name="ecircumflex" unicode="&#xea;" horiz-adv-x="861" 
d="M0 1399v-1399h711v268h-443v298h354v267h-354v298h443v268h-711zM356 1657l-201 -151l-134 178l266 203l69 51l68 -51l266 -203l-134 -178z" />
    <glyph glyph-name="edieresis" unicode="&#xeb;" horiz-adv-x="861" 
d="M0 1399v-1399h711v268h-443v298h354v267h-354v298h443v268h-711zM11 1534h268v268h-268v-268zM434 1534h268v268h-268v-268z" />
    <glyph glyph-name="igrave" unicode="&#xec;" horiz-adv-x="418" 
d="M0 0h268v1399h-268v-1399zM19 1534l-190 389h267l190 -389h-267z" />
    <glyph glyph-name="iacute" unicode="&#xed;" horiz-adv-x="417" 
d="M0 0h267v1399h-267v-1399zM-9 1534l191 389h267l-191 -389h-267z" />
    <glyph glyph-name="icircumflex" unicode="&#xee;" horiz-adv-x="418" 
d="M0 0h268v1399h-268v-1399zM134 1656l-200 -151l-135 178l267 203l68 51l68 -51l267 -203l-135 -178z" />
    <glyph glyph-name="idieresis" unicode="&#xef;" horiz-adv-x="417" 
d="M-1 0h267v1399h-267v-1399zM-212 1536h267v268h-267v-268zM211 1536h267v268h-267v-268z" />
    <glyph glyph-name="eth" unicode="&#xf0;" 
d="M268 833v298h332v-863h-332v298h208v267h-208zM-80 833v-267h80v-566h662l205 205v988l-205 206h-662v-566h-80z" />
    <glyph glyph-name="ntilde" unicode="&#xf1;" horiz-adv-x="1073" 
d="M655 602l-354 797h-301v-1399h268v797l354 -797h301v1399h-268v-797zM644 1753q5 -77 -206 29q-39 15 -71 22q-81 19 -143 -2q-68 -23 -106 -84q-33 -54 -37 -127l190 -40q-3 25 15 43.5t191.5 -49.5t256 -15t108.5 185z" />
    <glyph glyph-name="ograve" unicode="&#xf2;" 
d="M600 268h-332v863h332v-863zM205 1399l-205 -206v-988l205 -205h457l205 205v988l-205 206h-457zM319 1617l-191 389h267l191 -389h-267z" />
    <glyph glyph-name="oacute" unicode="&#xf3;" 
d="M600 268h-332v863h332v-863zM205 1399l-205 -206v-988l205 -205h457l205 205v988l-205 206h-457zM281 1618l190 389h267l-190 -389h-267z" />
    <glyph glyph-name="ocircumflex" unicode="&#xf4;" 
d="M600 268h-332v863h332v-863zM205 1399l-205 -206v-988l205 -205h457l205 205v988l-205 206h-457zM434 1657l-201 -151l-134 178l266 203l69 51l68 -51l266 -203l-134 -178z" />
    <glyph glyph-name="otilde" unicode="&#xf5;" 
d="M600 268h-332v863h332v-863zM205 1399l-205 -206v-988l205 -205h457l205 205v988l-205 206h-457zM616 1753q5 -77 -206 30q-39 14 -71 21q-81 19 -144 -2q-67 -23 -105 -84q-33 -54 -37 -127l190 -39q-3 25 15 43.5t191.5 -50t256 -15t108.5 184.5z" />
    <glyph glyph-name="odieresis" unicode="&#xf6;" 
d="M600 268h-332v863h332v-863zM205 1399l-205 -206v-988l205 -205h457l205 205v988l-205 206h-457zM88 1534h268v268h-268v-268zM511 1534h268v268h-268v-268z" />
    <glyph glyph-name="divide" unicode="&#xf7;" horiz-adv-x="1032" 
d="M307 219h268v268h-268v-268zM307 906h268v268h-268v-268zM882 566v267h-882v-267h882z" />
    <glyph glyph-name="oslash" unicode="&#xf8;" 
d="M600 810v-542h-273zM268 527v604h305zM205 1399l-205 -206v-988l205 -205h457l205 205v988l-205 206h-457z" />
    <glyph glyph-name="ugrave" unicode="&#xf9;" 
d="M599 268h-331v1131h-268v-1194l205 -205h457l205 205v1194h-268v-1131zM319 1534l-191 389h267l191 -389h-267z" />
    <glyph glyph-name="uacute" unicode="&#xfa;" 
d="M599 268h-331v1131h-268v-1194l205 -205h457l205 205v1194h-268v-1131zM281 1534l191 389h267l-191 -389h-267z" />
    <glyph glyph-name="ucircumflex" unicode="&#xfb;" 
d="M599 268h-331v1131h-268v-1194l205 -205h457l205 205v1194h-268v-1131zM434 1657l-201 -151l-134 178l266 203l69 51l68 -51l266 -203l-134 -178z" />
    <glyph glyph-name="udieresis" unicode="&#xfc;" 
d="M599 268h-331v1131h-268v-1194l205 -205h457l205 205v1194h-268v-1131zM88 1536h267v268h-267v-268zM511 1536h267v268h-267v-268z" />
    <glyph glyph-name="yacute" unicode="&#xfd;" horiz-adv-x="1140" 
d="M488 825l-223 574h-265l351 -900v-499h267v499l372 900h-265zM343 1534l191 389h267l-191 -389h-267z" />
    <glyph glyph-name="thorn" unicode="&#xfe;" 
d="M267 1399h-267v-140h-1v-1127h1v-132h267v132h394l205 205v716l-205 206h-394v140zM598 399h-331v592h331v-592z" />
    <glyph glyph-name="ydieresis" unicode="&#xff;" horiz-adv-x="1140" 
d="M488 825l-223 574h-265l351 -900v-499h267v499l372 900h-265zM150 1537h267v268h-267v-268zM573 1537h267v268h-267v-268z" />
    <glyph glyph-name="dotlessi" unicode="&#x131;" horiz-adv-x="150" 
 />
    <glyph glyph-name="circumflex" unicode="&#x2c6;" horiz-adv-x="820" 
d="M335 1657l-200 -151l-135 178l267 203l68 51l68 -51l267 -203l-135 -178z" />
    <glyph glyph-name="caron" unicode="&#x2c7;" horiz-adv-x="820" 
d="M535 1938l135 -178l-267 -203l-68 -51l-68 51l-267 203l135 178l200 -151z" />
    <glyph glyph-name="uni02C9" unicode="&#x2c9;" horiz-adv-x="706" 
d="M0 1616h556v267h-556v-267z" />
    <glyph glyph-name="breve" unicode="&#x2d8;" horiz-adv-x="794" 
d="M400 1908v2q-2 -52 -32 -70q-11 -6 -26 -9q-5 0 -11 -1h-18q-6 1 -12 1q-14 3 -25 9q-30 18 -32 70l-244 -2q0 -118 72 -210q90 -112 250 -112t249 112q73 92 73 210h-244z" />
    <glyph glyph-name="dotaccent" unicode="&#x2d9;" horiz-adv-x="418" 
d="M0 1616h268v268h-268v-268z" />
    <glyph glyph-name="ring" unicode="&#x2da;" horiz-adv-x="544" 
d="M336.5 1913q57.5 -58 57.5 -140q0 -81 -57.5 -139t-139.5 -58t-139.5 58t-57.5 139q0 82 57.5 140t139.5 58t139.5 -58zM197 1823q-20 0 -34.5 -14.5t-14.5 -35.5q0 -20 14.5 -34.5t34.5 -14.5t34.5 14.5t14.5 34.5q0 21 -14.5 35.5t-34.5 14.5z" />
    <glyph glyph-name="ogonek" unicode="&#x2db;" horiz-adv-x="482" 
d="M104 38q-97 -105 -100 -173q-4 -74 51 -122q26 -26 75 -46q51 -23 139 -8l1 151q-46 -22 -73 13q-27 34 43 96q46 41 92 70l-153 91q-43 -37 -75 -72z" />
    <glyph glyph-name="tilde" unicode="&#x2dc;" horiz-adv-x="910" 
d="M563 1738q5 -77 -206 30q-39 14 -71 21q-81 19 -144 -2q-67 -23 -105 -84q-33 -54 -37 -127l190 -39q-3 25 14.5 43.5t191.5 -50t256.5 -15t107.5 184.5z" />
    <glyph glyph-name="hungarumlaut" unicode="&#x2dd;" horiz-adv-x="936" 
d="M267 1616l150 556h-267l-150 -556h267zM636 1616l150 556h-267l-150 -556h267z" />
    <glyph glyph-name="endash" unicode="&#x2013;" horiz-adv-x="150" 
 />
    <glyph glyph-name="emdash" unicode="&#x2014;" horiz-adv-x="150" 
 />
    <glyph glyph-name="quoteleft" unicode="&#x2018;" horiz-adv-x="418" 
d="M268 1257h-126l61 140h-142l-60 -140h-1v-268h268v268z" />
    <glyph glyph-name="quoteright" unicode="&#x2019;" horiz-adv-x="418" 
d="M0 1129h125l-60 -140h141l61 140h1v268h-268v-268z" />
    <glyph glyph-name="quotesinglbase" unicode="&#x201a;" horiz-adv-x="418" 
d="M0 -1h125l-60 -140h141l61 140h1v268h-268v-268z" />
    <glyph glyph-name="quotedblleft" unicode="&#x201c;" horiz-adv-x="757" 
d="M607 1257h-126l61 140h-142l-60 -140h-1v-268h268v268zM268 1257h-126l61 140h-142l-60 -140h-1v-268h268v268z" />
    <glyph glyph-name="quotedblright" unicode="&#x201d;" horiz-adv-x="757" 
d="M0 1129h125l-60 -140h141l61 140h1v268h-268v-268zM339 1129h125l-60 -140h141l61 140h1v268h-268v-268z" />
    <glyph glyph-name="quotedblbase" unicode="&#x201e;" horiz-adv-x="757" 
d="M0 -1h125l-60 -140h141l61 140h1v268h-268v-268zM339 267h268v-269h-1l-61 -139h-141l60 139h-125v269z" />
    <glyph glyph-name="dagger" unicode="&#x2020;" horiz-adv-x="150" 
 />
    <glyph glyph-name="daggerdbl" unicode="&#x2021;" horiz-adv-x="150" 
 />
    <glyph glyph-name="bullet" unicode="&#x2022;" horiz-adv-x="150" 
 />
    <glyph glyph-name="ellipsis" unicode="&#x2026;" horiz-adv-x="150" 
 />
    <glyph glyph-name="guilsinglleft" unicode="&#x2039;" horiz-adv-x="150" 
 />
    <glyph glyph-name="guilsinglright" unicode="&#x203a;" horiz-adv-x="150" 
 />
    <glyph glyph-name="fraction" unicode="&#x2044;" horiz-adv-x="150" 
 />
    <glyph glyph-name="fraction" unicode="&#x2215;" horiz-adv-x="150" 
 />
    <glyph glyph-name="franc" unicode="&#x20a3;" horiz-adv-x="150" 
 />
    <glyph glyph-name="lira" unicode="&#x20a4;" horiz-adv-x="150" 
 />
    <glyph glyph-name="peseta" unicode="&#x20a7;" horiz-adv-x="150" 
 />
    <glyph glyph-name="Euro" unicode="&#x20ac;" horiz-adv-x="987" 
d="M-50 911v-147h109v-133h-109v-147h109v-279l205 -205h573v268h-510v216h330v147h-330v133h330v147h-330v220h510v268h-573l-205 -206v-282h-109z" />
    <glyph glyph-name="uni2116" unicode="&#x2116;" horiz-adv-x="150" 
 />
    <glyph glyph-name="trademark" unicode="&#x2122;" horiz-adv-x="150" 
 />
    <glyph glyph-name="partialdiff" unicode="&#x2202;" horiz-adv-x="150" 
 />
    <glyph glyph-name="Delta" unicode="&#x2206;" horiz-adv-x="150" 
 />
    <glyph glyph-name="product" unicode="&#x220f;" horiz-adv-x="150" 
 />
    <glyph glyph-name="summation" unicode="&#x2211;" horiz-adv-x="150" 
 />
    <glyph glyph-name="minus" unicode="&#x2212;" horiz-adv-x="150" 
 />
    <glyph glyph-name="radical" unicode="&#x221a;" horiz-adv-x="150" 
 />
    <glyph glyph-name="infinity" unicode="&#x221e;" horiz-adv-x="150" 
 />
    <glyph glyph-name="integral" unicode="&#x222b;" horiz-adv-x="150" 
 />
    <glyph glyph-name="approxequal" unicode="&#x2248;" horiz-adv-x="150" 
 />
    <glyph glyph-name="lessequal" unicode="&#x2264;" horiz-adv-x="150" 
 />
    <glyph glyph-name="greaterequal" unicode="&#x2265;" horiz-adv-x="150" 
 />
    <glyph glyph-name="uniF001" unicode="&#xf001;" horiz-adv-x="150" 
 />
    <glyph glyph-name="uniF001" unicode="&#xfb01;" horiz-adv-x="150" 
 />
    <glyph glyph-name="uniF002" unicode="&#xf002;" horiz-adv-x="150" 
 />
    <glyph glyph-name="uniF002" unicode="&#xfb02;" horiz-adv-x="150" 
 />
    <glyph glyph-name="Ydieresis" horiz-adv-x="1140" 
d="M488 825l-223 574h-265l351 -900v-499h267v499l372 900h-265zM150 1537h267v268h-267v-268zM573 1537h267v268h-267v-268z" />
    <glyph glyph-name="Aogonek" unicode="&#x104;" horiz-adv-x="1150" 
d="M604 506h-200l103 382zM670 -153q-4 -73 51 -122q25 -25 75 -46q51 -23 139 -7l1 150q-46 -21 -73 13.5t43 96.5q44 39 89 68h5l-355 1399h-268l-377 -1399h268l64 238h340l61 -238h18q-78 -92 -81 -153z" />
    <glyph glyph-name="aogonek" unicode="&#x105;" horiz-adv-x="1150" 
d="M604 506h-200l103 382zM670 -153q-4 -73 51 -122q25 -25 75 -46q51 -23 139 -7l1 150q-46 -21 -73 13.5t43 96.5q44 39 89 68h5l-355 1399h-268l-377 -1399h268l64 238h340l61 -238h18q-78 -92 -81 -153z" />
    <glyph glyph-name="Cacute" unicode="&#x106;" 
d="M205 1399l-205 -206v-988l205 -205h457l205 205v272h-267v-209h-332v863h332v-209h267v271l-205 206h-457zM281 1534l191 389h267l-191 -389h-267z" />
    <glyph glyph-name="cacute" unicode="&#x107;" 
d="M205 1399l-205 -206v-988l205 -205h457l205 205v272h-267v-209h-332v863h332v-209h267v271l-205 206h-457zM281 1534l191 389h267l-191 -389h-267z" />
    <glyph glyph-name="Eogonek" unicode="&#x118;" horiz-adv-x="861" 
d="M382 -148q-3 -74 52 -122q25 -26 74 -46q52 -23 139 -8l2 151q-47 -22 -73 13q-27 34 42 96q41 37 93 64v268h-443v298h354v267h-354v298h443v268h-711v-1399h461q-76 -88 -79 -148z" />
    <glyph glyph-name="eogonek" unicode="&#x119;" horiz-adv-x="861" 
d="M382 -148q-3 -74 52 -122q25 -26 74 -46q52 -23 139 -8l2 151q-47 -22 -73 13q-27 34 42 96q41 37 93 64v268h-443v298h354v267h-354v298h443v268h-711v-1399h461q-76 -88 -79 -148z" />
    <glyph glyph-name="Lslash" unicode="&#x141;" horiz-adv-x="860" 
d="M-155 512l97 -91l58 62v-483h710v268h-442v500l178 190l-97 91l-81 -86v436h-268v-722z" />
    <glyph glyph-name="lslash" unicode="&#x142;" horiz-adv-x="860" 
d="M-155 512l97 -91l58 62v-483h710v268h-442v500l178 190l-97 91l-81 -86v436h-268v-722z" />
    <glyph glyph-name="Nacute" unicode="&#x143;" horiz-adv-x="1073" 
d="M655 602l-354 797h-301v-1399h268v797l354 -797h301v1399h-268v-797zM308 1534l191 389h267l-191 -389h-267z" />
    <glyph glyph-name="nacute" unicode="&#x144;" horiz-adv-x="1073" 
d="M655 602l-354 797h-301v-1399h268v797l354 -797h301v1399h-268v-797zM308 1534l191 389h267l-191 -389h-267z" />
    <glyph glyph-name="OE" unicode="&#x152;" horiz-adv-x="1460" 
d="M600 268h-332v863h332v-863zM833 0h477v268h-443v298h355v267h-355v298h443v268h-1105l-205 -206v-988l205 -205h461l83 80z" />
    <glyph glyph-name="oe" unicode="&#x153;" horiz-adv-x="1460" 
d="M600 268h-332v863h332v-863zM823 0h487v268h-443v298h355v267h-355v298h443v268h-487l-84 -80l-83 80h-451l-205 -206v-988l205 -205h451l83 80z" />
    <glyph glyph-name="Zdotaccent" unicode="&#x17b;" horiz-adv-x="952" 
d="M0 1131h457l-450 -863l-7 -16v-252h802v268h-457l450 863l7 15v253h-802v-268zM510 1538h268v268h-268v-268z" />
    <glyph glyph-name="zdotaccent" unicode="&#x17c;" horiz-adv-x="952" 
d="M0 1131h457l-450 -863l-7 -16v-252h802v268h-457l450 863l7 15v253h-802v-268zM267 1538h268v268h-268v-268z" />
    <glyph glyph-name="Zacute" unicode="&#x179;" horiz-adv-x="952" 
d="M0 1131h457l-450 -863l-7 -16v-252h802v268h-457l450 863l7 15v253h-802v-268zM248 1534l191 389h267l-191 -389h-267z" />
    <glyph glyph-name="zacute" unicode="&#x17a;" horiz-adv-x="952" 
d="M0 1131h457l-450 -863l-7 -16v-252h802v268h-457l450 863l7 15v253h-802v-268zM248 1534l191 389h267l-191 -389h-267z" />
    <glyph glyph-name="Ncaron" unicode="&#x147;" horiz-adv-x="1073" 
d="M655 602l-354 797h-301v-1399h268v797l354 -797h301v1399h-268v-797zM662 1937l134 -178l-266 -203l-68 -51l-69 51l-266 203l134 178l201 -151z" />
    <glyph glyph-name="ncaron" unicode="&#x148;" horiz-adv-x="1073" 
d="M655 602l-354 797h-301v-1399h268v797l354 -797h301v1399h-268v-797zM662 1938l134 -178l-266 -203l-68 -51l-69 51l-266 203l134 178l201 -151z" />
    <glyph glyph-name="Rcaron" unicode="&#x158;" 
d="M600 799h-332v332h332v-332zM0 1399v-1399h268v532h332v-532h267v626l-73 71l73 73v423l-205 206h-662zM634 1937l134 -178l-266 -203l-68 -51l-69 51l-266 203l134 178l201 -151z" />
    <glyph glyph-name="rcaron" unicode="&#x159;" 
d="M600 799h-332v332h332v-332zM0 1399v-1399h268v532h332v-532h267v626l-73 71l73 73v423l-205 206h-662zM634 1938l134 -178l-266 -203l-68 -51l-69 51l-266 203l134 178l201 -151z" />
    <glyph glyph-name="Scaron" unicode="&#x160;" 
d="M205 1399l-205 -206v-423l200 -204h400v-298h-332v209h-268v-272l205 -205h457l205 205v421l-73 71l1 1l-138 135h-389v298h332v-209h267v271l-205 206h-457zM634 1937l134 -178l-266 -203l-68 -51l-69 51l-266 203l134 178l201 -151z" />
    <glyph glyph-name="scaron" unicode="&#x161;" 
d="M205 1399l-205 -206v-423l200 -204h400v-298h-332v209h-268v-272l205 -205h457l205 205v421l-73 71l1 1l-138 135h-389v298h332v-209h267v271l-205 206h-457zM634 1938l134 -178l-266 -203l-68 -51l-69 51l-266 203l134 178l201 -151z" />
    <glyph glyph-name="Tcaron" unicode="&#x164;" horiz-adv-x="935" 
d="M0 1399v-268h258v-1131h268v1131h256l3 268h-785zM593 1937l134 -178l-266 -203l-68 -51l-69 51l-266 203l134 178l201 -151z" />
    <glyph glyph-name="Zcaron" unicode="&#x17d;" horiz-adv-x="952" 
d="M0 1131h457l-450 -863l-7 -16v-252h802v268h-457l450 863l7 15v253h-802v-268zM601 1937l135 -178l-267 -203l-68 -51l-68 51l-267 203l135 178l200 -151z" />
    <glyph glyph-name="zcaron" unicode="&#x17e;" horiz-adv-x="952" 
d="M0 1131h457l-450 -863l-7 -16v-252h802v268h-457l450 863l7 15v253h-802v-268zM601 1938l135 -178l-267 -203l-68 -51l-68 51l-267 203l135 178l200 -151z" />
    <glyph glyph-name="tcaron" unicode="&#x165;" horiz-adv-x="935" 
d="M0 1399v-268h258v-1131h268v1131h256l3 268h-785zM593 1937l134 -178l-266 -203l-68 -51l-69 51l-266 203l134 178l201 -151z" />
    </font>
</defs>
</svg>
