<?xml version="1.0" standalone="no"?>
<!DOCTYPE svg PUBLIC "-//W3C//DTD SVG 1.1//EN" "http://www.w3.org/Graphics/SVG/1.1/DTD/svg11.dtd" >
<svg xmlns="http://www.w3.org/2000/svg" xmlns:xlink="http://www.w3.org/1999/xlink" version="1.1">
<metadata>
Created by FontForge 20170924 at Mon Mar  3 20:17:50 2014
 By www-data
Copyright (c) 2014 by Marco Ugolini. All rights reserved.
</metadata>
<defs>
<font id="ColunaRounded-CondensedBold" horiz-adv-x="370" >
  <font-face 
    font-family="Coluna Rounded"
    font-weight="700"
    font-stretch="condensed"
    units-per-em="1000"
    panose-1="2 0 5 6 0 0 0 2 0 3"
    ascent="750"
    descent="-250"
    x-height="719"
    cap-height="720"
    bbox="-45 -375 648 897"
    underline-thickness="80"
    underline-position="-116"
    unicode-range="U+0020-2212"
  />
<missing-glyph horiz-adv-x="180" 
 />
    <glyph glyph-name=".notdef" horiz-adv-x="180" 
 />
    <glyph glyph-name=".null" horiz-adv-x="0" 
 />
    <glyph glyph-name="CR" horiz-adv-x="169" 
 />
    <glyph glyph-name="space" unicode=" " horiz-adv-x="169" 
 />
    <glyph glyph-name="F" unicode="F" horiz-adv-x="318" 
d="M174 406h71c15 0 27 -12 27 -27v-50c0 -15 -12 -27 -27 -27h-71v-275c0 -15 -12 -27 -27 -27h-93c-15 0 -27 12 -27 27v666c0 15 12 27 27 27h225c15 0 27 -12 27 -27v-66c0 -15 -12 -27 -27 -27h-105v-194z" />
    <glyph glyph-name="G" unicode="G" horiz-adv-x="372" 
d="M303 690c33 -32 51 -69 51 -118v-120c0 -15 -12 -27 -27 -27h-88c-15 0 -27 12 -27 27v128c0 21 -18 23 -25 23s-25 -2 -25 -23v-445c0 -21 20 -23 27 -23s23 2 27 23v132c-17 0 -29 12 -29 27v25c0 15 12 27 27 27h113c15 0 27 -12 27 -27v-319h-40s-5 35 -7 33
c-30 -30 -58 -47 -120 -47c-44 0 -86 9 -116 39c-33 33 -51 69 -51 118v429c0 49 18 86 51 118c30 30 72 39 116 39s86 -9 116 -39z" />
    <glyph glyph-name="H" unicode="H" horiz-adv-x="400" 
d="M346 720c15 0 27 -12 27 -27v-666c0 -15 -12 -27 -27 -27h-93c-15 0 -27 12 -27 27v275h-52v-275c0 -15 -12 -27 -27 -27h-93c-15 0 -27 12 -27 27v666c0 15 12 27 27 27h93c15 0 27 -12 27 -27v-287h52v287c0 15 12 27 27 27h93z" />
    <glyph glyph-name="I" unicode="I" horiz-adv-x="212" 
d="M177 27c0 -15 -12 -27 -27 -27h-88c-15 0 -27 12 -27 27v666c0 15 12 27 27 27h88c15 0 27 -12 27 -27v-666z" />
    <glyph glyph-name="J" unicode="J" horiz-adv-x="377" 
d="M323 719c15 0 27 -12 27 -27v-549c0 -49 -18 -85 -51 -118c-30 -30 -72 -39 -116 -39s-86 9 -116 39c-33 33 -51 69 -51 118v113c0 15 12 27 27 27h88c15 0 27 -12 27 -27v-121c0 -21 18 -23 25 -23s25 2 25 23v557c0 15 12 27 27 27h88z" />
    <glyph glyph-name="K" unicode="K" horiz-adv-x="423" 
d="M286 432l121 -406c4 -14 -4 -26 -19 -26h-89c-15 0 -30 12 -34 26c-67 243 -67 243 -74 269c-10 -25 -10 -25 -22 -54v-214c0 -15 -12 -27 -27 -27h-88c-15 0 -27 12 -27 27v666c0 15 12 27 27 27h84c15 0 27 -12 27 -27v-229c9 25 9 25 79 230c5 14 21 26 36 26h88
c15 0 23 -11 17 -25z" />
    <glyph glyph-name="L" unicode="L" horiz-adv-x="318" 
d="M174 129h105c15 0 27 -12 27 -27v-75c0 -15 -12 -27 -27 -27h-225c-15 0 -27 12 -27 27v666c0 15 12 27 27 27h93c15 0 27 -12 27 -27v-564z" />
    <glyph glyph-name="M" unicode="M" horiz-adv-x="506" 
d="M452 719c15 0 27 -12 27 -27v-665c0 -15 -12 -27 -27 -27h-69c-15 0 -27 12 -27 27v383c-3 -27 -3 -27 -46 -383c-2 -15 -15 -27 -30 -27h-53c-15 0 -28 12 -30 27l-46 384v-384c0 -15 -12 -27 -27 -27h-70c-15 0 -27 12 -27 27v665c0 15 12 27 27 27h129
c15 0 28 -12 29 -27l41 -516l42 516c1 15 14 27 29 27h128z" />
    <glyph glyph-name="N" unicode="N" horiz-adv-x="396" 
d="M342 720c15 0 27 -12 27 -27v-666c0 -15 -12 -27 -27 -27h-75c-15 0 -30 12 -33 26l-82 364v-363c0 -15 -12 -27 -27 -27h-71c-15 0 -27 12 -27 27v666c0 15 12 27 27 27h79c15 0 29 -12 32 -26c73 -353 73 -353 79 -379v378c0 15 12 27 27 27h71z" />
    <glyph glyph-name="O" unicode="O" horiz-adv-x="373" 
d="M304 690c33 -32 51 -69 51 -117v-431c0 -49 -18 -85 -51 -117c-31 -31 -74 -39 -118 -39s-87 8 -118 39c-32 32 -50 68 -50 117v431c0 48 18 85 50 117c31 30 74 39 118 39s87 -9 118 -39zM213 134v447c0 20 -19 22 -27 22c-7 0 -26 -2 -26 -22v-447c0 -20 19 -23 26 -23
c8 0 27 3 27 23z" />
    <glyph glyph-name="P" unicode="P" horiz-adv-x="374" 
d="M312 672c32 -32 50 -76 50 -125v-100c0 -48 -18 -93 -50 -125c-31 -31 -73 -47 -117 -47h-25v-248c0 -15 -12 -27 -27 -27h-89c-15 0 -27 12 -27 27v666c0 15 12 27 27 27h141c44 0 86 -17 117 -48zM219 423v148c0 20 -5 31 -24 31h-25v-209h25c19 0 24 10 24 30z" />
    <glyph glyph-name="Q" unicode="Q" horiz-adv-x="385" 
d="M365 10c0 -29 -29 -21 -41 -19c-23 6 -42 15 -52 27c-26 -16 -55 -32 -86 -32c-44 0 -85 9 -116 39c-32 33 -50 69 -50 118v429c0 49 18 86 50 118c31 30 72 39 116 39s86 -9 116 -39c33 -32 51 -69 51 -118v-429c0 -24 -8 -44 -20 -60c0 0 -6 0 13 0s19 -14 19 -14v-59z
M162 135c0 -21 17 -23 24 -23c6 0 10 4 11 4c15 16 -9 33 -9 53h23v411c0 21 -17 23 -25 23c-7 0 -24 -2 -24 -23v-445z" />
    <glyph glyph-name="R" unicode="R" horiz-adv-x="383" 
d="M361 38c0 -19 18 -38 -22 -38h-108c-7 0 -12 16 -12 36v217c0 20 -7 30 -25 30h-25v-233v-23c0 -15 -12 -27 -27 -27h-88c-15 0 -27 12 -27 27v666c0 15 12 27 27 27h140c44 0 86 -17 117 -48c32 -32 50 -76 50 -125v-92c0 -44 -23 -86 -50 -117c37 -29 50 -73 50 -117
v-183zM219 431v140c0 20 -6 31 -25 31h-25v-201h25c19 0 25 10 25 30z" />
    <glyph glyph-name="S" unicode="S" horiz-adv-x="367" 
d="M311 341c32 -32 38 -59 38 -114v-84c0 -46 -16 -83 -51 -117c-27 -27 -64 -40 -117 -40c-51 0 -84 12 -112 40c-35 34 -51 71 -51 117v88c0 15 12 27 27 27h84c15 0 27 -12 27 -27v-95c0 -20 19 -22 25 -22c5 0 24 2 24 22v88c0 31 -9 34 -43 67l-104 94
c-27 27 -40 53 -40 97v90c0 46 16 84 51 118c28 27 61 39 113 39c51 0 84 -12 112 -39c35 -34 51 -72 51 -118v-77c0 -15 -12 -27 -27 -27h-86c-15 0 -27 12 -27 27v84c0 19 -14 23 -21 23c-9 0 -22 -4 -22 -22v-84c0 -34 19 -40 43 -64z" />
    <glyph glyph-name="T" unicode="T" horiz-adv-x="356" 
d="M250 600v-573c0 -15 -12 -27 -27 -27h-90c-15 0 -27 12 -27 27v573h-68c-15 0 -27 12 -27 27v66c0 15 12 27 27 27h280c15 0 27 -12 27 -27v-66c0 -15 -12 -27 -27 -27h-68z" />
    <glyph glyph-name="U" unicode="U" 
d="M325 719c15 0 27 -12 27 -27v-546c0 -48 -18 -89 -50 -121c-31 -30 -73 -39 -117 -39s-87 9 -117 39c-32 32 -50 73 -50 121v546c0 15 12 27 27 27h87c15 0 27 -12 27 -27v-558c0 -20 19 -22 26 -22s26 2 26 22v558c0 15 12 27 27 27h87z" />
    <glyph glyph-name="V" unicode="V" horiz-adv-x="409" 
d="M371 720c15 0 25 -12 23 -27l-110 -666c-2 -15 -16 -27 -31 -27h-97c-15 0 -29 12 -31 27l-110 666c-2 15 8 27 23 27h93c15 0 28 -12 30 -27c40 -422 40 -422 43 -449c3 27 3 27 44 449c2 15 15 27 30 27h93z" />
    <glyph glyph-name="W" unicode="W" horiz-adv-x="597" 
d="M558 720c15 0 25 -12 23 -27l-102 -666c-2 -15 -16 -27 -31 -27h-76c-15 0 -29 12 -31 27l-42 312c-4 -27 -4 -27 -43 -312c-2 -15 -16 -27 -31 -27h-76c-15 0 -29 12 -31 27l-102 666c-2 15 8 27 23 27h77c15 0 28 -12 30 -27c40 -403 40 -403 43 -430l45 430
c2 15 15 27 30 27h69c15 0 28 -12 30 -27l45 -430c3 27 3 27 43 430c2 15 15 27 30 27h77z" />
    <glyph glyph-name="X" unicode="X" horiz-adv-x="408" 
d="M278 378l109 -352c4 -14 -4 -26 -19 -26h-93c-15 0 -30 12 -33 26l-37 184l-39 -184c-4 -14 -18 -26 -33 -26h-93c-15 0 -23 12 -19 26l113 352l-98 316c-5 14 4 26 19 26h94c15 0 29 -12 31 -27l27 -180l27 180c2 15 16 27 31 27h94c15 0 23 -12 19 -26z" />
    <glyph glyph-name="Y" unicode="Y" horiz-adv-x="434" 
d="M286 298v-271c0 -15 -12 -27 -27 -27h-85c-15 0 -27 12 -27 27v273l-129 394c-4 14 4 26 19 26h86c15 0 30 -12 34 -26l60 -214l60 214c4 14 19 26 34 26h86c15 0 23 -12 19 -26z" />
    <glyph glyph-name="Z" unicode="Z" horiz-adv-x="342" 
d="M300 131c15 0 27 -12 27 -27v-77c0 -15 -12 -27 -27 -27h-258c-15 0 -27 12 -27 27v67l145 488h-112c-15 0 -27 12 -27 27v84c0 15 12 27 27 27h250c15 0 27 -12 27 -27v-64l-152 -498h127z" />
    <glyph glyph-name="one" unicode="1" horiz-adv-x="295" 
d="M252 720c9 0 16 -7 16 -16v-688c0 -9 -7 -16 -16 -16h-116c-9 0 -16 7 -16 16v552l-21 -28c-6 -7 -15 -8 -22 -2l-54 49c-7 6 -7 16 -1 23l89 98c6 7 18 12 27 12h114z" />
    <glyph glyph-name="two" unicode="2" horiz-adv-x="380" 
d="M321 368l-137 -174c-20 -28 -16 -62 -16 -62h166c9 0 16 -7 16 -16v-100c0 -9 -7 -16 -16 -16h-300c-9 0 -16 7 -16 16v136c0 52 6 61 35 102c4 5 152 196 152 196c7 11 10 21 10 29v95c0 13 -9 22 -22 22c-11 0 -23 -4 -23 -22v-105c0 -9 -7 -16 -16 -16h-116
c-9 0 -16 7 -16 16v95c0 48 17 87 53 123c30 29 66 42 119 42c54 0 90 -13 119 -42c33 -33 48 -71 48 -119v-99c-2 -30 -7 -53 -40 -101z" />
    <glyph glyph-name="three" unicode="3" horiz-adv-x="365" 
d="M306 352c18 -24 39 -51 39 -84v-128c0 -45 -16 -82 -50 -116c-27 -26 -63 -39 -115 -39c-51 0 -87 13 -114 39c-34 34 -50 71 -50 116v82c0 9 7 16 16 16h113c9 0 16 -7 16 -16v-91c0 -14 12 -18 19 -18c8 0 20 4 20 18v156c0 14 -12 16 -20 16h-32h-1c-9 0 -16 7 -16 16
v77c0 9 7 16 16 16h1h32c8 0 18 2 18 16v154c0 14 -10 18 -18 18c-7 0 -17 -4 -17 -18v-85c0 -9 -7 -16 -16 -16h-113c-9 0 -16 7 -16 16v76c0 45 16 82 50 116c27 26 61 39 112 39c52 0 86 -13 113 -39c34 -33 50 -70 50 -112v-126c0 -37 -19 -64 -37 -88
c-1 -2 -2 -4 -4 -5c2 -2 3 -4 4 -6z" />
    <glyph glyph-name="four" unicode="4" horiz-adv-x="382" 
d="M356 244c9 0 16 -7 16 -16v-93c0 -9 -7 -16 -16 -16h-42v-103c0 -9 -7 -16 -16 -16h-101c-9 0 -16 7 -16 16v104l-155 -1c-9 0 -16 7 -16 16v50c0 9 2 23 5 31l154 489c3 8 12 15 21 15h108c9 0 16 -7 16 -16v-460h42zM181 448l-57 -204h57v204z" />
    <glyph glyph-name="five" unicode="5" horiz-adv-x="364" 
d="M295 454c33 -32 51 -67 51 -112v-196c0 -52 -18 -89 -51 -121c-30 -30 -71 -39 -116 -39c-44 0 -77 9 -108 39c-32 32 -50 69 -50 117v71c0 15 12 27 27 27h78c15 0 27 -12 27 -27v-83c0 -20 19 -22 26 -22c8 0 27 2 27 22v192c0 20 -10 35 -27 35c-11 0 -20 -6 -23 -21
c-3 -11 -6 -18 -17 -18h-91c-15 0 -27 12 -27 27v375h301v-134h-174v-107c0 6 15 11 31 13c25 2 79 0 116 -38z" />
    <glyph glyph-name="six" unicode="6" 
d="M303 396c35 -35 51 -72 51 -119v-132c0 -47 -16 -85 -51 -119c-27 -27 -65 -40 -117 -40c-53 0 -90 13 -118 40c-35 34 -51 72 -51 119v88c0 2 -1 66 17 129c9 31 102 341 102 341c3 8 12 15 21 15h108c9 0 14 -7 11 -15l-81 -267c48 -2 82 -14 108 -40zM208 133v156
c0 15 -13 18 -22 18c-10 0 -23 -3 -23 -18v-156c0 -15 13 -19 23 -19c9 0 22 4 22 19z" />
    <glyph glyph-name="seven" unicode="7" horiz-adv-x="358" 
d="M329 720c9 0 16 -7 16 -16v-63c0 -9 -2 -23 -5 -31l-181 -595c-3 -8 -12 -15 -21 -15h-113c-9 0 -14 7 -11 15l167 561h-129c-9 0 -16 7 -16 16v112c0 9 7 16 16 16h277z" />
    <glyph glyph-name="eight" unicode="8" horiz-adv-x="359" 
d="M343 452c0 -33 -21 -60 -39 -84c-1 -2 -3 -4 -5 -6c2 -3 4 -5 5 -7c18 -24 39 -51 39 -84v-131c0 -45 -16 -82 -50 -115c-26 -26 -63 -39 -114 -39s-87 13 -114 39c-33 33 -49 70 -49 115v131c0 33 20 60 38 84c2 2 4 4 5 7c-1 2 -3 4 -5 6c-18 24 -38 51 -38 84v123
c0 45 16 82 49 115c27 27 63 39 114 39s88 -12 114 -39c34 -33 50 -70 50 -115v-123zM201 129v154c0 16 -15 18 -22 18c-6 0 -21 -2 -21 -18v-154c0 -16 15 -18 21 -18c7 0 22 2 22 18zM201 440v147c0 16 -15 17 -22 17c-6 0 -21 -1 -21 -17v-147c0 -16 15 -17 21 -17
c7 0 22 1 22 17z" />
    <glyph glyph-name="nine" unicode="9" horiz-adv-x="362" 
d="M349 485c0 -2 1 -66 -17 -129c-7 -23 -101 -341 -101 -341c-3 -8 -12 -15 -21 -15h-109c-9 0 -14 7 -11 15l81 267c-48 2 -82 14 -108 40c-35 34 -51 72 -51 119v129c0 47 16 84 51 119c28 27 65 40 118 40c52 0 90 -13 117 -40c35 -35 51 -72 51 -119v-85zM158 429
c0 -15 13 -19 23 -19c9 0 22 4 22 19v153c0 15 -13 18 -22 18c-10 0 -23 -3 -23 -18v-153z" />
    <glyph glyph-name="zero" unicode="0" horiz-adv-x="373" 
d="M20 573c0 48 18 85 50 117c31 30 72 39 116 39s86 -9 116 -39c33 -32 51 -69 51 -117v-431c0 -49 -18 -85 -51 -117c-30 -31 -72 -39 -116 -39s-85 8 -116 39c-32 32 -50 68 -50 117v431zM213 581c0 20 -19 22 -27 22c-7 0 -26 -2 -26 -22l53 -256v256zM160 134
c0 -20 19 -23 26 -23c8 0 27 3 27 23v31l-53 247v-278z" />
    <glyph glyph-name="exclam" unicode="!" horiz-adv-x="166" 
d="M145 54c0 -33 -28 -61 -61 -61c-34 0 -61 28 -61 61c0 34 27 62 61 62c33 0 61 -28 61 -62zM36 168c-4 0 -8 4 -8 8v536c0 4 4 8 8 8h93c4 0 8 -4 8 -8v-536c0 -4 -4 -8 -8 -8h-93z" />
    <glyph glyph-name="numbersign" unicode="#" horiz-adv-x="412" 
d="M393 324c4 0 7 -4 6 -8l-11 -51c-1 -5 -6 -8 -10 -8h-44l-19 -84h52c4 0 7 -4 6 -8l-12 -52c-1 -5 -6 -8 -10 -8h-52l-14 -64c-1 -5 -6 -8 -10 -8h-53c-4 0 -7 3 -6 8l14 64h-93l-14 -64c-1 -5 -6 -8 -10 -8h-54c-4 0 -7 3 -6 8l15 64l-49 1v0c-5 0 -7 3 -6 8l11 51
c1 4 6 8 10 8h49l19 84h-57c-4 0 -7 3 -6 8l12 51c1 4 6 8 10 8h56l14 64c1 4 6 8 10 8h54c4 0 7 -4 6 -8l-15 -64h94l14 64c1 4 6 8 10 8h53c4 0 7 -4 6 -8l-14 -64h44zM152 173h93l19 84h-93z" />
    <glyph glyph-name="parenleft" unicode="(" horiz-adv-x="190" 
d="M108 579v-437c0 -12 5 -38 38 -44c5 -1 17 -2 17 -17v-65s-12 -16 -17 -16c-33 3 -53 13 -79 37c-33 33 -40 89 -40 130v387c0 41 7 97 40 130c26 24 46 34 79 37c5 0 17 0 17 -16v-65c0 -14 -12 -16 -17 -17c-33 -6 -38 -32 -38 -44z" />
    <glyph glyph-name="plus" unicode="+" horiz-adv-x="260" 
d="M175 309v-8v-64c0 -4 -4 -8 -8 -8h-74c-4 0 -8 4 -8 8v64v8h-8h-59c-4 0 -8 4 -8 8v74c0 4 4 8 8 8h59h8v8v64c0 4 4 8 8 8h74c4 0 8 -4 8 -8v-64v-8h8h59c4 0 8 -4 8 -8v-74c0 -4 -4 -8 -8 -8h-59h-8z" />
    <glyph glyph-name="asterisk" unicode="*" horiz-adv-x="148" 
d="M137 669v-24h-34l24 -24l-17 -17l-24 23v-33h-25v33l-23 -23l-18 17l24 24h-33v24h33l-24 24l18 17l23 -23v33h25v-33l24 23l17 -17l-24 -24h34z" />
    <glyph glyph-name="comma" unicode="," horiz-adv-x="137" 
d="M49 57h69c4 0 7 -3 5 -8l-50 -151c-1 -5 -6 -8 -10 -8h-69c-4 0 -7 3 -6 8l50 151c2 5 7 8 11 8z" />
    <glyph glyph-name="period" unicode="." horiz-adv-x="164" 
d="M145 54c0 -33 -28 -61 -61 -61c-34 0 -61 28 -61 61c0 34 27 62 61 62c33 0 61 -28 61 -62z" />
    <glyph glyph-name="hyphen" unicode="-" horiz-adv-x="234" 
d="M222 317c0 -4 -4 -8 -8 -8h-194c-4 0 -8 4 -8 8v74c0 4 4 8 8 8h194c4 0 8 -4 8 -8v-74z" />
    <glyph glyph-name="slash" unicode="/" horiz-adv-x="346" 
d="M27 -1c-4 0 -7 3 -6 8l209 705c1 4 6 8 10 8h79c4 0 7 -4 6 -8l-209 -705c-1 -5 -6 -8 -10 -8h-79z" />
    <glyph glyph-name="backslash" unicode="\" horiz-adv-x="346" 
d="M240 -1c-4 0 -9 3 -10 8l-209 705c-1 4 2 8 6 8h79c4 0 9 -4 10 -8l209 -705c1 -5 -2 -8 -6 -8h-79z" />
    <glyph glyph-name="semicolon" unicode=";" horiz-adv-x="160" 
d="M146 352c0 -33 -28 -61 -61 -61c-34 0 -61 28 -61 61c0 34 27 62 61 62c33 0 61 -28 61 -62v0zM49 57h69c4 0 7 -3 5 -8l-50 -151c-1 -5 -6 -8 -10 -8h-69c-4 0 -7 3 -6 8l50 151c2 5 7 8 11 8z" />
    <glyph glyph-name="colon" unicode=":" horiz-adv-x="166" 
d="M145 352c0 -33 -28 -61 -61 -61c-34 0 -61 28 -61 61c0 34 27 62 61 62c33 0 61 -28 61 -62zM145 54c0 -33 -28 -61 -61 -61c-34 0 -61 28 -61 61c0 34 27 62 61 62c33 0 61 -28 61 -62z" />
    <glyph glyph-name="less" unicode="&#x3c;" horiz-adv-x="265" 
d="M250 478l-122 -122c-4 -4 -4 -9 0 -12l122 -123c3 -3 3 -9 0 -12l-44 -45c-4 -3 -9 -4 -12 0l-179 179c-4 3 -6 6 -6 6c0 1 2 3 6 7l179 179c3 3 8 3 12 0l44 -45c3 -3 3 -9 0 -12z" />
    <glyph glyph-name="equal" unicode="=" horiz-adv-x="230" 
d="M215 407c0 -4 -4 -8 -8 -8h-184c-4 0 -8 4 -8 8v74c0 4 4 8 8 8h184c4 0 8 -4 8 -8v-74zM215 227c0 -4 -4 -8 -8 -8h-184c-4 0 -8 4 -8 8v74c0 4 4 8 8 8h184c4 0 8 -4 8 -8v-74z" />
    <glyph glyph-name="greater" unicode="&#x3e;" horiz-adv-x="265" 
d="M15 221l123 123c3 3 3 8 0 12l-123 122c-3 3 -4 8 0 12l45 45c3 3 8 3 12 0l178 -179c3 -3 6 -6 6 -7l-6 -6l-178 -179c-4 -3 -9 -4 -12 0l-45 45c-4 3 -4 8 0 12z" />
    <glyph glyph-name="bracketleft" unicode="[" horiz-adv-x="177" 
d="M107 80h8h27c4 0 8 -4 8 -8v-64c0 -4 -4 -8 -8 -8h-107c-4 0 -8 4 -8 8v704c0 4 4 8 8 8h107c4 0 8 -4 8 -8v-64c0 -4 -4 -8 -8 -8h-27h-8v-8v-544v-8z" />
    <glyph glyph-name="bracketright" unicode="]" horiz-adv-x="177" 
d="M70 640h-8h-27c-4 0 -8 4 -8 8v64c0 4 4 8 8 8h107c4 0 8 -4 8 -8v-704c0 -4 -4 -8 -8 -8h-107c-4 0 -8 4 -8 8v64c0 4 4 8 8 8h27h8v8v544v8z" />
    <glyph glyph-name="underscore" unicode="_" horiz-adv-x="210" 
d="M195 7c0 -4 -4 -8 -8 -8h-164c-4 0 -8 4 -8 8v84c0 4 4 8 8 8h164c4 0 8 -4 8 -8v-84z" />
    <glyph glyph-name="dollar" unicode="$" horiz-adv-x="353" 
d="M305 341c32 -32 38 -59 38 -114v-84c0 -46 -16 -83 -51 -117c-19 -19 -43 -31 -73 -36v-54c0 -15 -12 -27 -27 -27h-26c-15 0 -27 12 -27 27v52c-32 5 -55 17 -76 38c-35 34 -51 71 -51 117v88c0 15 12 27 27 27h84c15 0 27 -12 27 -27v-95c0 -20 19 -22 25 -22
c5 0 24 2 24 22v88c0 31 -9 34 -43 67l-104 94c-27 27 -40 53 -40 97v90c0 46 16 84 51 118c21 20 44 32 76 36v51c0 15 12 27 27 27h26c15 0 27 -12 27 -27v-52c28 -5 50 -17 69 -35c35 -34 51 -72 51 -118v-77c0 -15 -12 -27 -27 -27h-86c-15 0 -27 12 -27 27v84
c0 19 -14 23 -21 23c-9 0 -22 -4 -22 -22v-84c0 -34 19 -40 43 -64z" />
    <glyph glyph-name="yen" unicode="&#xa5;" horiz-adv-x="435" 
d="M416 694l-106 -324h55c15 0 27 -12 27 -27v-26c0 -15 -12 -27 -27 -27h-79v-54h79c15 0 27 -12 27 -27v-26c0 -15 -12 -27 -27 -27h-79v-129c0 -15 -12 -27 -27 -27h-85c-15 0 -27 12 -27 27v129h-78c-15 0 -27 12 -27 27v26c0 15 12 27 27 27h78v54h-78
c-15 0 -27 12 -27 27v26c0 15 12 27 27 27h55l-106 324c-4 14 4 26 19 26h86c15 0 30 -12 34 -26l60 -214l60 214c4 14 19 26 34 26h86c15 0 23 -12 19 -26z" />
    <glyph glyph-name="sterling" unicode="&#xa3;" horiz-adv-x="369" 
d="M318 134c15 0 27 -12 27 -27l10 -80c0 -15 -12 -27 -27 -27h-282c-15 0 -27 12 -27 27l10 82c0 15 12 27 27 27h5c54 7 43 71 32 144h-55c-15 0 -27 12 -27 27v26c0 15 12 27 27 27h38c-24 93 -60 182 -60 212c0 67 4 79 41 115c31 31 82 42 126 42s85 -9 116 -39
c33 -32 51 -69 51 -118v-37c0 -15 -12 -27 -27 -27h-88c-15 0 -27 12 -27 27v45c0 21 -18 23 -25 23c-8 0 -25 -1 -25 -23c0 -10 37 -112 58 -220h100c15 0 27 -12 27 -27v-26c0 -15 -12 -27 -27 -27h-88c5 -64 -3 -125 -34 -146h124z" />
    <glyph glyph-name="Euro" unicode="&#x20ac;" horiz-adv-x="421" 
d="M290 506c-15 0 -27 12 -27 27v47c0 21 -18 23 -25 23s-25 -2 -25 -23v-131h100c15 0 27 -12 27 -27v-22c0 -15 -12 -27 -27 -27h-100v-38h100c15 0 27 -12 27 -27v-22c0 -15 -12 -27 -27 -27h-100v-124c0 -21 18 -23 25 -23s25 2 25 23v42c0 15 12 27 27 27h88
c15 0 27 -12 27 -27v-34c0 -49 -18 -85 -51 -118c-30 -30 -72 -39 -116 -39s-86 9 -116 39c-33 33 -51 69 -51 118v116h-36c-15 0 -27 12 -27 27v22c0 15 12 27 27 27h36v38h-36c-15 0 -27 12 -27 27v22c0 15 12 27 27 27h36v123c0 49 18 86 51 118c30 30 72 39 116 39
s86 -9 116 -39c33 -32 51 -69 51 -118v-39c0 -15 -12 -27 -27 -27h-88z" />
    <glyph glyph-name="multiply" unicode="&#xd7;" horiz-adv-x="271" 
d="M130 290l-6 -5l-49 -50c-3 -3 -8 -3 -11 0l-53 53c-3 3 -3 8 0 11l50 49l5 6l-5 6l-50 49c-3 3 -3 9 0 12l52 52c3 3 8 3 12 0l49 -50l6 -5l6 5l49 50c3 3 8 3 11 0l53 -53c3 -3 3 -8 0 -11l-50 -49l-5 -6l5 -6l50 -49c3 -4 3 -9 0 -12l-52 -52c-3 -3 -9 -3 -12 0l-49 50
z" />
    <glyph glyph-name="divide" unicode="&#xf7;" horiz-adv-x="248" 
d="M170 489c0 -26 -21 -46 -46 -46s-46 20 -46 46c0 25 21 46 46 46s46 -21 46 -46zM170 219c0 -26 -21 -46 -46 -46s-46 20 -46 46c0 25 21 46 46 46s46 -21 46 -46zM239 317c0 -4 -4 -8 -8 -8h-214c-4 0 -8 4 -8 8v74c0 4 4 8 8 8h214c4 0 8 -4 8 -8v-74z" />
    <glyph glyph-name="Eth" unicode="&#xd0;" horiz-adv-x="392" 
d="M323 673c33 -33 51 -77 51 -126v-374c0 -49 -18 -93 -51 -126c-31 -30 -72 -47 -117 -47h-140c-15 0 -27 12 -27 27v287h-6c-15 0 -27 12 -27 27v26c0 15 12 27 27 27h6v299c0 15 12 27 27 27h140c45 0 86 -17 117 -47zM231 149v422c0 21 -10 31 -25 31h-24v-208
c12 0 24 -12 24 -27v-26c0 -15 -12 -27 -24 -27v-196h24c17 0 25 10 25 31z" />
    <glyph glyph-name="Thorn" unicode="&#xde;" horiz-adv-x="374" 
d="M312 537c32 -32 50 -77 50 -126v-99c0 -49 -18 -93 -50 -126c-31 -30 -73 -47 -117 -47h-25v-112c0 -15 -12 -27 -27 -27h-89c-15 0 -27 12 -27 27v666c0 15 12 27 27 27h89c15 0 27 -12 27 -27v-109h25c44 0 86 -17 117 -47zM219 288v147c0 21 -5 31 -24 31h-25v-209h25
c19 0 24 10 24 31z" />
    <glyph glyph-name="Lslash" unicode="&#x141;" horiz-adv-x="377" 
d="M340 129c15 0 27 -12 27 -27v-75c0 -15 -12 -27 -27 -27h-225c-15 0 -27 12 -27 27v152l-56 -39c-12 -9 -22 -4 -22 11v41c0 15 10 34 22 43l56 39v419c0 15 12 27 27 27h93c15 0 27 -12 27 -27v-325l73 56c11 9 21 5 21 -10v-41c0 -15 -10 -35 -21 -44l-73 -56v-144h105
z" />
    <glyph glyph-name="OE" unicode="&#x152;" horiz-adv-x="447" 
d="M324 600v-194h47c15 0 27 -12 27 -27v-50c0 -15 -12 -27 -27 -27h-47v-177h81c15 0 27 -12 27 -27v-71c0 -15 -12 -27 -27 -27h-115h-3h-90v1c-42 0 -101 8 -131 37c-31 31 -48 70 -48 117v411c0 47 17 86 48 117c30 29 90 37 132 37h89h3h115c15 0 27 -12 27 -27v-66
c0 -15 -12 -27 -27 -27h-81zM197 126v469c-19 0 -43 0 -43 -29v-411c0 -29 23 -29 43 -29z" />
    <glyph glyph-name="AE" unicode="&#xc6;" horiz-adv-x="473" 
d="M353 406h47c15 0 27 -12 27 -27v-50c0 -15 -12 -27 -27 -27h-47v-177h80c15 0 27 -12 27 -27v-71c0 -15 -12 -27 -27 -27h-185c-15 0 -27 12 -27 27v81h-49l-8 -81c-2 -15 -15 -27 -30 -27h-94c-15 0 -25 12 -23 27l112 666c2 15 16 27 31 27h273c15 0 27 -12 27 -27v-66
c0 -15 -12 -27 -27 -27h-80v-194zM221 215v383l-38 -383h38z" />
    <glyph glyph-name="quotesingle" unicode="'" horiz-adv-x="106" 
d="M90 556c0 -4 -4 -8 -8 -8h-59c-4 0 -8 4 -8 8v156c0 4 4 8 8 8h59c4 0 8 -4 8 -8v-156z" />
    <glyph glyph-name="quotedbl" unicode="&#x22;" horiz-adv-x="208" 
d="M91 552c-28 0 -75 33 -75 116v38c0 13 11 14 17 14h39c12 0 19 -6 19 -15v-62h-4c-34 0 4 -68 4 -68v-23zM187 552c-28 0 -75 33 -75 116v38c0 13 12 14 18 14h39c11 0 18 -6 18 -15v-62h-4c-34 0 4 -68 4 -68v-23z" />
    <glyph glyph-name="dagger" unicode="&#x2020;" horiz-adv-x="258" 
d="M174 309v-8v-233c0 -4 -4 -8 -8 -8h-74c-4 0 -8 4 -8 8v233v8h-8h-59c-4 0 -8 4 -8 8v74c0 4 4 8 8 8h59h8v8v64c0 4 4 8 8 8h74c4 0 8 -4 8 -8v-64v-8h8h59c4 0 8 -4 8 -8v-74c0 -4 -4 -8 -8 -8h-59h-8z" />
    <glyph glyph-name="daggerdbl" unicode="&#x2021;" horiz-adv-x="260" 
d="M242 309h-67v-79h67c4 0 8 -4 8 -8v-74c0 -4 -4 -8 -8 -8h-67v-72c0 -4 -4 -8 -8 -8h-74c-4 0 -8 4 -8 8v72h-67c-4 0 -8 4 -8 8v74c0 4 4 8 8 8h67v79h-67c-4 0 -8 4 -8 8v74c0 4 4 8 8 8h67v72c0 4 4 8 8 8h74c4 0 8 -4 8 -8v-72h67c4 0 8 -4 8 -8v-74
c0 -4 -4 -8 -8 -8z" />
    <glyph glyph-name="bullet" unicode="&#x2022;" horiz-adv-x="199" 
d="M187 352c0 -49 -39 -88 -88 -88c-48 0 -87 39 -87 88c0 48 39 87 87 87c49 0 88 -39 88 -87z" />
    <glyph glyph-name="ellipsis" unicode="&#x2026;" horiz-adv-x="492" 
d="M147 54c0 -33 -28 -61 -61 -61c-34 0 -61 28 -61 61c0 34 27 62 61 62c33 0 61 -28 61 -62zM307 54c0 -33 -28 -61 -61 -61c-34 0 -61 28 -61 61c0 34 27 62 61 62c33 0 61 -28 61 -62zM467 54c0 -33 -28 -61 -61 -61c-34 0 -61 28 -61 61c0 34 27 62 61 62
c33 0 61 -28 61 -62z" />
    <glyph glyph-name="percent" unicode="%" horiz-adv-x="389" 
d="M295 253c46 0 81 -29 81 -67v-133c0 -38 -35 -67 -81 -67c-45 0 -80 29 -80 67v133c0 38 35 67 80 67zM308 57v125c0 6 -6 11 -13 11c-6 0 -12 -5 -12 -11v-125c0 -8 6 -11 12 -11c7 0 13 3 13 11zM173 533c0 -38 -35 -66 -81 -66c-45 0 -80 28 -80 66v134
c0 38 35 66 80 66c46 0 81 -28 81 -66v-134zM80 537c0 -7 6 -10 12 -10c7 0 13 3 13 10v126c0 6 -6 10 -13 10c-6 0 -12 -4 -12 -10v-126zM328 720c4 0 7 -4 6 -8l-209 -705c-1 -5 -6 -8 -10 -8h-61c-4 0 -7 3 -6 8l209 705c1 4 6 8 10 8h61z" />
    <glyph glyph-name="perthousand" unicode="&#x2030;" horiz-adv-x="571" 
d="M172 533c0 -38 -35 -66 -81 -66c-45 0 -80 28 -80 66v134c0 38 35 66 80 66c46 0 81 -28 81 -66v-134zM79 537c0 -7 6 -10 12 -10c7 0 13 3 13 10v126c0 6 -6 10 -13 10c-6 0 -12 -4 -12 -10v-126zM294 253c46 0 81 -29 81 -67v-133c0 -38 -35 -67 -81 -67
c-45 0 -80 29 -80 67v133c0 38 35 67 80 67zM307 57v125c0 6 -6 11 -13 11c-6 0 -12 -5 -12 -11v-125c0 -8 6 -11 12 -11c7 0 13 3 13 11zM479 253c46 0 81 -29 81 -67v-133c0 -38 -35 -67 -81 -67s-80 29 -80 67v133c0 38 34 67 80 67zM492 57v125c0 6 -7 11 -13 11
s-12 -5 -12 -11v-125c0 -8 6 -11 12 -11s13 3 13 11zM327 720c4 0 7 -4 6 -8l-209 -705c-1 -5 -6 -8 -10 -8h-61c-4 0 -7 3 -6 8l209 705c1 4 6 8 10 8h61z" />
    <glyph glyph-name="E" unicode="E" horiz-adv-x="321" 
d="M174 125h105c15 0 27 -12 27 -27v-71c0 -15 -12 -27 -27 -27h-225c-15 0 -27 12 -27 27v666c0 15 12 27 27 27h225c15 0 27 -12 27 -27v-66c0 -15 -12 -27 -27 -27h-105v-194h71c15 0 27 -12 27 -27v-50c0 -15 -12 -27 -27 -27h-71v-177z" />
    <glyph glyph-name="grave" unicode="`" horiz-adv-x="160" 
d="M24 868c-2 4 0 7 4 7h82c4 0 9 -4 10 -8l23 -105c1 -5 -2 -8 -6 -8h-38c-4 0 -10 3 -12 7z" />
    <glyph glyph-name="acute" unicode="&#xb4;" horiz-adv-x="160" 
d="M136 868l-64 -107c-2 -4 -8 -7 -12 -7h-38c-4 0 -7 3 -6 8l24 105c1 4 6 8 10 8h82c4 0 6 -3 4 -7z" />
    <glyph glyph-name="bar" unicode="|" horiz-adv-x="110" 
d="M23 -115c-4 0 -8 4 -8 8v928c0 4 4 8 8 8h64c4 0 8 -4 8 -8v-928c0 -4 -4 -8 -8 -8h-64z" />
    <glyph glyph-name="quotedblbase" unicode="&#x201e;" horiz-adv-x="208" 
d="M90 -10c0 -83 -47 -116 -75 -116v23s38 68 4 68h-4v62s7 15 19 15h38s18 -1 18 -14v-38zM187 -10c0 -83 -47 -116 -75 -116v23s38 68 4 68h-4v62s7 15 18 15h39s18 -1 18 -14v-38z" />
    <glyph glyph-name="quotesinglbase" unicode="&#x201a;" horiz-adv-x="105" 
d="M90 -10c0 -83 -47 -116 -75 -116v23s38 68 4 68h-4v62s7 15 19 15h38s18 -1 18 -14v-38z" />
    <glyph glyph-name="dieresis" unicode="&#xa8;" horiz-adv-x="242" 
d="M184 852c24 0 44 -20 44 -44s-20 -44 -44 -44s-44 20 -44 44s20 44 44 44zM58 852c24 0 44 -20 44 -44s-20 -44 -44 -44s-44 20 -44 44s20 44 44 44z" />
    <glyph glyph-name="macron" unicode="&#xaf;" horiz-adv-x="280" 
d="M265 793c0 -4 -4 -8 -8 -8h-234c-4 0 -8 4 -8 8v44c0 4 4 8 8 8h234c4 0 8 -4 8 -8v-44z" />
    <glyph glyph-name="cedilla" unicode="&#xb8;" horiz-adv-x="156" 
d="M59 -151c-11 1 -19 3 -29 6c-11 2 -13 8 -11 14c2 7 4 13 6 21c3 8 7 12 19 9s21 -4 27 -4c17 0 20 7 21 14c0 3 0 7 -3 9c-5 6 -19 9 -37 9s-22 3 -24 8c-2 6 -3 8 -4 11c-2 5 -3 8 8 19s62 63 62 63l29 -36l-31 -25l7 -3c10 -4 19 -9 26 -16c11 -12 17 -28 15 -45
c-3 -24 -15 -37 -24 -43c-16 -11 -30 -13 -57 -11z" />
    <glyph glyph-name="caron" unicode="&#x2c7;" horiz-adv-x="216" 
d="M13 834c-3 3 -4 8 -1 11l33 35c3 3 8 4 11 1l46 -37c3 -3 9 -3 12 0l47 37c3 3 8 2 11 -1l32 -35c3 -3 2 -8 -1 -11l-89 -68c-3 -3 -9 -3 -12 0z" />
    <glyph glyph-name="tilde" unicode="&#x2dc;" horiz-adv-x="254" 
d="M232 848c8 -5 9 -10 4 -16c-2 -3 -20 -27 -20 -27s-9 -12 -22 -18c-9 -5 -18 -7 -28 -7c-11 0 -22 3 -32 9l-30 19s-13 10 -27 -3c-4 -4 -7 -7 -9 -10c-5 -6 -13 -4 -19 -1s-17 11 -25 17c-9 6 -6 13 -2 19c5 6 16 20 16 20s9 11 21 17c10 5 19 8 29 8c11 0 22 -4 32 -10
l28 -19s14 -10 29 4c4 4 6 6 11 12c5 7 13 6 16 4c4 -3 18 -11 28 -18z" />
    <glyph glyph-name="hungarumlaut" unicode="&#x2dd;" horiz-adv-x="279" 
d="M263 877l-71 -107c-2 -4 -8 -7 -12 -7h-44c-4 0 -7 3 -6 8l35 105c2 5 7 8 11 8h83c4 0 6 -3 4 -7zM147 877l-71 -107c-2 -4 -8 -7 -12 -7h-44c-4 0 -7 3 -6 8l35 105c2 5 7 8 11 8h83c4 0 6 -3 4 -7z" />
    <glyph glyph-name="ogonek" unicode="&#x2db;" horiz-adv-x="165" 
d="M150 -111c1 -13 -7 -18 -21 -18c-23 0 -45 6 -64 16c-28 16 -47 41 -51 70c-5 29 5 59 27 83c20 21 48 35 79 40l12 -79c-13 -3 -25 -8 -33 -16c-2 -3 -7 -9 -6 -15c1 -8 13 -17 32 -19c10 -1 16 -3 17 -14c2 -11 5 -28 8 -48z" />
    <glyph glyph-name="quotedblleft" unicode="&#x201c;" horiz-adv-x="207" 
d="M14 604c0 83 47 116 75 116v-23s-38 -68 -4 -68h4v-62s-7 -15 -19 -15h-39s-17 1 -17 14v38zM110 604c0 83 47 116 75 116v-23s-38 -68 -4 -68h4v-62s-7 -15 -19 -15h-39s-17 1 -17 14v38z" />
    <glyph glyph-name="quoteleft" unicode="&#x2018;" horiz-adv-x="104" 
d="M14 604c0 83 47 116 75 116v-23s-38 -68 -4 -68h4v-62s-7 -15 -19 -15h-39s-17 1 -17 14v38z" />
    <glyph glyph-name="quotedblright" unicode="&#x201d;" horiz-adv-x="208" 
d="M189 668c0 -83 -47 -116 -75 -116v23s38 68 4 68h-4v61c0 10 7 16 19 16h38s18 -1 18 -14v-38zM93 668c0 -83 -47 -116 -75 -116v23s38 68 4 68h-4v61c0 10 7 16 19 16h38s18 -1 18 -14v-38z" />
    <glyph glyph-name="quoteright" unicode="&#x2019;" horiz-adv-x="105" 
d="M89 668c0 -83 -47 -116 -75 -116v23s38 68 4 68h-4v61c0 10 7 16 19 16h38s18 -1 18 -14v-38z" />
    <glyph glyph-name="circumflex" unicode="&#x2c6;" horiz-adv-x="216" 
d="M203 813c3 -3 4 -8 1 -11l-33 -35c-3 -3 -8 -4 -11 -1l-46 37c-3 3 -9 3 -12 0l-47 -37c-3 -3 -8 -2 -11 1l-32 35c-3 3 -2 8 1 11l89 68c3 3 9 3 12 0z" />
    <glyph glyph-name="ring" unicode="&#x2da;" horiz-adv-x="166" 
d="M83 750c-20 0 -39 7 -53 21s-22 32 -22 52c0 41 33 74 75 74s75 -33 75 -74c0 -20 -8 -38 -22 -52s-33 -21 -53 -21zM83 852c-16 0 -29 -13 -29 -29c0 -15 14 -28 29 -28s28 13 28 28c0 16 -13 29 -28 29z" />
    <glyph glyph-name="breve" unicode="&#x2d8;" horiz-adv-x="165" 
d="M122 823h24c10 0 12 -7 11 -10c-2 -16 -9 -30 -21 -42c-14 -14 -33 -21 -53 -21s-39 7 -53 21c-12 12 -19 26 -21 43c-1 3 -2 9 8 9h28s9 -4 10 -6c3 -13 15 -22 28 -22c12 0 23 8 27 20c0 2 1 8 12 8z" />
    <glyph glyph-name="dotaccent" unicode="&#x2d9;" horiz-adv-x="107" 
d="M54 837c22 0 41 -19 41 -42c0 -22 -19 -41 -41 -41c-23 0 -42 19 -42 41c0 23 19 42 42 42z" />
    <glyph glyph-name="Oslash" unicode="&#xd8;" horiz-adv-x="396" 
d="M385 703c4 -1 5 -6 4 -10l-33 -70v0c5 -15 8 -32 8 -50v-429c0 -49 -18 -85 -51 -117c-30 -31 -72 -40 -116 -40s-85 9 -116 40l-3 3v0l-17 -36c-2 -4 -6 -5 -10 -4l-40 19c-4 2 -6 7 -4 11l33 69v1c-6 16 -9 34 -9 54v429c0 48 18 85 50 117c31 30 72 39 116 39
s86 -9 116 -39l6 -6v0l16 35c1 4 6 5 10 3zM222 136v202l-49 -106v-96c0 -21 17 -23 24 -23c8 0 25 2 25 23zM222 481v99c0 21 -17 23 -25 23c-7 0 -24 -2 -24 -23v-205z" />
    <glyph glyph-name="parenright" unicode=")" horiz-adv-x="190" 
d="M82 142v437c0 12 -5 38 -38 44c-5 1 -17 3 -17 17v65s12 16 17 16c33 -3 53 -13 79 -37c33 -33 40 -89 40 -130v-387c0 -41 -7 -97 -40 -130c-26 -24 -46 -34 -79 -37c-5 0 -17 0 -17 16v65s12 16 17 17c33 6 38 32 38 44z" />
    <glyph glyph-name="Agrave" unicode="&#xc0;" horiz-adv-x="408" 
d="M392 27c2 -15 -8 -27 -23 -27h-93c-13 0 -26 10 -29 23l-7 85h-72l-7 -85c-4 -13 -16 -23 -30 -23h-93c-14 0 -25 12 -22 27l111 666c2 15 17 27 31 27h45h1h45c15 0 29 -12 32 -27zM178 215h52l-26 282zM106 868c-2 4 0 7 4 7h82c4 0 9 -4 10 -8l23 -105
c1 -5 -2 -8 -6 -8h-38c-4 0 -10 3 -12 7z" />
    <glyph glyph-name="Aacute" unicode="&#xc1;" horiz-adv-x="408" 
d="M392 27c2 -15 -8 -27 -23 -27h-93c-13 0 -26 10 -29 23l-7 85h-72l-7 -85c-4 -13 -16 -23 -30 -23h-93c-14 0 -25 12 -22 27l111 666c2 15 17 27 31 27h45h1h45c15 0 29 -12 32 -27zM178 215h52l-26 282zM304 868l-64 -107c-2 -4 -8 -7 -12 -7h-38c-4 0 -7 3 -6 8l24 105
c1 4 6 8 10 8h82c4 0 6 -3 4 -7z" />
    <glyph glyph-name="Acircumflex" unicode="&#xc2;" horiz-adv-x="408" 
d="M392 27c2 -15 -8 -27 -23 -27h-93c-13 0 -26 10 -29 23l-7 85h-72l-7 -85c-4 -13 -16 -23 -30 -23h-93c-14 0 -25 12 -22 27l111 666c2 15 17 27 31 27h45h1h45c15 0 29 -12 32 -27zM178 215h52l-26 282zM299 813c3 -3 4 -8 1 -11l-33 -35c-3 -3 -8 -4 -11 -1l-46 37
c-3 3 -9 3 -12 0l-47 -37c-3 -3 -8 -2 -11 1l-32 35c-3 3 -2 8 1 11l89 68c3 3 9 3 12 0z" />
    <glyph glyph-name="Atilde" unicode="&#xc3;" horiz-adv-x="408" 
d="M392 27c2 -15 -8 -27 -23 -27h-93c-13 0 -26 10 -29 23l-7 85h-72l-7 -85c-4 -13 -16 -23 -30 -23h-93c-14 0 -25 12 -22 27l111 666c2 15 17 27 31 27h45h1h45c15 0 29 -12 32 -27zM178 215h52l-26 282zM309 848c8 -5 9 -10 4 -16c-2 -3 -20 -27 -20 -27s-9 -12 -22 -18
c-9 -5 -18 -7 -28 -7c-11 0 -22 3 -32 9l-30 19s-13 10 -27 -3c-4 -4 -7 -7 -9 -10c-5 -6 -13 -4 -19 -1s-17 11 -25 17c-9 6 -6 13 -2 19c5 6 16 20 16 20s9 11 21 17c10 5 19 8 29 8c11 0 22 -4 32 -10l28 -19s14 -10 29 4c4 4 6 6 11 12c5 7 13 6 16 4
c4 -3 18 -11 28 -18z" />
    <glyph glyph-name="Adieresis" unicode="&#xc4;" horiz-adv-x="408" 
d="M392 27c2 -15 -8 -27 -23 -27h-93c-13 0 -26 10 -29 23l-7 85h-72l-7 -85c-4 -13 -16 -23 -30 -23h-93c-14 0 -25 12 -22 27l111 666c2 15 17 27 31 27h45h1h45c15 0 29 -12 32 -27zM178 215h52l-26 282zM267 852c24 0 44 -20 44 -44s-20 -44 -44 -44s-44 20 -44 44
s20 44 44 44zM141 852c24 0 44 -20 44 -44s-20 -44 -44 -44s-44 20 -44 44s20 44 44 44z" />
    <glyph glyph-name="Aring" unicode="&#xc5;" horiz-adv-x="408" 
d="M392 27c2 -15 -8 -27 -23 -27h-93c-13 0 -26 10 -29 23l-7 85h-72l-7 -85c-4 -13 -16 -23 -30 -23h-93c-14 0 -25 12 -22 27l111 666c2 15 17 27 31 27h45h1h45c15 0 29 -12 32 -27zM178 215h52l-26 282zM204 750c-20 0 -39 7 -53 21s-22 32 -22 52c0 41 33 74 75 74
s75 -33 75 -74c0 -20 -8 -38 -22 -52s-33 -21 -53 -21zM204 852c-16 0 -29 -13 -29 -29c0 -15 14 -28 29 -28s28 13 28 28c0 16 -13 29 -28 29z" />
    <glyph glyph-name="Egrave" unicode="&#xc8;" horiz-adv-x="321" 
d="M174 125h105c15 0 27 -12 27 -27v-71c0 -15 -12 -27 -27 -27h-225c-15 0 -27 12 -27 27v666c0 15 12 27 27 27h225c15 0 27 -12 27 -27v-66c0 -15 -12 -27 -27 -27h-105v-194h71c15 0 27 -12 27 -27v-50c0 -15 -12 -27 -27 -27h-71v-177zM69 868c-2 4 0 7 4 7h82
c4 0 9 -4 10 -8l23 -105c1 -5 -2 -8 -6 -8h-38c-4 0 -10 3 -12 7z" />
    <glyph glyph-name="Eacute" unicode="&#xc9;" horiz-adv-x="321" 
d="M174 125h105c15 0 27 -12 27 -27v-71c0 -15 -12 -27 -27 -27h-225c-15 0 -27 12 -27 27v666c0 15 12 27 27 27h225c15 0 27 -12 27 -27v-66c0 -15 -12 -27 -27 -27h-105v-194h71c15 0 27 -12 27 -27v-50c0 -15 -12 -27 -27 -27h-71v-177zM268 868l-64 -107
c-2 -4 -8 -7 -12 -7h-38c-4 0 -7 3 -6 8l24 105c1 4 6 8 10 8h82c4 0 6 -3 4 -7z" />
    <glyph glyph-name="Ecircumflex" unicode="&#xca;" horiz-adv-x="321" 
d="M174 125h105c15 0 27 -12 27 -27v-71c0 -15 -12 -27 -27 -27h-225c-15 0 -27 12 -27 27v666c0 15 12 27 27 27h225c15 0 27 -12 27 -27v-66c0 -15 -12 -27 -27 -27h-105v-194h71c15 0 27 -12 27 -27v-50c0 -15 -12 -27 -27 -27h-71v-177zM261 813c3 -3 4 -8 1 -11
l-33 -35c-3 -3 -8 -4 -11 -1l-46 37c-3 3 -9 3 -12 0l-47 -37c-3 -3 -8 -2 -11 1l-32 35c-3 3 -2 8 1 11l89 68c3 3 9 3 12 0z" />
    <glyph glyph-name="Edieresis" unicode="&#xcb;" horiz-adv-x="321" 
d="M174 125h105c15 0 27 -12 27 -27v-71c0 -15 -12 -27 -27 -27h-225c-15 0 -27 12 -27 27v666c0 15 12 27 27 27h225c15 0 27 -12 27 -27v-66c0 -15 -12 -27 -27 -27h-105v-194h71c15 0 27 -12 27 -27v-50c0 -15 -12 -27 -27 -27h-71v-177zM229 852c24 0 44 -20 44 -44
s-20 -44 -44 -44s-44 20 -44 44s20 44 44 44zM103 852c24 0 44 -20 44 -44s-20 -44 -44 -44s-44 20 -44 44s20 44 44 44z" />
    <glyph glyph-name="Igrave" unicode="&#xcc;" horiz-adv-x="210" 
d="M175 27c0 -15 -12 -27 -27 -27h-88c-15 0 -27 12 -27 27v666c0 15 12 27 27 27h88c15 0 27 -12 27 -27v-666zM6 868c-2 4 0 7 4 7h82c4 0 9 -4 10 -8l23 -105c1 -5 -2 -8 -6 -8h-38c-4 0 -10 3 -12 7z" />
    <glyph glyph-name="Iacute" unicode="&#xcd;" horiz-adv-x="214" 
d="M177 27v666c0 15 -12 27 -27 27h-88c-15 0 -27 -12 -27 -27v-666c0 -15 12 -27 27 -27h88c15 0 27 12 27 27zM204 868l-64 -107c-2 -4 -8 -7 -12 -7h-38c-4 0 -7 3 -6 8l24 105c1 4 6 8 10 8h82c4 0 6 -3 4 -7z" />
    <glyph glyph-name="Icircumflex" unicode="&#xce;" horiz-adv-x="228" 
d="M185 27c0 -15 -12 -27 -27 -27h-88c-15 0 -27 12 -27 27v666c0 15 12 27 27 27h88c15 0 27 -12 27 -27v-666zM209 813c3 -3 4 -8 1 -11l-33 -35c-3 -3 -8 -4 -11 -1l-46 37c-3 3 -9 3 -12 0l-47 -37c-3 -3 -8 -2 -11 1l-32 35c-3 3 -2 8 1 11l89 68c3 3 9 3 12 0z" />
    <glyph glyph-name="Idieresis" unicode="&#xcf;" horiz-adv-x="230" 
d="M186 27v666c0 15 -12 27 -27 27h-88c-15 0 -27 -12 -27 -27v-666c0 -15 12 -27 27 -27h88c15 0 27 12 27 27zM178 852c24 0 44 -20 44 -44s-20 -44 -44 -44s-44 20 -44 44s20 44 44 44zM52 852c24 0 44 -20 44 -44s-20 -44 -44 -44s-44 20 -44 44s20 44 44 44z" />
    <glyph glyph-name="Ntilde" unicode="&#xd1;" horiz-adv-x="396" 
d="M342 720c15 0 27 -12 27 -27v-666c0 -15 -12 -27 -27 -27h-75c-15 0 -30 12 -33 26l-82 364v-363c0 -15 -12 -27 -27 -27h-71c-15 0 -27 12 -27 27v666c0 15 12 27 27 27h79c15 0 29 -12 32 -26c73 -353 73 -353 79 -379v378c0 15 12 27 27 27h71zM299 848
c8 -5 9 -10 4 -16c-2 -3 -20 -27 -20 -27s-9 -12 -22 -18c-9 -5 -18 -7 -28 -7c-11 0 -22 3 -32 9l-30 19s-13 10 -27 -3c-4 -4 -7 -7 -9 -10c-5 -6 -13 -4 -19 -1s-17 11 -25 17c-9 6 -6 13 -2 19c5 6 16 20 16 20s9 11 21 17c10 5 19 8 29 8c11 0 22 -4 32 -10l28 -19
s14 -10 29 4c4 4 6 6 11 12c5 7 13 6 16 4c4 -3 18 -11 28 -18z" />
    <glyph glyph-name="Ograve" unicode="&#xd2;" horiz-adv-x="373" 
d="M304 690c33 -32 51 -69 51 -117v-431c0 -49 -18 -85 -51 -117c-31 -31 -74 -39 -118 -39s-87 8 -118 39c-32 32 -50 68 -50 117v431c0 48 18 85 50 117c31 30 74 39 118 39s87 -9 118 -39zM213 134v447c0 20 -19 22 -27 22c-7 0 -26 -2 -26 -22v-447c0 -20 19 -23 26 -23
c8 0 27 3 27 23zM89 868c-2 4 0 7 4 7h82c4 0 9 -4 10 -8l23 -105c1 -5 -2 -8 -6 -8h-38c-4 0 -10 3 -12 7z" />
    <glyph glyph-name="Oacute" unicode="&#xd3;" horiz-adv-x="373" 
d="M304 690c33 -32 51 -69 51 -117v-431c0 -49 -18 -85 -51 -117c-31 -31 -74 -39 -118 -39s-87 8 -118 39c-32 32 -50 68 -50 117v431c0 48 18 85 50 117c31 30 74 39 118 39s87 -9 118 -39zM213 134v447c0 20 -19 22 -27 22c-7 0 -26 -2 -26 -22v-447c0 -20 19 -23 26 -23
c8 0 27 3 27 23zM288 868l-64 -107c-2 -4 -8 -7 -12 -7h-38c-4 0 -7 3 -6 8l24 105c1 4 6 8 10 8h82c4 0 6 -3 4 -7z" />
    <glyph glyph-name="Ocircumflex" unicode="&#xd4;" horiz-adv-x="373" 
d="M304 690c33 -32 51 -69 51 -117v-431c0 -49 -18 -85 -51 -117c-31 -31 -74 -39 -118 -39s-87 8 -118 39c-32 32 -50 68 -50 117v431c0 48 18 85 50 117c31 30 74 39 118 39s87 -9 118 -39zM213 134v447c0 20 -19 22 -27 22c-7 0 -26 -2 -26 -22v-447c0 -20 19 -23 26 -23
c8 0 27 3 27 23zM281 813c3 -3 4 -8 1 -11l-33 -35c-3 -3 -8 -4 -11 -1l-46 37c-3 3 -9 3 -12 0l-47 -37c-3 -3 -8 -2 -11 1l-32 35c-3 3 -2 8 1 11l89 68c3 3 9 3 12 0z" />
    <glyph glyph-name="Otilde" unicode="&#xd5;" horiz-adv-x="373" 
d="M304 690c33 -32 51 -69 51 -117v-431c0 -49 -18 -85 -51 -117c-31 -31 -74 -39 -118 -39s-87 8 -118 39c-32 32 -50 68 -50 117v431c0 48 18 85 50 117c31 30 74 39 118 39s87 -9 118 -39zM213 134v447c0 20 -19 22 -27 22c-7 0 -26 -2 -26 -22v-447c0 -20 19 -23 26 -23
c8 0 27 3 27 23zM291 848c8 -5 9 -10 4 -16c-2 -3 -20 -27 -20 -27s-9 -12 -22 -18c-9 -5 -18 -7 -28 -7c-11 0 -22 3 -32 9l-30 19s-13 10 -27 -3c-4 -4 -7 -7 -9 -10c-5 -6 -13 -4 -19 -1s-17 11 -25 17c-9 6 -6 13 -2 19c5 6 16 20 16 20s9 11 21 17c10 5 19 8 29 8
c11 0 22 -4 32 -10l28 -19s14 -10 29 4c4 4 6 6 11 12c5 7 13 6 16 4c4 -3 18 -11 28 -18z" />
    <glyph glyph-name="Odieresis" unicode="&#xd6;" horiz-adv-x="373" 
d="M304 690c33 -32 51 -69 51 -117v-431c0 -49 -18 -85 -51 -117c-31 -31 -74 -39 -118 -39s-87 8 -118 39c-32 32 -50 68 -50 117v431c0 48 18 85 50 117c31 30 74 39 118 39s87 -9 118 -39zM213 134v447c0 20 -19 22 -27 22c-7 0 -26 -2 -26 -22v-447c0 -20 19 -23 26 -23
c8 0 27 3 27 23zM249 852c24 0 44 -20 44 -44s-20 -44 -44 -44s-44 20 -44 44s20 44 44 44zM123 852c24 0 44 -20 44 -44s-20 -44 -44 -44s-44 20 -44 44s20 44 44 44z" />
    <glyph glyph-name="Ugrave" unicode="&#xd9;" 
d="M325 719c15 0 27 -12 27 -27v-546c0 -48 -18 -89 -50 -121c-31 -30 -73 -39 -117 -39s-87 9 -117 39c-32 32 -50 73 -50 121v546c0 15 12 27 27 27h87c15 0 27 -12 27 -27v-558c0 -20 19 -22 26 -22s26 2 26 22v558c0 15 12 27 27 27h87zM91 868c-2 4 0 7 4 7h82
c4 0 9 -4 10 -8l23 -105c1 -5 -2 -8 -6 -8h-38c-4 0 -10 3 -12 7z" />
    <glyph glyph-name="Uacute" unicode="&#xda;" 
d="M325 719c15 0 27 -12 27 -27v-546c0 -48 -18 -89 -50 -121c-31 -30 -73 -39 -117 -39s-87 9 -117 39c-32 32 -50 73 -50 121v546c0 15 12 27 27 27h87c15 0 27 -12 27 -27v-558c0 -20 19 -22 26 -22s26 2 26 22v558c0 15 12 27 27 27h87zM282 868l-64 -107
c-2 -4 -8 -7 -12 -7h-38c-4 0 -7 3 -6 8l24 105c1 4 6 8 10 8h82c4 0 6 -3 4 -7z" />
    <glyph glyph-name="Ucircumflex" unicode="&#xdb;" 
d="M325 719c15 0 27 -12 27 -27v-546c0 -48 -18 -89 -50 -121c-31 -30 -73 -39 -117 -39s-87 9 -117 39c-32 32 -50 73 -50 121v546c0 15 12 27 27 27h87c15 0 27 -12 27 -27v-558c0 -20 19 -22 26 -22s26 2 26 22v558c0 15 12 27 27 27h87zM279 813c3 -3 4 -8 1 -11
l-33 -35c-3 -3 -8 -4 -11 -1l-46 37c-3 3 -9 3 -12 0l-47 -37c-3 -3 -8 -2 -11 1l-32 35c-3 3 -2 8 1 11l89 68c3 3 9 3 12 0z" />
    <glyph glyph-name="Udieresis" unicode="&#xdc;" 
d="M325 719c15 0 27 -12 27 -27v-546c0 -48 -18 -89 -50 -121c-31 -30 -73 -39 -117 -39s-87 9 -117 39c-32 32 -50 73 -50 121v546c0 15 12 27 27 27h87c15 0 27 -12 27 -27v-558c0 -20 19 -22 26 -22s26 2 26 22v558c0 15 12 27 27 27h87zM247 852c24 0 44 -20 44 -44
s-20 -44 -44 -44s-44 20 -44 44s20 44 44 44zM121 852c24 0 44 -20 44 -44s-20 -44 -44 -44s-44 20 -44 44s20 44 44 44z" />
    <glyph glyph-name="Yacute" unicode="&#xdd;" horiz-adv-x="434" 
d="M286 298v-271c0 -15 -12 -27 -27 -27h-85c-15 0 -27 12 -27 27v273l-129 394c-4 14 4 26 19 26h86c15 0 30 -12 34 -26l60 -214l60 214c4 14 19 26 34 26h86c15 0 23 -12 19 -26zM315 868l-64 -107c-2 -4 -8 -7 -12 -7h-38c-4 0 -7 3 -6 8l24 105c1 4 6 8 10 8h82
c4 0 6 -3 4 -7z" />
    <glyph glyph-name="agrave" unicode="&#xe0;" horiz-adv-x="408" 
d="M248 0l-11 108h-66l-11 -108h-149l120 720h146l120 -720h-149zM227 215l-23 286l-23 -286h46zM106 868c-2 4 0 7 4 7h82c4 0 9 -4 10 -8l23 -105c1 -5 -2 -8 -6 -8h-38c-4 0 -10 3 -12 7z" />
    <glyph glyph-name="aacute" unicode="&#xe1;" horiz-adv-x="408" 
d="M248 0h149l-120 720h-146l-120 -720h149l11 108h66zM227 215h-46l23 286zM304 868l-64 -107c-2 -4 -8 -7 -12 -7h-38c-4 0 -7 3 -6 8l24 105c1 4 6 8 10 8h82c4 0 6 -3 4 -7z" />
    <glyph glyph-name="acircumflex" unicode="&#xe2;" horiz-adv-x="408" 
d="M248 0l-11 108h-66l-11 -108h-149l120 720h146l120 -720h-149zM227 215l-23 286l-23 -286h46zM299 813c3 -3 4 -8 1 -11l-33 -35c-3 -3 -8 -4 -11 -1l-46 37c-3 3 -9 3 -12 0l-47 -37c-3 -3 -8 -2 -11 1l-32 35c-3 3 -2 8 1 11l89 68c3 3 9 3 12 0z" />
    <glyph glyph-name="atilde" unicode="&#xe3;" horiz-adv-x="408" 
d="M248 0h149l-120 720h-146l-120 -720h149l11 108h66zM227 215h-46l23 286zM309 848c8 -5 9 -10 4 -16c-2 -3 -20 -27 -20 -27s-9 -12 -22 -18c-9 -5 -18 -7 -28 -7c-11 0 -22 3 -32 9l-30 19s-13 10 -27 -3c-4 -4 -7 -7 -9 -10c-5 -6 -13 -4 -19 -1s-17 11 -25 17
c-9 6 -6 13 -2 19c5 6 16 20 16 20s9 11 21 17c10 5 19 8 29 8c11 0 22 -4 32 -10l28 -19s14 -10 29 4c4 4 6 6 11 12c5 7 13 6 16 4c4 -3 18 -11 28 -18z" />
    <glyph glyph-name="adieresis" unicode="&#xe4;" horiz-adv-x="408" 
d="M248 0h149l-120 720h-146l-120 -720h149l11 108h66zM227 215h-46l23 286zM267 852c24 0 44 -20 44 -44s-20 -44 -44 -44s-44 20 -44 44s20 44 44 44zM141 852c24 0 44 -20 44 -44s-20 -44 -44 -44s-44 20 -44 44s20 44 44 44z" />
    <glyph glyph-name="aring" unicode="&#xe5;" horiz-adv-x="408" 
d="M248 0l-11 108h-66l-11 -108h-149l120 720h146l120 -720h-149zM227 215l-23 286l-23 -286h46zM204 750c-20 0 -39 7 -53 21s-22 32 -22 52c0 41 33 74 75 74s75 -33 75 -74c0 -20 -8 -38 -22 -52s-33 -21 -53 -21zM204 852c-16 0 -29 -13 -29 -29c0 -15 14 -28 29 -28
s28 13 28 28c0 16 -13 29 -28 29z" />
    <glyph glyph-name="egrave" unicode="&#xe8;" horiz-adv-x="321" 
d="M27 0v720h279v-120h-132v-194h98v-104h-98v-177h132v-125h-279zM69 868c-2 4 0 7 4 7h82c4 0 9 -4 10 -8l23 -105c1 -5 -2 -8 -6 -8h-38c-4 0 -10 3 -12 7z" />
    <glyph glyph-name="eacute" unicode="&#xe9;" horiz-adv-x="321" 
d="M27 0h279v125h-132v177h98v104h-98v194h132v120h-279v-720zM268 868l-64 -107c-2 -4 -8 -7 -12 -7h-38c-4 0 -7 3 -6 8l24 105c1 4 6 8 10 8h82c4 0 6 -3 4 -7z" />
    <glyph glyph-name="ecircumflex" unicode="&#xea;" horiz-adv-x="321" 
d="M27 0v720h279v-120h-132v-194h98v-104h-98v-177h132v-125h-279zM261 813c3 -3 4 -8 1 -11l-33 -35c-3 -3 -8 -4 -11 -1l-46 37c-3 3 -9 3 -12 0l-47 -37c-3 -3 -8 -2 -11 1l-32 35c-3 3 -2 8 1 11l89 68c3 3 9 3 12 0z" />
    <glyph glyph-name="edieresis" unicode="&#xeb;" horiz-adv-x="321" 
d="M27 0h279v125h-132v177h98v104h-98v194h132v120h-279v-720zM229 852c24 0 44 -20 44 -44s-20 -44 -44 -44s-44 20 -44 44s20 44 44 44zM103 852c24 0 44 -20 44 -44s-20 -44 -44 -44s-44 20 -44 44s20 44 44 44z" />
    <glyph glyph-name="igrave" unicode="&#xec;" horiz-adv-x="210" 
d="M33 0v720h142v-720h-142zM6 868c-2 4 0 7 4 7h82c4 0 9 -4 10 -8l23 -105c1 -5 -2 -8 -6 -8h-38c-4 0 -10 3 -12 7z" />
    <glyph glyph-name="iacute" unicode="&#xed;" horiz-adv-x="214" 
d="M35 0h142v720h-142v-720zM204 868l-64 -107c-2 -4 -8 -7 -12 -7h-38c-4 0 -7 3 -6 8l24 105c1 4 6 8 10 8h82c4 0 6 -3 4 -7z" />
    <glyph glyph-name="icircumflex" unicode="&#xee;" horiz-adv-x="228" 
d="M43 0v720h142v-720h-142zM209 813c3 -3 4 -8 1 -11l-33 -35c-3 -3 -8 -4 -11 -1l-46 37c-3 3 -9 3 -12 0l-47 -37c-3 -3 -8 -2 -11 1l-32 35c-3 3 -2 8 1 11l89 68c3 3 9 3 12 0z" />
    <glyph glyph-name="idieresis" unicode="&#xef;" horiz-adv-x="230" 
d="M44 0h142v720h-142v-720zM178 852c24 0 44 -20 44 -44s-20 -44 -44 -44s-44 20 -44 44s20 44 44 44zM52 852c24 0 44 -20 44 -44s-20 -44 -44 -44s-44 20 -44 44s20 44 44 44z" />
    <glyph glyph-name="ntilde" unicode="&#xf1;" horiz-adv-x="396" 
d="M240 0h129v720h-125v-343l-84 343h-133v-720h125v352zM299 848c8 -5 9 -10 4 -16c-2 -3 -20 -27 -20 -27s-9 -12 -22 -18c-9 -5 -18 -7 -28 -7c-11 0 -22 3 -32 9l-30 19s-13 10 -27 -3c-4 -4 -7 -7 -9 -10c-5 -6 -13 -4 -19 -1s-17 11 -25 17c-9 6 -6 13 -2 19
c5 6 16 20 16 20s9 11 21 17c10 5 19 8 29 8c11 0 22 -4 32 -10l28 -19s14 -10 29 4c4 4 6 6 11 12c5 7 13 6 16 4c4 -3 18 -11 28 -18z" />
    <glyph glyph-name="ograve" unicode="&#xf2;" horiz-adv-x="373" 
d="M302 695c33 -32 51 -69 51 -117v-436c0 -49 -18 -85 -51 -117c-31 -31 -72 -39 -116 -39s-85 8 -116 39c-32 32 -50 68 -50 117v436c0 48 18 85 50 117c31 30 72 39 116 39s85 -9 116 -39zM211 134v452c0 20 -17 22 -25 22c-7 0 -24 -2 -24 -22v-452c0 -20 17 -23 24 -23
c8 0 25 3 25 23zM89 868c-2 4 0 7 4 7h82c4 0 9 -4 10 -8l23 -105c1 -5 -2 -8 -6 -8h-38c-4 0 -10 3 -12 7z" />
    <glyph glyph-name="oacute" unicode="&#xf3;" horiz-adv-x="373" 
d="M302 695c33 -32 51 -69 51 -117v-436c0 -49 -18 -85 -51 -117c-31 -31 -72 -39 -116 -39s-85 8 -116 39c-32 32 -50 68 -50 117v436c0 48 18 85 50 117c31 30 72 39 116 39s85 -9 116 -39zM211 134v452c0 20 -17 22 -25 22c-7 0 -24 -2 -24 -22v-452c0 -20 17 -23 24 -23
c8 0 25 3 25 23zM288 868l-64 -107c-2 -4 -8 -7 -12 -7h-38c-4 0 -7 3 -6 8l24 105c1 4 6 8 10 8h82c4 0 6 -3 4 -7z" />
    <glyph glyph-name="ocircumflex" unicode="&#xf4;" horiz-adv-x="373" 
d="M302 695c33 -32 51 -69 51 -117v-436c0 -49 -18 -85 -51 -117c-31 -31 -72 -39 -116 -39s-85 8 -116 39c-32 32 -50 68 -50 117v436c0 48 18 85 50 117c31 30 72 39 116 39s85 -9 116 -39zM211 134v452c0 20 -17 22 -25 22c-7 0 -24 -2 -24 -22v-452c0 -20 17 -23 24 -23
c8 0 25 3 25 23zM281 813c3 -3 4 -8 1 -11l-33 -35c-3 -3 -8 -4 -11 -1l-46 37c-3 3 -9 3 -12 0l-47 -37c-3 -3 -8 -2 -11 1l-32 35c-3 3 -2 8 1 11l89 68c3 3 9 3 12 0z" />
    <glyph glyph-name="otilde" unicode="&#xf5;" horiz-adv-x="373" 
d="M302 695c33 -32 51 -69 51 -117v-436c0 -49 -18 -85 -51 -117c-31 -31 -72 -39 -116 -39s-85 8 -116 39c-32 32 -50 68 -50 117v436c0 48 18 85 50 117c31 30 72 39 116 39s85 -9 116 -39zM211 134v452c0 20 -17 22 -25 22c-7 0 -24 -2 -24 -22v-452c0 -20 17 -23 24 -23
c8 0 25 3 25 23zM291 848c8 -5 9 -10 4 -16c-2 -3 -20 -27 -20 -27s-9 -12 -22 -18c-9 -5 -18 -7 -28 -7c-11 0 -22 3 -32 9l-30 19s-13 10 -27 -3c-4 -4 -7 -7 -9 -10c-5 -6 -13 -4 -19 -1s-17 11 -25 17c-9 6 -6 13 -2 19c5 6 16 20 16 20s9 11 21 17c10 5 19 8 29 8
c11 0 22 -4 32 -10l28 -19s14 -10 29 4c4 4 6 6 11 12c5 7 13 6 16 4c4 -3 18 -11 28 -18z" />
    <glyph glyph-name="odieresis" unicode="&#xf6;" horiz-adv-x="373" 
d="M302 695c33 -32 51 -69 51 -117v-436c0 -49 -18 -85 -51 -117c-31 -31 -72 -39 -116 -39s-85 8 -116 39c-32 32 -50 68 -50 117v436c0 48 18 85 50 117c31 30 72 39 116 39s85 -9 116 -39zM211 134v452c0 20 -17 22 -25 22c-7 0 -24 -2 -24 -22v-452c0 -20 17 -23 24 -23
c8 0 25 3 25 23zM249 852c24 0 44 -20 44 -44s-20 -44 -44 -44s-44 20 -44 44s20 44 44 44zM123 852c24 0 44 -20 44 -44s-20 -44 -44 -44s-44 20 -44 44s20 44 44 44z" />
    <glyph glyph-name="oslash" unicode="&#xf8;" horiz-adv-x="402" 
d="M385 703c4 -1 5 -6 4 -10l-33 -70v0c5 -15 8 -32 8 -50v-429c0 -49 -18 -85 -51 -117c-30 -31 -72 -40 -116 -40s-85 9 -116 40l-3 3v0l-17 -36c-2 -4 -6 -5 -10 -4l-40 19c-4 2 -6 7 -4 11l33 69v1c-6 16 -9 34 -9 54v429c0 48 18 85 50 117c31 30 72 39 116 39
s86 -9 116 -39l6 -6v0l16 35c1 4 6 5 10 3zM222 136v202l-49 -106v-96c0 -21 17 -23 24 -23c8 0 25 2 25 23zM222 481v99c0 21 -17 23 -25 23c-7 0 -24 -2 -24 -23v-205z" />
    <glyph glyph-name="ugrave" unicode="&#xf9;" 
d="M209 134v586h141v-578c0 -48 -18 -85 -50 -117c-31 -30 -71 -39 -115 -39s-85 9 -115 39c-32 32 -50 69 -50 117v578h141v-586c0 -20 17 -22 24 -22s24 2 24 22zM91 868c-2 4 0 7 4 7h82c4 0 9 -4 10 -8l23 -105c1 -5 -2 -8 -6 -8h-38c-4 0 -10 3 -12 7z" />
    <glyph glyph-name="uacute" unicode="&#xfa;" 
d="M209 134v586h141v-578c0 -48 -18 -85 -50 -117c-31 -30 -71 -39 -115 -39s-85 9 -115 39c-32 32 -50 69 -50 117v578h141v-586c0 -20 17 -22 24 -22s24 2 24 22zM282 868l-64 -107c-2 -4 -8 -7 -12 -7h-38c-4 0 -7 3 -6 8l24 105c1 4 6 8 10 8h82c4 0 6 -3 4 -7z" />
    <glyph glyph-name="ucircumflex" unicode="&#xfb;" 
d="M209 134v586h141v-578c0 -48 -18 -85 -50 -117c-31 -30 -71 -39 -115 -39s-85 9 -115 39c-32 32 -50 69 -50 117v578h141v-586c0 -20 17 -22 24 -22s24 2 24 22zM279 813c3 -3 4 -8 1 -11l-33 -35c-3 -3 -8 -4 -11 -1l-46 37c-3 3 -9 3 -12 0l-47 -37c-3 -3 -8 -2 -11 1
l-32 35c-3 3 -2 8 1 11l89 68c3 3 9 3 12 0z" />
    <glyph glyph-name="udieresis" unicode="&#xfc;" 
d="M209 134v586h141v-578c0 -48 -18 -85 -50 -117c-31 -30 -71 -39 -115 -39s-85 9 -115 39c-32 32 -50 69 -50 117v578h141v-586c0 -20 17 -22 24 -22s24 2 24 22zM247 852c24 0 44 -20 44 -44s-20 -44 -44 -44s-44 20 -44 44s20 44 44 44zM121 852c24 0 44 -20 44 -44
s-20 -44 -44 -44s-44 20 -44 44s20 44 44 44z" />
    <glyph glyph-name="yacute" unicode="&#xfd;" horiz-adv-x="434" 
d="M147 0h139v298l138 422h-140l-67 -240l-67 240h-140l137 -420v-300zM315 868l-64 -107c-2 -4 -8 -7 -12 -7h-38c-4 0 -7 3 -6 8l24 105c1 4 6 8 10 8h82c4 0 6 -3 4 -7z" />
    <glyph glyph-name="ydieresis" unicode="&#xff;" horiz-adv-x="434" 
d="M147 0h139v298l138 422h-140l-67 -240l-67 240h-140l137 -420v-300zM280 852c24 0 44 -20 44 -44s-20 -44 -44 -44s-44 20 -44 44s20 44 44 44zM154 852c24 0 44 -20 44 -44s-20 -44 -44 -44s-44 20 -44 44s20 44 44 44z" />
    <glyph glyph-name="thorn" unicode="&#xfe;" horiz-adv-x="374" 
d="M312 537c32 -32 50 -77 50 -126v-99c0 -49 -18 -93 -50 -126c-31 -30 -73 -47 -117 -47h-25v-112c0 -15 -12 -27 -27 -27h-89c-15 0 -27 12 -27 27v666c0 15 12 27 27 27h89c15 0 27 -12 27 -27v-109h25c44 0 86 -17 117 -47zM219 288v147c0 21 -5 31 -24 31h-25v-209h25
c19 0 24 10 24 31z" />
    <glyph glyph-name="eth" unicode="&#xf0;" horiz-adv-x="392" 
d="M323 673c33 -33 51 -77 51 -126v-374c0 -49 -18 -93 -51 -126c-31 -30 -72 -47 -117 -47h-140c-15 0 -27 12 -27 27v287h-6c-15 0 -27 12 -27 27v26c0 15 12 27 27 27h6v299c0 15 12 27 27 27h140c45 0 86 -17 117 -47zM231 149v422c0 21 -10 31 -25 31h-24v-208
c12 0 24 -12 24 -27v-26c0 -15 -12 -27 -24 -27v-196h24c17 0 25 10 25 31z" />
    <glyph glyph-name="ae" unicode="&#xe6;" horiz-adv-x="473" 
d="M353 406h47c15 0 27 -12 27 -27v-50c0 -15 -12 -27 -27 -27h-47v-177h80c15 0 27 -12 27 -27v-71c0 -15 -12 -27 -27 -27h-185c-15 0 -27 12 -27 27v81h-49l-8 -81c-2 -15 -15 -27 -30 -27h-94c-15 0 -25 12 -23 27l112 666c2 15 16 27 31 27h273c15 0 27 -12 27 -27v-66
c0 -15 -12 -27 -27 -27h-80v-194zM221 215v383l-38 -383h38z" />
    <glyph glyph-name="oe" unicode="&#x153;" horiz-adv-x="447" 
d="M324 600v-194h47c15 0 27 -12 27 -27v-50c0 -15 -12 -27 -27 -27h-47v-177h81c15 0 27 -12 27 -27v-71c0 -15 -12 -27 -27 -27h-115h-3h-90v1c-42 0 -101 8 -131 37c-31 31 -48 70 -48 117v411c0 47 17 86 48 117c30 29 90 37 132 37h89h3h115c15 0 27 -12 27 -27v-66
c0 -15 -12 -27 -27 -27h-81zM197 126v469c-19 0 -43 0 -43 -29v-411c0 -29 23 -29 43 -29z" />
    <glyph glyph-name="Ccedilla" unicode="&#xc7;" horiz-adv-x="368" 
d="M303 690c33 -32 51 -69 51 -118v-119c0 -15 -12 -27 -27 -27h-88c-15 0 -27 12 -27 27v127c0 21 -18 23 -25 23s-25 -2 -25 -23v-445c0 -21 18 -23 25 -23s25 2 25 23v122c0 15 12 27 27 27h88c15 0 27 -12 27 -27v-114c0 -49 -18 -85 -51 -118c-23 -23 -54 -34 -87 -38
l-26 -20l7 -3c10 -4 19 -9 26 -16c11 -12 17 -28 15 -45c-3 -24 -15 -37 -24 -43c-15 -11 -29 -13 -57 -11c-11 1 -19 3 -29 6c-10 2 -12 8 -10 14c2 7 3 13 6 21c2 8 7 12 18 9c12 -3 21 -4 27 -4c17 0 21 7 21 14c1 3 0 7 -3 9c-5 6 -19 9 -37 9c-17 0 -22 3 -23 8
c-2 6 -3 8 -4 11c-2 5 -3 8 7 19l23 23c-31 4 -60 15 -82 37c-33 33 -51 69 -51 118v429c0 49 18 86 51 118c30 30 72 39 116 39s86 -9 116 -39z" />
    <glyph glyph-name="ccedilla" unicode="&#xe7;" horiz-adv-x="368" 
d="M303 690c33 -32 51 -69 51 -118v-119c0 -15 -12 -27 -27 -27h-88c-15 0 -27 12 -27 27v127c0 21 -18 23 -25 23s-25 -2 -25 -23v-445c0 -21 18 -23 25 -23s25 2 25 23v122c0 15 12 27 27 27h88c15 0 27 -12 27 -27v-114c0 -49 -18 -85 -51 -118c-23 -23 -54 -34 -87 -38
l-26 -20l7 -3c10 -4 19 -9 26 -16c11 -12 17 -28 15 -45c-3 -24 -15 -37 -24 -43c-15 -11 -29 -13 -57 -11c-11 1 -19 3 -29 6c-10 2 -12 8 -10 14c2 7 3 13 6 21c2 8 7 12 18 9c12 -3 21 -4 27 -4c17 0 21 7 21 14c1 3 0 7 -3 9c-5 6 -19 9 -37 9c-17 0 -22 3 -23 8
c-2 6 -3 8 -4 11c-2 5 -3 8 7 19l23 23c-31 4 -60 15 -82 37c-33 33 -51 69 -51 118v429c0 49 18 86 51 118c30 30 72 39 116 39s86 -9 116 -39z" />
    <glyph glyph-name="Ydieresis" unicode="&#x178;" horiz-adv-x="434" 
d="M286 298v-271c0 -15 -12 -27 -27 -27h-85c-15 0 -27 12 -27 27v273l-129 394c-4 14 4 26 19 26h86c15 0 30 -12 34 -26l60 -214l60 214c4 14 19 26 34 26h86c15 0 23 -12 19 -26zM280 852c24 0 44 -20 44 -44s-20 -44 -44 -44s-44 20 -44 44s20 44 44 44zM154 852
c24 0 44 -20 44 -44s-20 -44 -44 -44s-44 20 -44 44s20 44 44 44z" />
    <glyph glyph-name="Scaron" unicode="&#x160;" horiz-adv-x="358" 
d="M306 341c32 -32 38 -59 38 -114v-84c0 -46 -16 -83 -51 -117c-27 -27 -64 -40 -117 -40c-51 0 -84 12 -112 40c-35 34 -51 71 -51 117v88c0 15 12 27 27 27h84c15 0 27 -12 27 -27v-95c0 -20 19 -22 25 -22c5 0 24 2 24 22v88c0 31 -9 34 -43 67l-104 94
c-27 27 -40 53 -40 97v90c0 46 16 84 51 118c28 27 61 39 113 39c51 0 84 -12 112 -39c35 -34 51 -72 51 -118v-77c0 -15 -12 -27 -27 -27h-86c-15 0 -27 12 -27 27v84c0 19 -14 23 -21 23c-9 0 -22 -4 -22 -22v-84c0 -34 19 -40 43 -64zM86 834c-3 3 -4 8 -1 11l33 35
c3 3 8 4 11 1l46 -37c3 -3 9 -3 12 0l47 37c3 3 8 2 11 -1l32 -35c3 -3 2 -8 -1 -11l-89 -68c-3 -3 -9 -3 -12 0z" />
    <glyph glyph-name="scaron" unicode="&#x161;" horiz-adv-x="358" 
d="M306 341c32 -32 38 -59 38 -114v-84c0 -46 -16 -83 -51 -117c-27 -27 -64 -40 -117 -40c-51 0 -84 12 -112 40c-35 34 -51 71 -51 117v88c0 15 12 27 27 27h84c15 0 27 -12 27 -27v-95c0 -20 19 -22 25 -22c5 0 24 2 24 22v88c0 31 -9 34 -43 67l-104 94
c-27 27 -40 53 -40 97v90c0 46 16 84 51 118c28 27 61 39 113 39c51 0 84 -12 112 -39c35 -34 51 -72 51 -118v-77c0 -15 -12 -27 -27 -27h-86c-15 0 -27 12 -27 27v84c0 19 -14 23 -21 23c-9 0 -22 -4 -22 -22v-84c0 -34 19 -40 43 -64zM86 834c-3 3 -4 8 -1 11l33 35
c3 3 8 4 11 1l46 -37c3 -3 9 -3 12 0l47 37c3 3 8 2 11 -1l32 -35c3 -3 2 -8 -1 -11l-89 -68c-3 -3 -9 -3 -12 0z" />
    <glyph glyph-name="lslash" unicode="&#x142;" horiz-adv-x="377" 
d="M340 129c15 0 27 -12 27 -27v-75c0 -15 -12 -27 -27 -27h-225c-15 0 -27 12 -27 27v152l-56 -39c-12 -9 -22 -4 -22 11v41c0 15 10 34 22 43l56 39v419c0 15 12 27 27 27h93c15 0 27 -12 27 -27v-325l73 56c11 9 21 5 21 -10v-41c0 -15 -10 -35 -21 -44l-73 -56v-144h105
z" />
    <glyph glyph-name="zcaron" unicode="&#x17e;" horiz-adv-x="342" 
d="M300 131c15 0 27 -12 27 -27v-77c0 -15 -12 -27 -27 -27h-258c-15 0 -27 12 -27 27v67l145 488h-112c-15 0 -27 12 -27 27v84c0 15 12 27 27 27h250c15 0 27 -12 27 -27v-64l-152 -498h127zM86 834c-3 3 -4 8 -1 11l33 35c3 3 8 4 11 1l46 -37c3 -3 9 -3 12 0l47 37
c3 3 8 2 11 -1l32 -35c3 -3 2 -8 -1 -11l-89 -68c-3 -3 -9 -3 -12 0z" />
    <glyph glyph-name="Zcaron" unicode="&#x17d;" horiz-adv-x="342" 
d="M300 131c15 0 27 -12 27 -27v-77c0 -15 -12 -27 -27 -27h-258c-15 0 -27 12 -27 27v67l145 488h-112c-15 0 -27 12 -27 27v84c0 15 12 27 27 27h250c15 0 27 -12 27 -27v-64l-152 -498h127zM86 834c-3 3 -4 8 -1 11l33 35c3 3 8 4 11 1l46 -37c3 -3 9 -3 12 0l47 37
c3 3 8 2 11 -1l32 -35c3 -3 2 -8 -1 -11l-89 -68c-3 -3 -9 -3 -12 0z" />
    <glyph glyph-name="degree" unicode="&#xb0;" horiz-adv-x="217" 
d="M108 734c54 0 97 -41 97 -95c0 -53 -43 -94 -97 -94c-53 0 -96 41 -96 94c0 54 43 95 96 95zM108 595c25 0 45 20 45 44c0 25 -20 45 -45 45c-24 0 -44 -20 -44 -45c0 -24 20 -44 44 -44z" />
    <glyph glyph-name="exclamdown" unicode="&#xa1;" horiz-adv-x="167" 
d="M23 299c0 33 28 61 61 61c34 0 61 -28 61 -61c0 -34 -27 -62 -61 -62c-33 0 -61 28 -61 62zM132 185c4 0 8 -4 8 -8v-536c0 -4 -4 -8 -8 -8h-93c-4 0 -8 4 -8 8v536c0 4 4 8 8 8h93z" />
    <glyph glyph-name="endash" unicode="&#x2013;" horiz-adv-x="371" 
d="M356 317c0 -4 -4 -8 -8 -8h-325c-4 0 -8 4 -8 8v74c0 4 4 8 8 8h325c4 0 8 -4 8 -8v-74z" />
    <glyph glyph-name="emdash" unicode="&#x2014;" horiz-adv-x="481" 
d="M466 317c0 -4 -4 -8 -8 -8h-435c-4 0 -8 4 -8 8v74c0 4 4 8 8 8h435c4 0 8 -4 8 -8v-74z" />
    <glyph glyph-name="dotlessi" unicode="&#x131;" horiz-adv-x="212" 
d="M51 720h110c9 0 16 -7 16 -16v-688c0 -9 -7 -16 -16 -16h-110c-9 0 -16 7 -16 16v688c0 9 7 16 16 16z" />
    <glyph glyph-name="a" unicode="a" horiz-adv-x="408" 
d="M392 27c2 -15 -8 -27 -23 -27h-93c-13 0 -26 10 -29 23l-7 85h-72l-7 -85c-4 -13 -16 -23 -30 -23h-93c-14 0 -25 12 -22 27l111 666c2 15 17 27 31 27h45h1h45c15 0 29 -12 32 -27zM178 215h52l-26 282z" />
    <glyph glyph-name="b" unicode="b" horiz-adv-x="384" 
d="M316 371c29 -32 52 -74 52 -119v-79c0 -49 -18 -94 -50 -126c-31 -30 -79 -47 -123 -47h-141c-15 0 -27 12 -27 27v666c0 15 12 27 27 27h133c44 0 92 -17 123 -48c32 -32 50 -77 50 -125v-68c0 -40 -20 -78 -44 -108zM170 601v-184h19c19 0 28 12 28 30v124
c0 20 -12 30 -30 30h-17zM225 149v135c0 20 -14 31 -29 31h-26v-197h25c23 0 30 10 30 31z" />
    <glyph glyph-name="c" unicode="c" 
d="M303 690c33 -32 51 -69 51 -118v-119c0 -15 -12 -27 -27 -27h-88c-15 0 -27 12 -27 27v127c0 21 -18 23 -25 23s-25 -2 -25 -23v-445c0 -21 18 -23 25 -23s25 2 25 23v122c0 15 12 27 27 27h88c15 0 27 -12 27 -27v-114c0 -49 -18 -85 -51 -118c-30 -30 -72 -39 -116 -39
s-86 9 -116 39c-33 33 -51 69 -51 118v429c0 49 18 86 51 118c30 30 72 39 116 39s86 -9 116 -39z" />
    <glyph glyph-name="d" unicode="d" horiz-adv-x="380" 
d="M311 673c33 -33 51 -77 51 -126v-374c0 -49 -18 -93 -51 -126c-31 -30 -72 -47 -117 -47h-140c-15 0 -27 12 -27 27v666c0 15 12 27 27 27h140c45 0 86 -17 117 -47zM219 149v422c0 21 -10 31 -25 31h-24v-484h24c17 0 25 10 25 31z" />
    <glyph glyph-name="e" unicode="e" horiz-adv-x="321" 
d="M174 125h105c15 0 27 -12 27 -27v-71c0 -15 -12 -27 -27 -27h-225c-15 0 -27 12 -27 27v666c0 15 12 27 27 27h225c15 0 27 -12 27 -27v-66c0 -15 -12 -27 -27 -27h-105v-194h71c15 0 27 -12 27 -27v-50c0 -15 -12 -27 -27 -27h-71v-177z" />
    <glyph glyph-name="f" unicode="f" horiz-adv-x="318" 
d="M174 406h71c15 0 27 -12 27 -27v-50c0 -15 -12 -27 -27 -27h-71v-275c0 -15 -12 -27 -27 -27h-93c-15 0 -27 12 -27 27v666c0 15 12 27 27 27h225c15 0 27 -12 27 -27v-66c0 -15 -12 -27 -27 -27h-105v-194z" />
    <glyph glyph-name="g" unicode="g" horiz-adv-x="372" 
d="M303 690c33 -32 51 -69 51 -118v-120c0 -15 -12 -27 -27 -27h-88c-15 0 -27 12 -27 27v128c0 21 -18 23 -25 23s-25 -2 -25 -23v-445c0 -21 20 -23 27 -23s23 2 27 23v132c-17 0 -29 12 -29 27v25c0 15 12 27 27 27h113c15 0 27 -12 27 -27v-319h-40s-5 35 -7 33
c-30 -30 -58 -47 -120 -47c-44 0 -86 9 -116 39c-33 33 -51 69 -51 118v429c0 49 18 86 51 118c30 30 72 39 116 39s86 -9 116 -39z" />
    <glyph glyph-name="h" unicode="h" horiz-adv-x="400" 
d="M346 720c15 0 27 -12 27 -27v-666c0 -15 -12 -27 -27 -27h-93c-15 0 -27 12 -27 27v275h-52v-275c0 -15 -12 -27 -27 -27h-93c-15 0 -27 12 -27 27v666c0 15 12 27 27 27h93c15 0 27 -12 27 -27v-287h52v287c0 15 12 27 27 27h93z" />
    <glyph glyph-name="i" unicode="i" horiz-adv-x="212" 
d="M177 693v-666c0 -15 -12 -27 -27 -27h-88c-15 0 -27 12 -27 27v666c0 15 12 27 27 27h88c15 0 27 -12 27 -27z" />
    <glyph glyph-name="j" unicode="j" horiz-adv-x="377" 
d="M323 719c15 0 27 -12 27 -27v-549c0 -49 -18 -85 -51 -118c-30 -30 -72 -39 -116 -39s-86 9 -116 39c-33 33 -51 69 -51 118v113c0 15 12 27 27 27h88c15 0 27 -12 27 -27v-121c0 -21 18 -23 25 -23s25 2 25 23v557c0 15 12 27 27 27h88z" />
    <glyph glyph-name="k" unicode="k" horiz-adv-x="423" 
d="M286 432l121 -406c4 -14 -4 -26 -19 -26h-89c-15 0 -30 12 -34 26c-67 243 -67 243 -74 269c-10 -25 -10 -25 -22 -54v-214c0 -15 -12 -27 -27 -27h-88c-15 0 -27 12 -27 27v666c0 15 12 27 27 27h84c15 0 27 -12 27 -27v-229c9 25 9 25 79 230c5 14 21 26 36 26h88
c15 0 23 -11 17 -25z" />
    <glyph glyph-name="l" unicode="l" horiz-adv-x="318" 
d="M174 129h105c15 0 27 -12 27 -27v-75c0 -15 -12 -27 -27 -27h-225c-15 0 -27 12 -27 27v666c0 15 12 27 27 27h93c15 0 27 -12 27 -27v-564z" />
    <glyph glyph-name="m" unicode="m" horiz-adv-x="506" 
d="M452 719c15 0 27 -12 27 -27v-665c0 -15 -12 -27 -27 -27h-69c-15 0 -27 12 -27 27v383c-3 -27 -3 -27 -46 -383c-2 -15 -15 -27 -30 -27h-53c-15 0 -28 12 -30 27l-46 384v-384c0 -15 -12 -27 -27 -27h-70c-15 0 -27 12 -27 27v665c0 15 12 27 27 27h129
c15 0 28 -12 29 -27l41 -516l42 516c1 15 14 27 29 27h128z" />
    <glyph glyph-name="n" unicode="n" horiz-adv-x="396" 
d="M342 720c15 0 27 -12 27 -27v-666c0 -15 -12 -27 -27 -27h-75c-15 0 -30 12 -33 26l-82 364v-363c0 -15 -12 -27 -27 -27h-71c-15 0 -27 12 -27 27v666c0 15 12 27 27 27h79c15 0 29 -12 32 -26c73 -353 73 -353 79 -379v378c0 15 12 27 27 27h71z" />
    <glyph glyph-name="o" unicode="o" horiz-adv-x="373" 
d="M304 690c33 -32 51 -69 51 -117v-431c0 -49 -18 -85 -51 -117c-31 -31 -74 -39 -118 -39s-87 8 -118 39c-32 32 -50 68 -50 117v431c0 48 18 85 50 117c31 30 74 39 118 39s87 -9 118 -39zM213 134v447c0 20 -19 22 -27 22c-7 0 -26 -2 -26 -22v-447c0 -20 19 -23 26 -23
c8 0 27 3 27 23z" />
    <glyph glyph-name="p" unicode="p" horiz-adv-x="374" 
d="M312 672c32 -32 50 -76 50 -125v-100c0 -48 -18 -93 -50 -125c-31 -31 -73 -47 -117 -47h-25v-248c0 -15 -12 -27 -27 -27h-89c-15 0 -27 12 -27 27v666c0 15 12 27 27 27h141c44 0 86 -17 117 -48zM219 423v148c0 20 -5 31 -24 31h-25v-209h25c19 0 24 10 24 30z" />
    <glyph glyph-name="q" unicode="q" horiz-adv-x="385" 
d="M365 10c0 -29 -29 -21 -41 -19c-23 6 -42 15 -52 27c-26 -16 -55 -32 -86 -32c-44 0 -85 9 -116 39c-32 33 -50 69 -50 118v429c0 49 18 86 50 118c31 30 72 39 116 39s86 -9 116 -39c33 -32 51 -69 51 -118v-429c0 -24 -8 -44 -20 -60c0 0 -6 0 13 0s19 -14 19 -14v-59z
M162 135c0 -21 17 -23 24 -23c6 0 10 4 11 4c15 16 -9 33 -9 53h23v411c0 21 -17 23 -25 23c-7 0 -24 -2 -24 -23v-445z" />
    <glyph glyph-name="r" unicode="r" horiz-adv-x="383" 
d="M361 38c0 -19 18 -38 -22 -38h-108c-7 0 -12 16 -12 36v217c0 20 -7 30 -25 30h-25v-233v-23c0 -15 -12 -27 -27 -27h-88c-15 0 -27 12 -27 27v666c0 15 12 27 27 27h140c44 0 86 -17 117 -48c32 -32 50 -76 50 -125v-92c0 -44 -23 -86 -50 -117c37 -29 50 -73 50 -117
v-183zM219 431v140c0 20 -6 31 -25 31h-25v-201h25c19 0 25 10 25 30z" />
    <glyph glyph-name="s" unicode="s" horiz-adv-x="367" 
d="M311 341c32 -32 38 -59 38 -114v-84c0 -46 -16 -83 -51 -117c-27 -27 -64 -40 -117 -40c-51 0 -84 12 -112 40c-35 34 -51 71 -51 117v88c0 15 12 27 27 27h84c15 0 27 -12 27 -27v-95c0 -20 19 -22 25 -22c5 0 24 2 24 22v88c0 31 -9 34 -43 67l-104 94
c-27 27 -40 53 -40 97v90c0 46 16 84 51 118c28 27 61 39 113 39c51 0 84 -12 112 -39c35 -34 51 -72 51 -118v-77c0 -15 -12 -27 -27 -27h-86c-15 0 -27 12 -27 27v84c0 19 -14 23 -21 23c-9 0 -22 -4 -22 -22v-84c0 -34 19 -40 43 -64z" />
    <glyph glyph-name="t" unicode="t" horiz-adv-x="356" 
d="M250 600v-573c0 -15 -12 -27 -27 -27h-90c-15 0 -27 12 -27 27v573h-68c-15 0 -27 12 -27 27v66c0 15 12 27 27 27h280c15 0 27 -12 27 -27v-66c0 -15 -12 -27 -27 -27h-68z" />
    <glyph glyph-name="u" unicode="u" 
d="M325 719c15 0 27 -12 27 -27v-546c0 -48 -18 -89 -50 -121c-31 -30 -73 -39 -117 -39s-87 9 -117 39c-32 32 -50 73 -50 121v546c0 15 12 27 27 27h87c15 0 27 -12 27 -27v-558c0 -20 19 -22 26 -22s26 2 26 22v558c0 15 12 27 27 27h87z" />
    <glyph glyph-name="v" unicode="v" horiz-adv-x="409" 
d="M371 720c15 0 25 -12 23 -27l-110 -666c-2 -15 -16 -27 -31 -27h-97c-15 0 -29 12 -31 27l-110 666c-2 15 8 27 23 27h93c15 0 28 -12 30 -27c40 -422 40 -422 43 -449c3 27 3 27 44 449c2 15 15 27 30 27h93z" />
    <glyph glyph-name="w" unicode="w" horiz-adv-x="597" 
d="M558 720c15 0 25 -12 23 -27l-102 -666c-2 -15 -16 -27 -31 -27h-76c-15 0 -29 12 -31 27l-42 312c-4 -27 -4 -27 -43 -312c-2 -15 -16 -27 -31 -27h-76c-15 0 -29 12 -31 27l-102 666c-2 15 8 27 23 27h77c15 0 28 -12 30 -27c40 -403 40 -403 43 -430l45 430
c2 15 15 27 30 27h69c15 0 28 -12 30 -27l45 -430c3 27 3 27 43 430c2 15 15 27 30 27h77z" />
    <glyph glyph-name="x" unicode="x" horiz-adv-x="408" 
d="M278 378l109 -352c4 -14 -4 -26 -19 -26h-93c-15 0 -30 12 -33 26l-37 184l-39 -184c-4 -14 -18 -26 -33 -26h-93c-15 0 -23 12 -19 26l113 352l-98 316c-5 14 4 26 19 26h94c15 0 29 -12 31 -27l27 -180l27 180c2 15 16 27 31 27h94c15 0 23 -12 19 -26z" />
    <glyph glyph-name="y" unicode="y" horiz-adv-x="434" 
d="M286 298v-271c0 -15 -12 -27 -27 -27h-85c-15 0 -27 12 -27 27v273l-129 394c-4 14 4 26 19 26h86c15 0 30 -12 34 -26l60 -214l60 214c4 14 19 26 34 26h86c15 0 23 -12 19 -26z" />
    <glyph glyph-name="z" unicode="z" horiz-adv-x="342" 
d="M300 131c15 0 27 -12 27 -27v-77c0 -15 -12 -27 -27 -27h-258c-15 0 -27 12 -27 27v67l145 488h-112c-15 0 -27 12 -27 27v84c0 15 12 27 27 27h250c15 0 27 -12 27 -27v-64l-152 -498h127z" />
    <glyph glyph-name="A" unicode="A" horiz-adv-x="408" 
d="M392 27c2 -15 -8 -27 -23 -27h-93c-13 0 -26 10 -29 23l-7 85h-72l-7 -85c-4 -13 -16 -23 -30 -23h-93c-14 0 -25 12 -22 27l111 666c2 15 17 27 31 27h45h1h45c15 0 29 -12 32 -27zM178 215h52l-26 282z" />
    <glyph glyph-name="B" unicode="B" horiz-adv-x="384" 
d="M316 371c29 -32 52 -74 52 -119v-79c0 -49 -18 -94 -50 -126c-31 -30 -79 -47 -123 -47h-141c-15 0 -27 12 -27 27v666c0 15 12 27 27 27h133c44 0 92 -17 123 -48c32 -32 50 -77 50 -125v-68c0 -40 -20 -78 -44 -108zM170 601v-184h19c19 0 28 12 28 30v124
c0 20 -12 30 -30 30h-17zM225 149v135c0 20 -14 31 -29 31h-26v-197h25c23 0 30 10 30 31z" />
    <glyph glyph-name="minus" unicode="&#x2212;" horiz-adv-x="0" 
 />
    <glyph glyph-name="Amacron" unicode="&#x100;" horiz-adv-x="408" 
d="M392 27c2 -15 -8 -27 -23 -27h-93c-13 0 -26 10 -29 23l-7 85h-72l-7 -85c-4 -13 -16 -23 -30 -23h-93c-14 0 -25 12 -22 27l111 666c2 15 17 27 31 27h45h1h45c15 0 29 -12 32 -27zM178 215h52l-26 282zM329 793c0 -4 -4 -8 -8 -8h-234c-4 0 -8 4 -8 8v44c0 4 4 8 8 8
h234c4 0 8 -4 8 -8v-44z" />
    <glyph glyph-name="Emacron" unicode="&#x112;" horiz-adv-x="321" 
d="M174 125h105c15 0 27 -12 27 -27v-71c0 -15 -12 -27 -27 -27h-225c-15 0 -27 12 -27 27v666c0 15 12 27 27 27h225c15 0 27 -12 27 -27v-66c0 -15 -12 -27 -27 -27h-105v-194h71c15 0 27 -12 27 -27v-50c0 -15 -12 -27 -27 -27h-71v-177zM285 793c0 -4 -4 -8 -8 -8h-234
c-4 0 -8 4 -8 8v44c0 4 4 8 8 8h234c4 0 8 -4 8 -8v-44z" />
    <glyph glyph-name="Imacron" horiz-adv-x="212" 
d="M177 27c0 -15 -12 -27 -27 -27h-88c-15 0 -27 12 -27 27v666c0 15 12 27 27 27h88c15 0 27 -12 27 -27v-666zM231 793c0 -4 -4 -8 -8 -8h-234c-4 0 -8 4 -8 8v44c0 4 4 8 8 8h234c4 0 8 -4 8 -8v-44z" />
    <glyph glyph-name="Omacron" unicode="&#x14c;" horiz-adv-x="373" 
d="M304 690c33 -32 51 -69 51 -117v-431c0 -49 -18 -85 -51 -117c-31 -31 -74 -39 -118 -39s-87 8 -118 39c-32 32 -50 68 -50 117v431c0 48 18 85 50 117c31 30 74 39 118 39s87 -9 118 -39zM213 134v447c0 20 -19 22 -27 22c-7 0 -26 -2 -26 -22v-447c0 -20 19 -23 26 -23
c8 0 27 3 27 23zM311 793c0 -4 -4 -8 -8 -8h-234c-4 0 -8 4 -8 8v44c0 4 4 8 8 8h234c4 0 8 -4 8 -8v-44z" />
    <glyph glyph-name="Umacron" unicode="&#x16a;" 
d="M325 719c15 0 27 -12 27 -27v-546c0 -48 -18 -89 -50 -121c-31 -30 -73 -39 -117 -39s-87 9 -117 39c-32 32 -50 73 -50 121v546c0 15 12 27 27 27h87c15 0 27 -12 27 -27v-558c0 -20 19 -22 26 -22s26 2 26 22v558c0 15 12 27 27 27h87zM310 793c0 -4 -4 -8 -8 -8h-234
c-4 0 -8 4 -8 8v44c0 4 4 8 8 8h234c4 0 8 -4 8 -8v-44z" />
    <glyph glyph-name="amacron" unicode="&#x101;" horiz-adv-x="408" 
d="M392 27c2 -15 -8 -27 -23 -27h-93c-13 0 -26 10 -29 23l-7 85h-72l-7 -85c-4 -13 -16 -23 -30 -23h-93c-14 0 -25 12 -22 27l111 666c2 15 17 27 31 27h45h1h45c15 0 29 -12 32 -27zM178 215h52l-26 282zM329 793c0 -4 -4 -8 -8 -8h-234c-4 0 -8 4 -8 8v44c0 4 4 8 8 8
h234c4 0 8 -4 8 -8v-44z" />
    <glyph glyph-name="emacron" unicode="&#x113;" horiz-adv-x="321" 
d="M174 125h105c15 0 27 -12 27 -27v-71c0 -15 -12 -27 -27 -27h-225c-15 0 -27 12 -27 27v666c0 15 12 27 27 27h225c15 0 27 -12 27 -27v-66c0 -15 -12 -27 -27 -27h-105v-194h71c15 0 27 -12 27 -27v-50c0 -15 -12 -27 -27 -27h-71v-177zM285 793c0 -4 -4 -8 -8 -8h-234
c-4 0 -8 4 -8 8v44c0 4 4 8 8 8h234c4 0 8 -4 8 -8v-44z" />
    <glyph glyph-name="imacron" unicode="&#x12b;" horiz-adv-x="212" 
d="M51 720h110c9 0 16 -7 16 -16v-688c0 -9 -7 -16 -16 -16h-110c-9 0 -16 7 -16 16v688c0 9 7 16 16 16zM231 793c0 -4 -4 -8 -8 -8h-234c-4 0 -8 4 -8 8v44c0 4 4 8 8 8h234c4 0 8 -4 8 -8v-44z" />
    <glyph glyph-name="omacron" unicode="&#x14d;" horiz-adv-x="373" 
d="M304 690c33 -32 51 -69 51 -117v-431c0 -49 -18 -85 -51 -117c-31 -31 -74 -39 -118 -39s-87 8 -118 39c-32 32 -50 68 -50 117v431c0 48 18 85 50 117c31 30 74 39 118 39s87 -9 118 -39zM213 134v447c0 20 -19 22 -27 22c-7 0 -26 -2 -26 -22v-447c0 -20 19 -23 26 -23
c8 0 27 3 27 23zM311 793c0 -4 -4 -8 -8 -8h-234c-4 0 -8 4 -8 8v44c0 4 4 8 8 8h234c4 0 8 -4 8 -8v-44z" />
    <glyph glyph-name="umacron" unicode="&#x16b;" 
d="M325 719c15 0 27 -12 27 -27v-546c0 -48 -18 -89 -50 -121c-31 -30 -73 -39 -117 -39s-87 9 -117 39c-32 32 -50 73 -50 121v546c0 15 12 27 27 27h87c15 0 27 -12 27 -27v-558c0 -20 19 -22 26 -22s26 2 26 22v558c0 15 12 27 27 27h87zM310 793c0 -4 -4 -8 -8 -8h-234
c-4 0 -8 4 -8 8v44c0 4 4 8 8 8h234c4 0 8 -4 8 -8v-44z" />
    <glyph glyph-name="Abreve" unicode="&#x102;" horiz-adv-x="408" 
d="M392 27c2 -15 -8 -27 -23 -27h-93c-13 0 -26 10 -29 23l-7 85h-72l-7 -85c-4 -13 -16 -23 -30 -23h-93c-14 0 -25 12 -22 27l111 666c2 15 17 27 31 27h45h1h45c15 0 29 -12 32 -27zM178 215h52l-26 282zM243 823h24c10 0 12 -7 11 -10c-2 -16 -9 -30 -21 -42
c-14 -14 -33 -21 -53 -21s-39 7 -53 21c-12 12 -19 26 -21 43c-1 3 -2 9 8 9h28s9 -4 10 -6c3 -13 15 -22 28 -22c12 0 23 8 27 20c0 2 1 8 12 8z" />
    <glyph glyph-name="Ebreve" unicode="&#x114;" horiz-adv-x="321" 
d="M174 125h105c15 0 27 -12 27 -27v-71c0 -15 -12 -27 -27 -27h-225c-15 0 -27 12 -27 27v666c0 15 12 27 27 27h225c15 0 27 -12 27 -27v-66c0 -15 -12 -27 -27 -27h-105v-194h71c15 0 27 -12 27 -27v-50c0 -15 -12 -27 -27 -27h-71v-177zM199 823h24c10 0 12 -7 11 -10
c-2 -16 -9 -30 -21 -42c-14 -14 -33 -21 -53 -21s-39 7 -53 21c-12 12 -19 26 -21 43c-1 3 -2 9 8 9h28s9 -4 10 -6c3 -13 15 -22 28 -22c12 0 23 8 27 20c0 2 1 8 12 8z" />
    <glyph glyph-name="Ibreve" unicode="&#x12c;" horiz-adv-x="212" 
d="M177 27c0 -15 -12 -27 -27 -27h-88c-15 0 -27 12 -27 27v666c0 15 12 27 27 27h88c15 0 27 -12 27 -27v-666zM145 823h24c10 0 12 -7 11 -10c-2 -16 -9 -30 -21 -42c-14 -14 -33 -21 -53 -21s-39 7 -53 21c-12 12 -19 26 -21 43c-1 3 -2 9 8 9h28s9 -4 10 -6
c3 -13 15 -22 28 -22c12 0 23 8 27 20c0 2 1 8 12 8z" />
    <glyph glyph-name="Obreve" unicode="&#x14e;" horiz-adv-x="373" 
d="M304 690c33 -32 51 -69 51 -117v-431c0 -49 -18 -85 -51 -117c-31 -31 -74 -39 -118 -39s-87 8 -118 39c-32 32 -50 68 -50 117v431c0 48 18 85 50 117c31 30 74 39 118 39s87 -9 118 -39zM213 134v447c0 20 -19 22 -27 22c-7 0 -26 -2 -26 -22v-447c0 -20 19 -23 26 -23
c8 0 27 3 27 23zM225 823h24c10 0 12 -7 11 -10c-2 -16 -9 -30 -21 -42c-14 -14 -33 -21 -53 -21s-39 7 -53 21c-12 12 -19 26 -21 43c-1 3 -2 9 8 9h28s9 -4 10 -6c3 -13 15 -22 28 -22c12 0 23 8 27 20c0 2 1 8 12 8z" />
    <glyph glyph-name="Ubreve" unicode="&#x16c;" 
d="M325 719c15 0 27 -12 27 -27v-546c0 -48 -18 -89 -50 -121c-31 -30 -73 -39 -117 -39s-87 9 -117 39c-32 32 -50 73 -50 121v546c0 15 12 27 27 27h87c15 0 27 -12 27 -27v-558c0 -20 19 -22 26 -22s26 2 26 22v558c0 15 12 27 27 27h87zM224 823h24c10 0 12 -7 11 -10
c-2 -16 -9 -30 -21 -42c-14 -14 -33 -21 -53 -21s-39 7 -53 21c-12 12 -19 26 -21 43c-1 3 -2 9 8 9h28s9 -4 10 -6c3 -13 15 -22 28 -22c12 0 23 8 27 20c0 2 1 8 12 8z" />
    <glyph glyph-name="abreve" unicode="&#x103;" horiz-adv-x="408" 
d="M392 27c2 -15 -8 -27 -23 -27h-93c-13 0 -26 10 -29 23l-7 85h-72l-7 -85c-4 -13 -16 -23 -30 -23h-93c-14 0 -25 12 -22 27l111 666c2 15 17 27 31 27h45h1h45c15 0 29 -12 32 -27zM178 215h52l-26 282zM243 823h24c10 0 12 -7 11 -10c-2 -16 -9 -30 -21 -42
c-14 -14 -33 -21 -53 -21s-39 7 -53 21c-12 12 -19 26 -21 43c-1 3 -2 9 8 9h28s9 -4 10 -6c3 -13 15 -22 28 -22c12 0 23 8 27 20c0 2 1 8 12 8z" />
    <glyph glyph-name="ebreve" unicode="&#x115;" horiz-adv-x="321" 
d="M174 125h105c15 0 27 -12 27 -27v-71c0 -15 -12 -27 -27 -27h-225c-15 0 -27 12 -27 27v666c0 15 12 27 27 27h225c15 0 27 -12 27 -27v-66c0 -15 -12 -27 -27 -27h-105v-194h71c15 0 27 -12 27 -27v-50c0 -15 -12 -27 -27 -27h-71v-177zM199 823h24c10 0 12 -7 11 -10
c-2 -16 -9 -30 -21 -42c-14 -14 -33 -21 -53 -21s-39 7 -53 21c-12 12 -19 26 -21 43c-1 3 -2 9 8 9h28s9 -4 10 -6c3 -13 15 -22 28 -22c12 0 23 8 27 20c0 2 1 8 12 8z" />
    <glyph glyph-name="ibreve" horiz-adv-x="212" 
d="M51 720h110c9 0 16 -7 16 -16v-688c0 -9 -7 -16 -16 -16h-110c-9 0 -16 7 -16 16v688c0 9 7 16 16 16zM145 823h24c10 0 12 -7 11 -10c-2 -16 -9 -30 -21 -42c-14 -14 -33 -21 -53 -21s-39 7 -53 21c-12 12 -19 26 -21 43c-1 3 -2 9 8 9h28s9 -4 10 -6
c3 -13 15 -22 28 -22c12 0 23 8 27 20c0 2 1 8 12 8z" />
    <glyph glyph-name="obreve" unicode="&#x14f;" horiz-adv-x="373" 
d="M304 690c33 -32 51 -69 51 -117v-431c0 -49 -18 -85 -51 -117c-31 -31 -74 -39 -118 -39s-87 8 -118 39c-32 32 -50 68 -50 117v431c0 48 18 85 50 117c31 30 74 39 118 39s87 -9 118 -39zM213 134v447c0 20 -19 22 -27 22c-7 0 -26 -2 -26 -22v-447c0 -20 19 -23 26 -23
c8 0 27 3 27 23zM225 823h24c10 0 12 -7 11 -10c-2 -16 -9 -30 -21 -42c-14 -14 -33 -21 -53 -21s-39 7 -53 21c-12 12 -19 26 -21 43c-1 3 -2 9 8 9h28s9 -4 10 -6c3 -13 15 -22 28 -22c12 0 23 8 27 20c0 2 1 8 12 8z" />
    <glyph glyph-name="ubreve" unicode="&#x16d;" 
d="M325 719c15 0 27 -12 27 -27v-546c0 -48 -18 -89 -50 -121c-31 -30 -73 -39 -117 -39s-87 9 -117 39c-32 32 -50 73 -50 121v546c0 15 12 27 27 27h87c15 0 27 -12 27 -27v-558c0 -20 19 -22 26 -22s26 2 26 22v558c0 15 12 27 27 27h87zM224 823h24c10 0 12 -7 11 -10
c-2 -16 -9 -30 -21 -42c-14 -14 -33 -21 -53 -21s-39 7 -53 21c-12 12 -19 26 -21 43c-1 3 -2 9 8 9h28s9 -4 10 -6c3 -13 15 -22 28 -22c12 0 23 8 27 20c0 2 1 8 12 8z" />
    <glyph glyph-name="Gbreve" unicode="&#x11e;" horiz-adv-x="372" 
d="M303 690c33 -32 51 -69 51 -118v-120c0 -15 -12 -27 -27 -27h-88c-15 0 -27 12 -27 27v128c0 21 -18 23 -25 23s-25 -2 -25 -23v-445c0 -21 20 -23 27 -23s23 2 27 23v132c-17 0 -29 12 -29 27v25c0 15 12 27 27 27h113c15 0 27 -12 27 -27v-319h-40s-5 35 -7 33
c-30 -30 -58 -47 -120 -47c-44 0 -86 9 -116 39c-33 33 -51 69 -51 118v429c0 49 18 86 51 118c30 30 72 39 116 39s86 -9 116 -39zM225 823h24c10 0 12 -7 11 -10c-2 -16 -9 -30 -21 -42c-14 -14 -33 -21 -53 -21s-39 7 -53 21c-12 12 -19 26 -21 43c-1 3 -2 9 8 9h28
s9 -4 10 -6c3 -13 15 -22 28 -22c12 0 23 8 27 20c0 2 1 8 12 8z" />
    <glyph glyph-name="gbreve" unicode="&#x11f;" horiz-adv-x="372" 
d="M303 690c33 -32 51 -69 51 -118v-120c0 -15 -12 -27 -27 -27h-88c-15 0 -27 12 -27 27v128c0 21 -18 23 -25 23s-25 -2 -25 -23v-445c0 -21 20 -23 27 -23s23 2 27 23v132c-17 0 -29 12 -29 27v25c0 15 12 27 27 27h113c15 0 27 -12 27 -27v-319h-40s-5 35 -7 33
c-30 -30 -58 -47 -120 -47c-44 0 -86 9 -116 39c-33 33 -51 69 -51 118v429c0 49 18 86 51 118c30 30 72 39 116 39s86 -9 116 -39zM225 823h24c10 0 12 -7 11 -10c-2 -16 -9 -30 -21 -42c-14 -14 -33 -21 -53 -21s-39 7 -53 21c-12 12 -19 26 -21 43c-1 3 -2 9 8 9h28
s9 -4 10 -6c3 -13 15 -22 28 -22c12 0 23 8 27 20c0 2 1 8 12 8z" />
    <glyph glyph-name="Aogonek" unicode="&#x104;" horiz-adv-x="408" 
d="M395 -109c2 -13 -6 -18 -20 -18c-23 0 -45 6 -64 16c-28 16 -47 41 -51 70c-3 15 -1 30 3 44c-8 4 -14 11 -16 20l-7 85h-72l-7 -85c-4 -13 -16 -23 -30 -23h-93c-14 0 -25 12 -22 27l111 666c2 15 17 27 31 27h45h1h45c15 0 29 -12 32 -27l111 -666
c2 -15 -8 -27 -23 -27h-2c-9 -3 -17 -7 -22 -13c-2 -3 -7 -9 -6 -15c1 -8 13 -17 32 -19c10 -1 15 -3 17 -14s5 -28 7 -48zM178 215h52l-26 282z" />
    <glyph glyph-name="Eogonek" unicode="&#x118;" horiz-adv-x="321" 
d="M279 600h-105v-194h71c15 0 27 -12 27 -27v-50c0 -15 -12 -27 -27 -27h-71v-177h105c15 0 27 -12 27 -27v-71c0 -14 -10 -25 -23 -27c-12 -3 -23 -8 -30 -15c-2 -3 -7 -9 -6 -15c1 -8 13 -17 32 -19c10 -1 15 -3 17 -14s5 -28 7 -48c2 -13 -6 -18 -20 -18
c-23 0 -45 6 -64 16c-28 16 -47 41 -51 70c-3 14 -2 29 3 43h-117c-15 0 -27 12 -27 27v666c0 15 12 27 27 27h225c15 0 27 -12 27 -27v-66c0 -15 -12 -27 -27 -27z" />
    <glyph glyph-name="Uogonek" unicode="&#x172;" 
d="M325 719c15 0 27 -12 27 -27v-546c0 -48 -18 -89 -50 -121c-19 -18 -42 -29 -67 -34c-3 -2 -5 -4 -7 -6c-2 -3 -7 -9 -6 -15c1 -8 13 -17 32 -19c10 -1 15 -3 17 -14s5 -28 7 -48c2 -13 -6 -18 -20 -18c-23 0 -45 6 -64 16c-28 16 -47 41 -51 70c-2 11 -2 22 0 32
c-28 5 -55 16 -75 36c-32 32 -50 73 -50 121v546c0 15 12 27 27 27h87c15 0 27 -12 27 -27v-558c0 -20 19 -22 26 -22s26 2 26 22v558c0 15 12 27 27 27h87z" />
    <glyph glyph-name="Oogonek" unicode="&#x1ea;" horiz-adv-x="369" 
d="M304 690c33 -32 51 -69 51 -117v-431c0 -49 -18 -85 -51 -117c-21 -21 -47 -31 -75 -36c-2 -1 -4 -3 -6 -5c-2 -3 -7 -9 -6 -15c1 -8 13 -17 32 -19c10 -1 15 -3 17 -14s5 -28 7 -48c2 -13 -6 -18 -20 -18c-23 0 -45 6 -64 16c-28 16 -47 41 -51 70c-2 11 -2 23 1 34
c-27 5 -51 15 -71 35c-32 32 -50 68 -50 117v431c0 48 18 85 50 117c31 30 74 39 118 39s87 -9 118 -39zM160 581v-447c0 -20 19 -23 26 -23c8 0 27 3 27 23v447c0 20 -19 22 -27 22c-7 0 -26 -2 -26 -22z" />
    <glyph glyph-name="aogonek" unicode="&#x105;" horiz-adv-x="408" 
d="M395 -109c2 -13 -6 -18 -20 -18c-23 0 -45 6 -64 16c-28 16 -47 41 -51 70c-3 15 -1 30 3 44c-8 4 -14 11 -16 20l-7 85h-72l-7 -85c-4 -13 -16 -23 -30 -23h-93c-14 0 -25 12 -22 27l111 666c2 15 17 27 31 27h45h1h45c15 0 29 -12 32 -27l111 -666
c2 -15 -8 -27 -23 -27h-2c-9 -3 -17 -7 -22 -13c-2 -3 -7 -9 -6 -15c1 -8 13 -17 32 -19c10 -1 15 -3 17 -14s5 -28 7 -48zM178 215h52l-26 282z" />
    <glyph glyph-name="eogonek" unicode="&#x119;" horiz-adv-x="321" 
d="M279 600h-105v-194h71c15 0 27 -12 27 -27v-50c0 -15 -12 -27 -27 -27h-71v-177h105c15 0 27 -12 27 -27v-71c0 -14 -10 -25 -23 -27c-12 -3 -23 -8 -30 -15c-2 -3 -7 -9 -6 -15c1 -8 13 -17 32 -19c10 -1 15 -3 17 -14s5 -28 7 -48c2 -13 -6 -18 -20 -18
c-23 0 -45 6 -64 16c-28 16 -47 41 -51 70c-3 14 -2 29 3 43h-117c-15 0 -27 12 -27 27v666c0 15 12 27 27 27h225c15 0 27 -12 27 -27v-66c0 -15 -12 -27 -27 -27z" />
    <glyph glyph-name="uogonek" unicode="&#x173;" 
d="M325 719c15 0 27 -12 27 -27v-546c0 -48 -18 -89 -50 -121c-19 -18 -42 -29 -67 -34c-3 -2 -5 -4 -7 -6c-2 -3 -7 -9 -6 -15c1 -8 13 -17 32 -19c10 -1 15 -3 17 -14s5 -28 7 -48c2 -13 -6 -18 -20 -18c-23 0 -45 6 -64 16c-28 16 -47 41 -51 70c-2 11 -2 22 0 32
c-28 5 -55 16 -75 36c-32 32 -50 73 -50 121v546c0 15 12 27 27 27h87c15 0 27 -12 27 -27v-558c0 -20 19 -22 26 -22s26 2 26 22v558c0 15 12 27 27 27h87z" />
    <glyph glyph-name="Cacute" unicode="&#x106;" 
d="M303 690c33 -32 51 -69 51 -118v-119c0 -15 -12 -27 -27 -27h-88c-15 0 -27 12 -27 27v127c0 21 -18 23 -25 23s-25 -2 -25 -23v-445c0 -21 18 -23 25 -23s25 2 25 23v122c0 15 12 27 27 27h88c15 0 27 -12 27 -27v-114c0 -49 -18 -85 -51 -118c-30 -30 -72 -39 -116 -39
s-86 9 -116 39c-33 33 -51 69 -51 118v429c0 49 18 86 51 118c30 30 72 39 116 39s86 -9 116 -39zM284 868l-64 -107c-2 -4 -8 -7 -12 -7h-38c-4 0 -7 3 -6 8l24 105c1 4 6 8 10 8h82c4 0 6 -3 4 -7z" />
    <glyph glyph-name="Nacute" unicode="&#x143;" horiz-adv-x="396" 
d="M342 720c15 0 27 -12 27 -27v-666c0 -15 -12 -27 -27 -27h-75c-15 0 -30 12 -33 26l-82 364v-363c0 -15 -12 -27 -27 -27h-71c-15 0 -27 12 -27 27v666c0 15 12 27 27 27h79c15 0 29 -12 32 -26c73 -353 73 -353 79 -379v378c0 15 12 27 27 27h71zM301 868l-64 -107
c-2 -4 -8 -7 -12 -7h-38c-4 0 -7 3 -6 8l24 105c1 4 6 8 10 8h82c4 0 6 -3 4 -7z" />
    <glyph glyph-name="Racute" unicode="&#x154;" horiz-adv-x="383" 
d="M361 38c0 -19 18 -38 -22 -38h-108c-7 0 -12 16 -12 36v217c0 20 -7 30 -25 30h-25v-233v-23c0 -15 -12 -27 -27 -27h-88c-15 0 -27 12 -27 27v666c0 15 12 27 27 27h140c44 0 86 -17 117 -48c32 -32 50 -76 50 -125v-92c0 -44 -23 -86 -50 -117c37 -29 50 -73 50 -117
v-183zM219 431v140c0 20 -6 31 -25 31h-25v-201h25c19 0 25 10 25 30zM274 868l-64 -107c-2 -4 -8 -7 -12 -7h-38c-4 0 -7 3 -6 8l24 105c1 4 6 8 10 8h82c4 0 6 -3 4 -7z" />
    <glyph glyph-name="Sacute" unicode="&#x15a;" horiz-adv-x="367" 
d="M311 341c32 -32 38 -59 38 -114v-84c0 -46 -16 -83 -51 -117c-27 -27 -64 -40 -117 -40c-51 0 -84 12 -112 40c-35 34 -51 71 -51 117v88c0 15 12 27 27 27h84c15 0 27 -12 27 -27v-95c0 -20 19 -22 25 -22c5 0 24 2 24 22v88c0 31 -9 34 -43 67l-104 94
c-27 27 -40 53 -40 97v90c0 46 16 84 51 118c28 27 61 39 113 39c51 0 84 -12 112 -39c35 -34 51 -72 51 -118v-77c0 -15 -12 -27 -27 -27h-86c-15 0 -27 12 -27 27v84c0 19 -14 23 -21 23c-9 0 -22 -4 -22 -22v-84c0 -34 19 -40 43 -64zM278 868l-64 -107
c-2 -4 -8 -7 -12 -7h-38c-4 0 -7 3 -6 8l24 105c1 4 6 8 10 8h82c4 0 6 -3 4 -7z" />
    <glyph glyph-name="Zacute" unicode="&#x179;" horiz-adv-x="342" 
d="M300 131c15 0 27 -12 27 -27v-77c0 -15 -12 -27 -27 -27h-258c-15 0 -27 12 -27 27v67l145 488h-112c-15 0 -27 12 -27 27v84c0 15 12 27 27 27h250c15 0 27 -12 27 -27v-64l-152 -498h127zM274 868l-64 -107c-2 -4 -8 -7 -12 -7h-38c-4 0 -7 3 -6 8l24 105c1 4 6 8 10 8
h82c4 0 6 -3 4 -7z" />
    <glyph glyph-name="AEacute" unicode="&#x1fc;" horiz-adv-x="473" 
d="M353 406h47c15 0 27 -12 27 -27v-50c0 -15 -12 -27 -27 -27h-47v-177h80c15 0 27 -12 27 -27v-71c0 -15 -12 -27 -27 -27h-185c-15 0 -27 12 -27 27v81h-49l-8 -81c-2 -15 -15 -27 -30 -27h-94c-15 0 -25 12 -23 27l112 666c2 15 16 27 31 27h273c15 0 27 -12 27 -27v-66
c0 -15 -12 -27 -27 -27h-80v-194zM221 215v383l-38 -383h38zM365 868l-64 -107c-2 -4 -8 -7 -12 -7h-38c-4 0 -7 3 -6 8l24 105c1 4 6 8 10 8h82c4 0 6 -3 4 -7z" />
    <glyph glyph-name="Wacute" unicode="&#x1e82;" horiz-adv-x="597" 
d="M558 720c15 0 25 -12 23 -27l-102 -666c-2 -15 -16 -27 -31 -27h-76c-15 0 -29 12 -31 27l-42 312c-4 -27 -4 -27 -43 -312c-2 -15 -16 -27 -31 -27h-76c-15 0 -29 12 -31 27l-102 666c-2 15 8 27 23 27h77c15 0 28 -12 30 -27c40 -403 40 -403 43 -430l45 430
c2 15 15 27 30 27h69c15 0 28 -12 30 -27l45 -430c3 27 3 27 43 430c2 15 15 27 30 27h77zM401 868l-64 -107c-2 -4 -8 -7 -12 -7h-38c-4 0 -7 3 -6 8l24 105c1 4 6 8 10 8h82c4 0 6 -3 4 -7z" />
    <glyph glyph-name="cacute" unicode="&#x107;" 
d="M303 690c33 -32 51 -69 51 -118v-119c0 -15 -12 -27 -27 -27h-88c-15 0 -27 12 -27 27v127c0 21 -18 23 -25 23s-25 -2 -25 -23v-445c0 -21 18 -23 25 -23s25 2 25 23v122c0 15 12 27 27 27h88c15 0 27 -12 27 -27v-114c0 -49 -18 -85 -51 -118c-30 -30 -72 -39 -116 -39
s-86 9 -116 39c-33 33 -51 69 -51 118v429c0 49 18 86 51 118c30 30 72 39 116 39s86 -9 116 -39zM244 868l-64 -107c-2 -4 -8 -7 -12 -7h-38c-4 0 -7 3 -6 8l24 105c1 4 6 8 10 8h82c4 0 6 -3 4 -7z" />
    <glyph glyph-name="nacute" unicode="&#x144;" horiz-adv-x="396" 
d="M342 720c15 0 27 -12 27 -27v-666c0 -15 -12 -27 -27 -27h-75c-15 0 -30 12 -33 26l-82 364v-363c0 -15 -12 -27 -27 -27h-71c-15 0 -27 12 -27 27v666c0 15 12 27 27 27h79c15 0 29 -12 32 -26c73 -353 73 -353 79 -379v378c0 15 12 27 27 27h71zM299 868l-64 -107
c-2 -4 -8 -7 -12 -7h-38c-4 0 -7 3 -6 8l24 105c1 4 6 8 10 8h82c4 0 6 -3 4 -7z" />
    <glyph glyph-name="racute" unicode="&#x155;" horiz-adv-x="383" 
d="M361 38c0 -19 18 -38 -22 -38h-108c-7 0 -12 16 -12 36v217c0 20 -7 30 -25 30h-25v-233v-23c0 -15 -12 -27 -27 -27h-88c-15 0 -27 12 -27 27v666c0 15 12 27 27 27h140c44 0 86 -17 117 -48c32 -32 50 -76 50 -125v-92c0 -44 -23 -86 -50 -117c37 -29 50 -73 50 -117
v-183zM219 431v140c0 20 -6 31 -25 31h-25v-201h25c19 0 25 10 25 30zM274 868l-64 -107c-2 -4 -8 -7 -12 -7h-38c-4 0 -7 3 -6 8l24 105c1 4 6 8 10 8h82c4 0 6 -3 4 -7z" />
    <glyph glyph-name="sacute" unicode="&#x15b;" horiz-adv-x="367" 
d="M311 341c32 -32 38 -59 38 -114v-84c0 -46 -16 -83 -51 -117c-27 -27 -64 -40 -117 -40c-51 0 -84 12 -112 40c-35 34 -51 71 -51 117v88c0 15 12 27 27 27h84c15 0 27 -12 27 -27v-95c0 -20 19 -22 25 -22c5 0 24 2 24 22v88c0 31 -9 34 -43 67l-104 94
c-27 27 -40 53 -40 97v90c0 46 16 84 51 118c28 27 61 39 113 39c51 0 84 -12 112 -39c35 -34 51 -72 51 -118v-77c0 -15 -12 -27 -27 -27h-86c-15 0 -27 12 -27 27v84c0 19 -14 23 -21 23c-9 0 -22 -4 -22 -22v-84c0 -34 19 -40 43 -64zM282 868l-64 -107
c-2 -4 -8 -7 -12 -7h-38c-4 0 -7 3 -6 8l24 105c1 4 6 8 10 8h82c4 0 6 -3 4 -7z" />
    <glyph glyph-name="zacute" unicode="&#x17a;" horiz-adv-x="342" 
d="M300 131c15 0 27 -12 27 -27v-77c0 -15 -12 -27 -27 -27h-258c-15 0 -27 12 -27 27v67l145 488h-112c-15 0 -27 12 -27 27v84c0 15 12 27 27 27h250c15 0 27 -12 27 -27v-64l-152 -498h127zM274 868l-64 -107c-2 -4 -8 -7 -12 -7h-38c-4 0 -7 3 -6 8l24 105c1 4 6 8 10 8
h82c4 0 6 -3 4 -7z" />
    <glyph glyph-name="aeacute" unicode="&#x1fd;" horiz-adv-x="473" 
d="M353 406h47c15 0 27 -12 27 -27v-50c0 -15 -12 -27 -27 -27h-47v-177h80c15 0 27 -12 27 -27v-71c0 -15 -12 -27 -27 -27h-185c-15 0 -27 12 -27 27v81h-49l-8 -81c-2 -15 -15 -27 -30 -27h-94c-15 0 -25 12 -23 27l112 666c2 15 16 27 31 27h273c15 0 27 -12 27 -27v-66
c0 -15 -12 -27 -27 -27h-80v-194zM221 215v383l-38 -383h38zM365 868l-64 -107c-2 -4 -8 -7 -12 -7h-38c-4 0 -7 3 -6 8l24 105c1 4 6 8 10 8h82c4 0 6 -3 4 -7z" />
    <glyph glyph-name="wacute" unicode="&#x1e83;" horiz-adv-x="597" 
d="M558 720c15 0 25 -12 23 -27l-102 -666c-2 -15 -16 -27 -31 -27h-76c-15 0 -29 12 -31 27l-42 312c-4 -27 -4 -27 -43 -312c-2 -15 -16 -27 -31 -27h-76c-15 0 -29 12 -31 27l-102 666c-2 15 8 27 23 27h77c15 0 28 -12 30 -27c40 -403 40 -403 43 -430l45 430
c2 15 15 27 30 27h69c15 0 28 -12 30 -27l45 -430c3 27 3 27 43 430c2 15 15 27 30 27h77zM399 868l-64 -107c-2 -4 -8 -7 -12 -7h-38c-4 0 -7 3 -6 8l24 105c1 4 6 8 10 8h82c4 0 6 -3 4 -7z" />
    <glyph glyph-name="Wgrave" unicode="&#x1e80;" horiz-adv-x="597" 
d="M558 720c15 0 25 -12 23 -27l-102 -666c-2 -15 -16 -27 -31 -27h-76c-15 0 -29 12 -31 27l-42 312c-4 -27 -4 -27 -43 -312c-2 -15 -16 -27 -31 -27h-76c-15 0 -29 12 -31 27l-102 666c-2 15 8 27 23 27h77c15 0 28 -12 30 -27c40 -403 40 -403 43 -430l45 430
c2 15 15 27 30 27h69c15 0 28 -12 30 -27l45 -430c3 27 3 27 43 430c2 15 15 27 30 27h77zM198 868c-2 4 0 7 4 7h82c4 0 9 -4 10 -8l23 -105c1 -5 -2 -8 -6 -8h-38c-4 0 -10 3 -12 7z" />
    <glyph glyph-name="wgrave" unicode="&#x1e81;" horiz-adv-x="597" 
d="M558 720c15 0 25 -12 23 -27l-102 -666c-2 -15 -16 -27 -31 -27h-76c-15 0 -29 12 -31 27l-42 312c-4 -27 -4 -27 -43 -312c-2 -15 -16 -27 -31 -27h-76c-15 0 -29 12 -31 27l-102 666c-2 15 8 27 23 27h77c15 0 28 -12 30 -27c40 -403 40 -403 43 -430l45 430
c2 15 15 27 30 27h69c15 0 28 -12 30 -27l45 -430c3 27 3 27 43 430c2 15 15 27 30 27h77zM198 868c-2 4 0 7 4 7h82c4 0 9 -4 10 -8l23 -105c1 -5 -2 -8 -6 -8h-38c-4 0 -10 3 -12 7z" />
    <glyph glyph-name="Ygrave" unicode="&#x1ef2;" horiz-adv-x="434" 
d="M286 298v-271c0 -15 -12 -27 -27 -27h-85c-15 0 -27 12 -27 27v273l-129 394c-4 14 4 26 19 26h86c15 0 30 -12 34 -26l60 -214l60 214c4 14 19 26 34 26h86c15 0 23 -12 19 -26zM116 868c-2 4 0 7 4 7h82c4 0 9 -4 10 -8l23 -105c1 -5 -2 -8 -6 -8h-38c-4 0 -10 3 -12 7
z" />
    <glyph glyph-name="ygrave" unicode="&#x1ef3;" horiz-adv-x="434" 
d="M286 298v-271c0 -15 -12 -27 -27 -27h-85c-15 0 -27 12 -27 27v273l-129 394c-4 14 4 26 19 26h86c15 0 30 -12 34 -26l60 -214l60 214c4 14 19 26 34 26h86c15 0 23 -12 19 -26zM116 868c-2 4 0 7 4 7h82c4 0 9 -4 10 -8l23 -105c1 -5 -2 -8 -6 -8h-38c-4 0 -10 3 -12 7
z" />
    <glyph glyph-name="Ccircumflex" unicode="&#x108;" 
d="M303 690c33 -32 51 -69 51 -118v-119c0 -15 -12 -27 -27 -27h-88c-15 0 -27 12 -27 27v127c0 21 -18 23 -25 23s-25 -2 -25 -23v-445c0 -21 18 -23 25 -23s25 2 25 23v122c0 15 12 27 27 27h88c15 0 27 -12 27 -27v-114c0 -49 -18 -85 -51 -118c-30 -30 -72 -39 -116 -39
s-86 9 -116 39c-33 33 -51 69 -51 118v429c0 49 18 86 51 118c30 30 72 39 116 39s86 -9 116 -39zM280 813c3 -3 4 -8 1 -11l-33 -35c-3 -3 -8 -4 -11 -1l-46 37c-3 3 -9 3 -12 0l-47 -37c-3 -3 -8 -2 -11 1l-32 35c-3 3 -2 8 1 11l89 68c3 3 9 3 12 0z" />
    <glyph glyph-name="Gcircumflex" unicode="&#x11c;" horiz-adv-x="372" 
d="M303 690c33 -32 51 -69 51 -118v-120c0 -15 -12 -27 -27 -27h-88c-15 0 -27 12 -27 27v128c0 21 -18 23 -25 23s-25 -2 -25 -23v-445c0 -21 20 -23 27 -23s23 2 27 23v132c-17 0 -29 12 -29 27v25c0 15 12 27 27 27h113c15 0 27 -12 27 -27v-319h-40s-5 35 -7 33
c-30 -30 -58 -47 -120 -47c-44 0 -86 9 -116 39c-33 33 -51 69 -51 118v429c0 49 18 86 51 118c30 30 72 39 116 39s86 -9 116 -39zM281 813c3 -3 4 -8 1 -11l-33 -35c-3 -3 -8 -4 -11 -1l-46 37c-3 3 -9 3 -12 0l-47 -37c-3 -3 -8 -2 -11 1l-32 35c-3 3 -2 8 1 11l89 68
c3 3 9 3 12 0z" />
    <glyph glyph-name="Hcircumflex" unicode="&#x124;" horiz-adv-x="400" 
d="M346 720c15 0 27 -12 27 -27v-666c0 -15 -12 -27 -27 -27h-93c-15 0 -27 12 -27 27v275h-52v-275c0 -15 -12 -27 -27 -27h-93c-15 0 -27 12 -27 27v666c0 15 12 27 27 27h93c15 0 27 -12 27 -27v-287h52v287c0 15 12 27 27 27h93zM295 813c3 -3 4 -8 1 -11l-33 -35
c-3 -3 -8 -4 -11 -1l-46 37c-3 3 -9 3 -12 0l-47 -37c-3 -3 -8 -2 -11 1l-32 35c-3 3 -2 8 1 11l89 68c3 3 9 3 12 0z" />
    <glyph glyph-name="Jcircumflex" unicode="&#x134;" horiz-adv-x="377" 
d="M323 719c15 0 27 -12 27 -27v-549c0 -49 -18 -85 -51 -118c-30 -30 -72 -39 -116 -39s-86 9 -116 39c-33 33 -51 69 -51 118v113c0 15 12 27 27 27h88c15 0 27 -12 27 -27v-121c0 -21 18 -23 25 -23s25 2 25 23v557c0 15 12 27 27 27h88zM373 813c3 -3 4 -8 1 -11
l-33 -35c-3 -3 -8 -4 -11 -1l-46 37c-3 3 -9 3 -12 0l-47 -37c-3 -3 -8 -2 -11 1l-32 35c-3 3 -2 8 1 11l89 68c3 3 9 3 12 0z" />
    <glyph glyph-name="Scircumflex" unicode="&#x15c;" horiz-adv-x="367" 
d="M311 341c32 -32 38 -59 38 -114v-84c0 -46 -16 -83 -51 -117c-27 -27 -64 -40 -117 -40c-51 0 -84 12 -112 40c-35 34 -51 71 -51 117v88c0 15 12 27 27 27h84c15 0 27 -12 27 -27v-95c0 -20 19 -22 25 -22c5 0 24 2 24 22v88c0 31 -9 34 -43 67l-104 94
c-27 27 -40 53 -40 97v90c0 46 16 84 51 118c28 27 61 39 113 39c51 0 84 -12 112 -39c35 -34 51 -72 51 -118v-77c0 -15 -12 -27 -27 -27h-86c-15 0 -27 12 -27 27v84c0 19 -14 23 -21 23c-9 0 -22 -4 -22 -22v-84c0 -34 19 -40 43 -64zM278 813c3 -3 4 -8 1 -11l-33 -35
c-3 -3 -8 -4 -11 -1l-46 37c-3 3 -9 3 -12 0l-47 -37c-3 -3 -8 -2 -11 1l-32 35c-3 3 -2 8 1 11l89 68c3 3 9 3 12 0z" />
    <glyph glyph-name="Wcircumflex" unicode="&#x174;" horiz-adv-x="597" 
d="M558 720c15 0 25 -12 23 -27l-102 -666c-2 -15 -16 -27 -31 -27h-76c-15 0 -29 12 -31 27l-42 312c-4 -27 -4 -27 -43 -312c-2 -15 -16 -27 -31 -27h-76c-15 0 -29 12 -31 27l-102 666c-2 15 8 27 23 27h77c15 0 28 -12 30 -27c40 -403 40 -403 43 -430l45 430
c2 15 15 27 30 27h69c15 0 28 -12 30 -27l45 -430c3 27 3 27 43 430c2 15 15 27 30 27h77zM393 813c3 -3 4 -8 1 -11l-33 -35c-3 -3 -8 -4 -11 -1l-46 37c-3 3 -9 3 -12 0l-47 -37c-3 -3 -8 -2 -11 1l-32 35c-3 3 -2 8 1 11l89 68c3 3 9 3 12 0z" />
    <glyph glyph-name="Ycircumflex" unicode="&#x176;" horiz-adv-x="434" 
d="M286 298v-271c0 -15 -12 -27 -27 -27h-85c-15 0 -27 12 -27 27v273l-129 394c-4 14 4 26 19 26h86c15 0 30 -12 34 -26l60 -214l60 214c4 14 19 26 34 26h86c15 0 23 -12 19 -26zM312 813c3 -3 4 -8 1 -11l-33 -35c-3 -3 -8 -4 -11 -1l-46 37c-3 3 -9 3 -12 0l-47 -37
c-3 -3 -8 -2 -11 1l-32 35c-3 3 -2 8 1 11l89 68c3 3 9 3 12 0z" />
    <glyph glyph-name="ccircumflex" unicode="&#x109;" 
d="M303 690c33 -32 51 -69 51 -118v-119c0 -15 -12 -27 -27 -27h-88c-15 0 -27 12 -27 27v127c0 21 -18 23 -25 23s-25 -2 -25 -23v-445c0 -21 18 -23 25 -23s25 2 25 23v122c0 15 12 27 27 27h88c15 0 27 -12 27 -27v-114c0 -49 -18 -85 -51 -118c-30 -30 -72 -39 -116 -39
s-86 9 -116 39c-33 33 -51 69 -51 118v429c0 49 18 86 51 118c30 30 72 39 116 39s86 -9 116 -39zM280 813c3 -3 4 -8 1 -11l-33 -35c-3 -3 -8 -4 -11 -1l-46 37c-3 3 -9 3 -12 0l-47 -37c-3 -3 -8 -2 -11 1l-32 35c-3 3 -2 8 1 11l89 68c3 3 9 3 12 0z" />
    <glyph glyph-name="gcircumflex" unicode="&#x11d;" horiz-adv-x="372" 
d="M303 690c33 -32 51 -69 51 -118v-120c0 -15 -12 -27 -27 -27h-88c-15 0 -27 12 -27 27v128c0 21 -18 23 -25 23s-25 -2 -25 -23v-445c0 -21 20 -23 27 -23s23 2 27 23v132c-17 0 -29 12 -29 27v25c0 15 12 27 27 27h113c15 0 27 -12 27 -27v-319h-40s-5 35 -7 33
c-30 -30 -58 -47 -120 -47c-44 0 -86 9 -116 39c-33 33 -51 69 -51 118v429c0 49 18 86 51 118c30 30 72 39 116 39s86 -9 116 -39zM281 813c3 -3 4 -8 1 -11l-33 -35c-3 -3 -8 -4 -11 -1l-46 37c-3 3 -9 3 -12 0l-47 -37c-3 -3 -8 -2 -11 1l-32 35c-3 3 -2 8 1 11l89 68
c3 3 9 3 12 0z" />
    <glyph glyph-name="hcircumflex" unicode="&#x125;" horiz-adv-x="400" 
d="M346 720c15 0 27 -12 27 -27v-666c0 -15 -12 -27 -27 -27h-93c-15 0 -27 12 -27 27v275h-52v-275c0 -15 -12 -27 -27 -27h-93c-15 0 -27 12 -27 27v666c0 15 12 27 27 27h93c15 0 27 -12 27 -27v-287h52v287c0 15 12 27 27 27h93zM295 813c3 -3 4 -8 1 -11l-33 -35
c-3 -3 -8 -4 -11 -1l-46 37c-3 3 -9 3 -12 0l-47 -37c-3 -3 -8 -2 -11 1l-32 35c-3 3 -2 8 1 11l89 68c3 3 9 3 12 0z" />
    <glyph glyph-name="jcircumflex" unicode="&#x135;" horiz-adv-x="377" 
d="M323 719c15 0 27 -12 27 -27v-549c0 -49 -18 -85 -51 -118c-30 -30 -72 -39 -116 -39s-86 9 -116 39c-33 33 -51 69 -51 118v113c0 15 12 27 27 27h88c15 0 27 -12 27 -27v-121c0 -21 18 -23 25 -23s25 2 25 23v557c0 15 12 27 27 27h88zM373 813c3 -3 4 -8 1 -11
l-33 -35c-3 -3 -8 -4 -11 -1l-46 37c-3 3 -9 3 -12 0l-47 -37c-3 -3 -8 -2 -11 1l-32 35c-3 3 -2 8 1 11l89 68c3 3 9 3 12 0z" />
    <glyph glyph-name="scircumflex" unicode="&#x15d;" horiz-adv-x="367" 
d="M311 341c32 -32 38 -59 38 -114v-84c0 -46 -16 -83 -51 -117c-27 -27 -64 -40 -117 -40c-51 0 -84 12 -112 40c-35 34 -51 71 -51 117v88c0 15 12 27 27 27h84c15 0 27 -12 27 -27v-95c0 -20 19 -22 25 -22c5 0 24 2 24 22v88c0 31 -9 34 -43 67l-104 94
c-27 27 -40 53 -40 97v90c0 46 16 84 51 118c28 27 61 39 113 39c51 0 84 -12 112 -39c35 -34 51 -72 51 -118v-77c0 -15 -12 -27 -27 -27h-86c-15 0 -27 12 -27 27v84c0 19 -14 23 -21 23c-9 0 -22 -4 -22 -22v-84c0 -34 19 -40 43 -64zM278 813c3 -3 4 -8 1 -11l-33 -35
c-3 -3 -8 -4 -11 -1l-46 37c-3 3 -9 3 -12 0l-47 -37c-3 -3 -8 -2 -11 1l-32 35c-3 3 -2 8 1 11l89 68c3 3 9 3 12 0z" />
    <glyph glyph-name="wcircumflex" unicode="&#x175;" horiz-adv-x="597" 
d="M558 720c15 0 25 -12 23 -27l-102 -666c-2 -15 -16 -27 -31 -27h-76c-15 0 -29 12 -31 27l-42 312c-4 -27 -4 -27 -43 -312c-2 -15 -16 -27 -31 -27h-76c-15 0 -29 12 -31 27l-102 666c-2 15 8 27 23 27h77c15 0 28 -12 30 -27c40 -403 40 -403 43 -430l45 430
c2 15 15 27 30 27h69c15 0 28 -12 30 -27l45 -430c3 27 3 27 43 430c2 15 15 27 30 27h77zM393 813c3 -3 4 -8 1 -11l-33 -35c-3 -3 -8 -4 -11 -1l-46 37c-3 3 -9 3 -12 0l-47 -37c-3 -3 -8 -2 -11 1l-32 35c-3 3 -2 8 1 11l89 68c3 3 9 3 12 0z" />
    <glyph glyph-name="ycircumflex" unicode="&#x177;" horiz-adv-x="434" 
d="M286 298v-271c0 -15 -12 -27 -27 -27h-85c-15 0 -27 12 -27 27v273l-129 394c-4 14 4 26 19 26h86c15 0 30 -12 34 -26l60 -214l60 214c4 14 19 26 34 26h86c15 0 23 -12 19 -26zM312 813c3 -3 4 -8 1 -11l-33 -35c-3 -3 -8 -4 -11 -1l-46 37c-3 3 -9 3 -12 0l-47 -37
c-3 -3 -8 -2 -11 1l-32 35c-3 3 -2 8 1 11l89 68c3 3 9 3 12 0z" />
    <glyph glyph-name="Cdotaccent" unicode="&#x10a;" 
d="M303 690c33 -32 51 -69 51 -118v-119c0 -15 -12 -27 -27 -27h-88c-15 0 -27 12 -27 27v127c0 21 -18 23 -25 23s-25 -2 -25 -23v-445c0 -21 18 -23 25 -23s25 2 25 23v122c0 15 12 27 27 27h88c15 0 27 -12 27 -27v-114c0 -49 -18 -85 -51 -118c-30 -30 -72 -39 -116 -39
s-86 9 -116 39c-33 33 -51 69 -51 118v429c0 49 18 86 51 118c30 30 72 39 116 39s86 -9 116 -39zM185 837c22 0 41 -19 41 -42c0 -22 -19 -41 -41 -41c-23 0 -42 19 -42 41c0 23 19 42 42 42z" />
    <glyph glyph-name="Edotaccent" unicode="&#x116;" horiz-adv-x="321" 
d="M174 125h105c15 0 27 -12 27 -27v-71c0 -15 -12 -27 -27 -27h-225c-15 0 -27 12 -27 27v666c0 15 12 27 27 27h225c15 0 27 -12 27 -27v-66c0 -15 -12 -27 -27 -27h-105v-194h71c15 0 27 -12 27 -27v-50c0 -15 -12 -27 -27 -27h-71v-177zM161 837c22 0 41 -19 41 -42
c0 -22 -19 -41 -41 -41c-23 0 -42 19 -42 41c0 23 19 42 42 42z" />
    <glyph glyph-name="Gdotaccent" unicode="&#x120;" horiz-adv-x="372" 
d="M303 690c33 -32 51 -69 51 -118v-120c0 -15 -12 -27 -27 -27h-88c-15 0 -27 12 -27 27v128c0 21 -18 23 -25 23s-25 -2 -25 -23v-445c0 -21 20 -23 27 -23s23 2 27 23v132c-17 0 -29 12 -29 27v25c0 15 12 27 27 27h113c15 0 27 -12 27 -27v-319h-40s-5 35 -7 33
c-30 -30 -58 -47 -120 -47c-44 0 -86 9 -116 39c-33 33 -51 69 -51 118v429c0 49 18 86 51 118c30 30 72 39 116 39s86 -9 116 -39zM186 837c22 0 41 -19 41 -42c0 -22 -19 -41 -41 -41c-23 0 -42 19 -42 41c0 23 19 42 42 42z" />
    <glyph glyph-name="Zdotaccent" unicode="&#x17b;" horiz-adv-x="342" 
d="M300 131c15 0 27 -12 27 -27v-77c0 -15 -12 -27 -27 -27h-258c-15 0 -27 12 -27 27v67l145 488h-112c-15 0 -27 12 -27 27v84c0 15 12 27 27 27h250c15 0 27 -12 27 -27v-64l-152 -498h127zM171 837c22 0 41 -19 41 -42c0 -22 -19 -41 -41 -41c-23 0 -42 19 -42 41
c0 23 19 42 42 42z" />
    <glyph glyph-name="cdotaccent" unicode="&#x10b;" 
d="M303 690c33 -32 51 -69 51 -118v-119c0 -15 -12 -27 -27 -27h-88c-15 0 -27 12 -27 27v127c0 21 -18 23 -25 23s-25 -2 -25 -23v-445c0 -21 18 -23 25 -23s25 2 25 23v122c0 15 12 27 27 27h88c15 0 27 -12 27 -27v-114c0 -49 -18 -85 -51 -118c-30 -30 -72 -39 -116 -39
s-86 9 -116 39c-33 33 -51 69 -51 118v429c0 49 18 86 51 118c30 30 72 39 116 39s86 -9 116 -39zM185 837c22 0 41 -19 41 -42c0 -22 -19 -41 -41 -41c-23 0 -42 19 -42 41c0 23 19 42 42 42z" />
    <glyph glyph-name="edotaccent" unicode="&#x117;" horiz-adv-x="321" 
d="M174 125h105c15 0 27 -12 27 -27v-71c0 -15 -12 -27 -27 -27h-225c-15 0 -27 12 -27 27v666c0 15 12 27 27 27h225c15 0 27 -12 27 -27v-66c0 -15 -12 -27 -27 -27h-105v-194h71c15 0 27 -12 27 -27v-50c0 -15 -12 -27 -27 -27h-71v-177zM161 837c22 0 41 -19 41 -42
c0 -22 -19 -41 -41 -41c-23 0 -42 19 -42 41c0 23 19 42 42 42z" />
    <glyph glyph-name="gdotaccent" unicode="&#x121;" horiz-adv-x="372" 
d="M303 690c33 -32 51 -69 51 -118v-120c0 -15 -12 -27 -27 -27h-88c-15 0 -27 12 -27 27v128c0 21 -18 23 -25 23s-25 -2 -25 -23v-445c0 -21 20 -23 27 -23s23 2 27 23v132c-17 0 -29 12 -29 27v25c0 15 12 27 27 27h113c15 0 27 -12 27 -27v-319h-40s-5 35 -7 33
c-30 -30 -58 -47 -120 -47c-44 0 -86 9 -116 39c-33 33 -51 69 -51 118v429c0 49 18 86 51 118c30 30 72 39 116 39s86 -9 116 -39zM186 837c22 0 41 -19 41 -42c0 -22 -19 -41 -41 -41c-23 0 -42 19 -42 41c0 23 19 42 42 42z" />
    <glyph glyph-name="zdotaccent" unicode="&#x17c;" horiz-adv-x="342" 
d="M300 131c15 0 27 -12 27 -27v-77c0 -15 -12 -27 -27 -27h-258c-15 0 -27 12 -27 27v67l145 488h-112c-15 0 -27 12 -27 27v84c0 15 12 27 27 27h250c15 0 27 -12 27 -27v-64l-152 -498h127zM171 837c22 0 41 -19 41 -42c0 -22 -19 -41 -41 -41c-23 0 -42 19 -42 41
c0 23 19 42 42 42z" />
    <glyph glyph-name="Ccaron" unicode="&#x10c;" 
d="M303 690c33 -32 51 -69 51 -118v-119c0 -15 -12 -27 -27 -27h-88c-15 0 -27 12 -27 27v127c0 21 -18 23 -25 23s-25 -2 -25 -23v-445c0 -21 18 -23 25 -23s25 2 25 23v122c0 15 12 27 27 27h88c15 0 27 -12 27 -27v-114c0 -49 -18 -85 -51 -118c-30 -30 -72 -39 -116 -39
s-86 9 -116 39c-33 33 -51 69 -51 118v429c0 49 18 86 51 118c30 30 72 39 116 39s86 -9 116 -39zM90 834c-3 3 -4 8 -1 11l33 35c3 3 8 4 11 1l46 -37c3 -3 9 -3 12 0l47 37c3 3 8 2 11 -1l32 -35c3 -3 2 -8 -1 -11l-89 -68c-3 -3 -9 -3 -12 0z" />
    <glyph glyph-name="Dcaron" unicode="&#x10e;" horiz-adv-x="380" 
d="M311 673c33 -33 51 -77 51 -126v-374c0 -49 -18 -93 -51 -126c-31 -30 -72 -47 -117 -47h-140c-15 0 -27 12 -27 27v666c0 15 12 27 27 27h140c45 0 86 -17 117 -47zM219 149v422c0 21 -10 31 -25 31h-24v-484h24c17 0 25 10 25 31zM95 834c-3 3 -4 8 -1 11l33 35
c3 3 8 4 11 1l46 -37c3 -3 9 -3 12 0l47 37c3 3 8 2 11 -1l32 -35c3 -3 2 -8 -1 -11l-89 -68c-3 -3 -9 -3 -12 0z" />
    <glyph glyph-name="Ecaron" unicode="&#x11a;" horiz-adv-x="321" 
d="M174 125h105c15 0 27 -12 27 -27v-71c0 -15 -12 -27 -27 -27h-225c-15 0 -27 12 -27 27v666c0 15 12 27 27 27h225c15 0 27 -12 27 -27v-66c0 -15 -12 -27 -27 -27h-105v-194h71c15 0 27 -12 27 -27v-50c0 -15 -12 -27 -27 -27h-71v-177zM65 834c-3 3 -4 8 -1 11l33 35
c3 3 8 4 11 1l46 -37c3 -3 9 -3 12 0l47 37c3 3 8 2 11 -1l32 -35c3 -3 2 -8 -1 -11l-89 -68c-3 -3 -9 -3 -12 0z" />
    <glyph glyph-name="Ncaron" unicode="&#x147;" horiz-adv-x="396" 
d="M342 720c15 0 27 -12 27 -27v-666c0 -15 -12 -27 -27 -27h-75c-15 0 -30 12 -33 26l-82 364v-363c0 -15 -12 -27 -27 -27h-71c-15 0 -27 12 -27 27v666c0 15 12 27 27 27h79c15 0 29 -12 32 -26c73 -353 73 -353 79 -379v378c0 15 12 27 27 27h71zM103 834
c-3 3 -4 8 -1 11l33 35c3 3 8 4 11 1l46 -37c3 -3 9 -3 12 0l47 37c3 3 8 2 11 -1l32 -35c3 -3 2 -8 -1 -11l-89 -68c-3 -3 -9 -3 -12 0z" />
    <glyph glyph-name="Rcaron" unicode="&#x158;" horiz-adv-x="383" 
d="M361 38c0 -19 18 -38 -22 -38h-108c-7 0 -12 16 -12 36v217c0 20 -7 30 -25 30h-25v-233v-23c0 -15 -12 -27 -27 -27h-88c-15 0 -27 12 -27 27v666c0 15 12 27 27 27h140c44 0 86 -17 117 -48c32 -32 50 -76 50 -125v-92c0 -44 -23 -86 -50 -117c37 -29 50 -73 50 -117
v-183zM219 431v140c0 20 -6 31 -25 31h-25v-201h25c19 0 25 10 25 30zM96 834c-3 3 -4 8 -1 11l33 35c3 3 8 4 11 1l46 -37c3 -3 9 -3 12 0l47 37c3 3 8 2 11 -1l32 -35c3 -3 2 -8 -1 -11l-89 -68c-3 -3 -9 -3 -12 0z" />
    <glyph glyph-name="Tcaron" unicode="&#x164;" horiz-adv-x="356" 
d="M250 600v-573c0 -15 -12 -27 -27 -27h-90c-15 0 -27 12 -27 27v573h-68c-15 0 -27 12 -27 27v66c0 15 12 27 27 27h280c15 0 27 -12 27 -27v-66c0 -15 -12 -27 -27 -27h-68zM83 834c-3 3 -4 8 -1 11l33 35c3 3 8 4 11 1l46 -37c3 -3 9 -3 12 0l47 37c3 3 8 2 11 -1
l32 -35c3 -3 2 -8 -1 -11l-89 -68c-3 -3 -9 -3 -12 0z" />
    <glyph glyph-name="ccaron" unicode="&#x10d;" 
d="M303 690c33 -32 51 -69 51 -118v-119c0 -15 -12 -27 -27 -27h-88c-15 0 -27 12 -27 27v127c0 21 -18 23 -25 23s-25 -2 -25 -23v-445c0 -21 18 -23 25 -23s25 2 25 23v122c0 15 12 27 27 27h88c15 0 27 -12 27 -27v-114c0 -49 -18 -85 -51 -118c-30 -30 -72 -39 -116 -39
s-86 9 -116 39c-33 33 -51 69 -51 118v429c0 49 18 86 51 118c30 30 72 39 116 39s86 -9 116 -39zM90 834c-3 3 -4 8 -1 11l33 35c3 3 8 4 11 1l46 -37c3 -3 9 -3 12 0l47 37c3 3 8 2 11 -1l32 -35c3 -3 2 -8 -1 -11l-89 -68c-3 -3 -9 -3 -12 0z" />
    <glyph glyph-name="ecaron" unicode="&#x11b;" horiz-adv-x="321" 
d="M174 125h105c15 0 27 -12 27 -27v-71c0 -15 -12 -27 -27 -27h-225c-15 0 -27 12 -27 27v666c0 15 12 27 27 27h225c15 0 27 -12 27 -27v-66c0 -15 -12 -27 -27 -27h-105v-194h71c15 0 27 -12 27 -27v-50c0 -15 -12 -27 -27 -27h-71v-177zM65 834c-3 3 -4 8 -1 11l33 35
c3 3 8 4 11 1l46 -37c3 -3 9 -3 12 0l47 37c3 3 8 2 11 -1l32 -35c3 -3 2 -8 -1 -11l-89 -68c-3 -3 -9 -3 -12 0z" />
    <glyph glyph-name="ncaron" unicode="&#x148;" horiz-adv-x="396" 
d="M342 720c15 0 27 -12 27 -27v-666c0 -15 -12 -27 -27 -27h-75c-15 0 -30 12 -33 26l-82 364v-363c0 -15 -12 -27 -27 -27h-71c-15 0 -27 12 -27 27v666c0 15 12 27 27 27h79c15 0 29 -12 32 -26c73 -353 73 -353 79 -379v378c0 15 12 27 27 27h71zM103 834
c-3 3 -4 8 -1 11l33 35c3 3 8 4 11 1l46 -37c3 -3 9 -3 12 0l47 37c3 3 8 2 11 -1l32 -35c3 -3 2 -8 -1 -11l-89 -68c-3 -3 -9 -3 -12 0z" />
    <glyph glyph-name="rcaron" unicode="&#x159;" horiz-adv-x="383" 
d="M361 38c0 -19 18 -38 -22 -38h-108c-7 0 -12 16 -12 36v217c0 20 -7 30 -25 30h-25v-233v-23c0 -15 -12 -27 -27 -27h-88c-15 0 -27 12 -27 27v666c0 15 12 27 27 27h140c44 0 86 -17 117 -48c32 -32 50 -76 50 -125v-92c0 -44 -23 -86 -50 -117c37 -29 50 -73 50 -117
v-183zM219 431v140c0 20 -6 31 -25 31h-25v-201h25c19 0 25 10 25 30zM96 834c-3 3 -4 8 -1 11l33 35c3 3 8 4 11 1l46 -37c3 -3 9 -3 12 0l47 37c3 3 8 2 11 -1l32 -35c3 -3 2 -8 -1 -11l-89 -68c-3 -3 -9 -3 -12 0z" />
    <glyph glyph-name="tcaron" unicode="&#x165;" horiz-adv-x="356" 
d="M250 600v-573c0 -15 -12 -27 -27 -27h-90c-15 0 -27 12 -27 27v573h-68c-15 0 -27 12 -27 27v66c0 15 12 27 27 27h280c15 0 27 -12 27 -27v-66c0 -15 -12 -27 -27 -27h-68zM83 834c-3 3 -4 8 -1 11l33 35c3 3 8 4 11 1l46 -37c3 -3 9 -3 12 0l47 37c3 3 8 2 11 -1
l32 -35c3 -3 2 -8 -1 -11l-89 -68c-3 -3 -9 -3 -12 0z" />
    <glyph glyph-name="Itilde" unicode="&#x128;" horiz-adv-x="212" 
d="M177 27v666c0 15 -12 27 -27 27h-88c-15 0 -27 -12 -27 -27v-666c0 -15 12 -27 27 -27h88c15 0 27 12 27 27zM210 851c8 -5 9 -10 4 -16c-2 -3 -20 -27 -20 -27s-9 -12 -22 -18c-9 -5 -18 -7 -28 -7c-11 0 -22 3 -32 9l-30 19s-13 10 -27 -3c-4 -4 -7 -7 -9 -10
c-5 -6 -13 -4 -19 -1s-17 11 -25 17c-9 6 -6 13 -2 19c5 6 16 20 16 20s9 11 21 17c10 5 19 8 29 8c11 0 22 -4 32 -10l28 -19s14 -10 29 4c4 4 6 6 11 12c5 7 13 6 16 4c4 -3 18 -11 28 -18z" />
    <glyph glyph-name="Utilde" unicode="&#x168;" 
d="M325 719c15 0 27 -12 27 -27v-546c0 -48 -18 -89 -50 -121c-31 -30 -73 -39 -117 -39s-87 9 -117 39c-32 32 -50 73 -50 121v546c0 15 12 27 27 27h87c15 0 27 -12 27 -27v-558c0 -20 19 -22 26 -22s26 2 26 22v558c0 15 12 27 27 27h87zM289 849c8 -5 9 -10 4 -16
c-2 -3 -20 -27 -20 -27s-9 -12 -22 -18c-9 -5 -18 -7 -28 -7c-11 0 -22 3 -32 9l-30 19s-13 10 -27 -3c-4 -4 -7 -7 -9 -10c-5 -6 -13 -4 -19 -1s-17 11 -25 17c-9 6 -6 13 -2 19c5 6 16 20 16 20s9 11 21 17c10 5 19 8 29 8c11 0 22 -4 32 -10l28 -19s14 -10 29 4
c4 4 6 6 11 12c5 7 13 6 16 4c4 -3 18 -11 28 -18z" />
    <glyph glyph-name="itilde" unicode="&#x129;" horiz-adv-x="212" 
d="M51 720h110c9 0 16 -7 16 -16v-688c0 -9 -7 -16 -16 -16h-110c-9 0 -16 7 -16 16v688c0 9 7 16 16 16zM210 848c8 -5 9 -10 4 -16c-2 -3 -20 -27 -20 -27s-9 -12 -22 -18c-9 -5 -18 -7 -28 -7c-11 0 -22 3 -32 9l-30 19s-13 10 -27 -3c-4 -4 -7 -7 -9 -10
c-5 -6 -13 -4 -19 -1s-17 11 -25 17c-9 6 -6 13 -2 19c5 6 16 20 16 20s9 11 21 17c10 5 19 8 29 8c11 0 22 -4 32 -10l28 -19s14 -10 29 4c4 4 6 6 11 12c5 7 13 6 16 4c4 -3 18 -11 28 -18z" />
    <glyph glyph-name="utilde" unicode="&#x169;" 
d="M325 719c15 0 27 -12 27 -27v-546c0 -48 -18 -89 -50 -121c-31 -30 -73 -39 -117 -39s-87 9 -117 39c-32 32 -50 73 -50 121v546c0 15 12 27 27 27h87c15 0 27 -12 27 -27v-558c0 -20 19 -22 26 -22s26 2 26 22v558c0 15 12 27 27 27h87zM289 848c8 -5 9 -10 4 -16
c-2 -3 -20 -27 -20 -27s-9 -12 -22 -18c-9 -5 -18 -7 -28 -7c-11 0 -22 3 -32 9l-30 19s-13 10 -27 -3c-4 -4 -7 -7 -9 -10c-5 -6 -13 -4 -19 -1s-17 11 -25 17c-9 6 -6 13 -2 19c5 6 16 20 16 20s9 11 21 17c10 5 19 8 29 8c11 0 22 -4 32 -10l28 -19s14 -10 29 4
c4 4 6 6 11 12c5 7 13 6 16 4c4 -3 18 -11 28 -18z" />
    <glyph glyph-name="Ohungarumlaut" unicode="&#x150;" horiz-adv-x="374" 
d="M304 690c33 -32 51 -69 51 -117v-431c0 -49 -18 -85 -51 -117c-31 -31 -74 -39 -118 -39s-87 8 -118 39c-32 32 -50 68 -50 117v431c0 48 18 85 50 117c31 30 74 39 118 39s87 -9 118 -39zM213 134v447c0 20 -19 22 -27 22c-7 0 -26 -2 -26 -22v-447c0 -20 19 -23 26 -23
c8 0 27 3 27 23zM352 878l-71 -107c-2 -4 -8 -7 -12 -7h-44c-4 0 -7 3 -6 8l35 105c2 5 7 8 11 8h83c4 0 6 -3 4 -7zM236 878l-71 -107c-2 -4 -8 -7 -12 -7h-44c-4 0 -7 3 -6 8l35 105c2 5 7 8 11 8h83c4 0 6 -3 4 -7z" />
    <glyph glyph-name="Uhungarumlaut" unicode="&#x170;" 
d="M325 719c15 0 27 -12 27 -27v-546c0 -48 -18 -89 -50 -121c-31 -30 -73 -39 -117 -39s-87 9 -117 39c-32 32 -50 73 -50 121v546c0 15 12 27 27 27h87c15 0 27 -12 27 -27v-558c0 -20 19 -22 26 -22s26 2 26 22v558c0 15 12 27 27 27h87zM350 878l-71 -107
c-2 -4 -8 -7 -12 -7h-44c-4 0 -7 3 -6 8l35 105c2 5 7 8 11 8h83c4 0 6 -3 4 -7zM234 878l-71 -107c-2 -4 -8 -7 -12 -7h-44c-4 0 -7 3 -6 8l35 105c2 5 7 8 11 8h83c4 0 6 -3 4 -7z" />
    <glyph glyph-name="ohungarumlaut" unicode="&#x151;" horiz-adv-x="374" 
d="M304 690c33 -32 51 -69 51 -117v-431c0 -49 -18 -85 -51 -117c-31 -31 -74 -39 -118 -39s-87 8 -118 39c-32 32 -50 68 -50 117v431c0 48 18 85 50 117c31 30 74 39 118 39s87 -9 118 -39zM213 134v447c0 20 -19 22 -27 22c-7 0 -26 -2 -26 -22v-447c0 -20 19 -23 26 -23
c8 0 27 3 27 23zM352 877l-71 -107c-2 -4 -8 -7 -12 -7h-44c-4 0 -7 3 -6 8l35 105c2 5 7 8 11 8h83c4 0 6 -3 4 -7zM236 877l-71 -107c-2 -4 -8 -7 -12 -7h-44c-4 0 -7 3 -6 8l35 105c2 5 7 8 11 8h83c4 0 6 -3 4 -7z" />
    <glyph glyph-name="uhungarumlaut" unicode="&#x171;" 
d="M325 719c15 0 27 -12 27 -27v-546c0 -48 -18 -89 -50 -121c-31 -30 -73 -39 -117 -39s-87 9 -117 39c-32 32 -50 73 -50 121v546c0 15 12 27 27 27h87c15 0 27 -12 27 -27v-558c0 -20 19 -22 26 -22s26 2 26 22v558c0 15 12 27 27 27h87zM350 877l-71 -107
c-2 -4 -8 -7 -12 -7h-44c-4 0 -7 3 -6 8l35 105c2 5 7 8 11 8h83c4 0 6 -3 4 -7zM234 877l-71 -107c-2 -4 -8 -7 -12 -7h-44c-4 0 -7 3 -6 8l35 105c2 5 7 8 11 8h83c4 0 6 -3 4 -7z" />
    <glyph glyph-name="Uring" unicode="&#x16e;" 
d="M325 719c15 0 27 -12 27 -27v-546c0 -48 -18 -89 -50 -121c-31 -30 -73 -39 -117 -39s-87 9 -117 39c-32 32 -50 73 -50 121v546c0 15 12 27 27 27h87c15 0 27 -12 27 -27v-558c0 -20 19 -22 26 -22s26 2 26 22v558c0 15 12 27 27 27h87zM185 750c-20 0 -39 7 -53 21
s-22 32 -22 52c0 41 33 74 75 74s75 -33 75 -74c0 -20 -8 -38 -22 -52s-33 -21 -53 -21zM185 852c-16 0 -29 -13 -29 -29c0 -15 14 -28 29 -28s28 13 28 28c0 16 -13 29 -28 29z" />
    <glyph glyph-name="uring" unicode="&#x16f;" 
d="M325 719c15 0 27 -12 27 -27v-546c0 -48 -18 -89 -50 -121c-31 -30 -73 -39 -117 -39s-87 9 -117 39c-32 32 -50 73 -50 121v546c0 15 12 27 27 27h87c15 0 27 -12 27 -27v-558c0 -20 19 -22 26 -22s26 2 26 22v558c0 15 12 27 27 27h87zM185 750c-20 0 -39 7 -53 21
s-22 32 -22 52c0 41 33 74 75 74s75 -33 75 -74c0 -20 -8 -38 -22 -52s-33 -21 -53 -21zM185 852c-16 0 -29 -13 -29 -29c0 -15 14 -28 29 -28s28 13 28 28c0 16 -13 29 -28 29z" />
    <glyph glyph-name="Wdieresis" unicode="&#x1e84;" horiz-adv-x="597" 
d="M558 720c15 0 25 -12 23 -27l-102 -666c-2 -15 -16 -27 -31 -27h-76c-15 0 -29 12 -31 27l-42 312c-4 -27 -4 -27 -43 -312c-2 -15 -16 -27 -31 -27h-76c-15 0 -29 12 -31 27l-102 666c-2 15 8 27 23 27h77c15 0 28 -12 30 -27c40 -403 40 -403 43 -430l45 430
c2 15 15 27 30 27h69c15 0 28 -12 30 -27l45 -430c3 27 3 27 43 430c2 15 15 27 30 27h77zM361 852c24 0 44 -20 44 -44s-20 -44 -44 -44s-44 20 -44 44s20 44 44 44zM235 852c24 0 44 -20 44 -44s-20 -44 -44 -44s-44 20 -44 44s20 44 44 44z" />
    <glyph glyph-name="wdieresis" unicode="&#x1e85;" horiz-adv-x="597" 
d="M558 720c15 0 25 -12 23 -27l-102 -666c-2 -15 -16 -27 -31 -27h-76c-15 0 -29 12 -31 27l-42 312c-4 -27 -4 -27 -43 -312c-2 -15 -16 -27 -31 -27h-76c-15 0 -29 12 -31 27l-102 666c-2 15 8 27 23 27h77c15 0 28 -12 30 -27c40 -403 40 -403 43 -430l45 430
c2 15 15 27 30 27h69c15 0 28 -12 30 -27l45 -430c3 27 3 27 43 430c2 15 15 27 30 27h77zM361 852c24 0 44 -20 44 -44s-20 -44 -44 -44s-44 20 -44 44s20 44 44 44zM235 852c24 0 44 -20 44 -44s-20 -44 -44 -44s-44 20 -44 44s20 44 44 44z" />
    <glyph glyph-name="dcaron" unicode="&#x10f;" horiz-adv-x="380" 
d="M311 673c33 -33 51 -77 51 -126v-374c0 -49 -18 -93 -51 -126c-31 -30 -72 -47 -117 -47h-140c-15 0 -27 12 -27 27v666c0 15 12 27 27 27h140c45 0 86 -17 117 -47zM219 149v422c0 21 -10 31 -25 31h-24v-484h24c17 0 25 10 25 31zM95 834c-3 3 -4 8 -1 11l33 35
c3 3 8 4 11 1l46 -37c3 -3 9 -3 12 0l47 37c3 3 8 2 11 -1l32 -35c3 -3 2 -8 -1 -11l-89 -68c-3 -3 -9 -3 -12 0z" />
    <glyph glyph-name="question" unicode="?" horiz-adv-x="350" 
d="M290 691c31 -31 45 -66 45 -113v-29c0 -118 -101 -162 -133 -292l-9 -81c0 -4 -4 -8 -8 -8h-96c-4 0 -8 4 -8 8c0 0 6 81 6 82c30 160 135 191 135 309v16v2c0 26 -19 47 -45 47c-29 0 -48 -19 -48 -47v-60c0 -4 -4 -8 -8 -8h-98c-4 0 -8 4 -8 8v49c0 46 16 82 51 117
c27 27 60 38 112 38s84 -11 112 -38zM139 116c33 0 61 -28 61 -62c0 -33 -28 -61 -61 -61c-34 0 -61 28 -61 61c0 34 27 62 61 62z" />
    <glyph glyph-name="questiondown" unicode="&#xbf;" horiz-adv-x="250" 
d="M0 -337c-31 31 -45 66 -45 113v29c0 118 101 162 133 292l8 81c1 4 5 8 9 8h96c4 0 8 -4 8 -8l-6 -82c-30 -160 -135 -191 -135 -309v-16v-2c0 -26 19 -47 45 -47c29 0 48 19 48 47v19v19v22c0 4 4 8 8 8h98c4 0 8 -4 8 -8v-22v-19v-8c0 -46 -16 -82 -51 -117
c-27 -27 -60 -38 -112 -38s-84 11 -112 38zM151 238c-33 0 -61 28 -61 62c0 33 28 61 61 61c34 0 61 -28 61 -61c0 -34 -27 -62 -61 -62z" />
    <glyph glyph-name="cent" unicode="&#xa2;" 
d="M239 426c-15 0 -27 12 -27 27v127c0 21 -18 23 -25 23s-25 -2 -25 -23v-445c0 -21 18 -23 25 -23s25 2 25 23v122c0 15 12 27 27 27h88c15 0 27 -12 27 -27v-114c0 -49 -18 -85 -51 -118c-21 -21 -47 -31 -76 -36v-53c0 -15 -12 -27 -27 -27h-26c-15 0 -27 12 -27 27v53
c-29 5 -55 15 -76 36c-33 33 -51 69 -51 118v429c0 49 18 86 51 118c21 21 47 31 76 36v51c0 15 12 27 27 27h26c15 0 27 -12 27 -27v-51c29 -5 55 -15 76 -36c33 -32 51 -69 51 -118v-119c0 -15 -12 -27 -27 -27h-88z" />
    <glyph glyph-name="trademark" unicode="&#x2122;" horiz-adv-x="278" 
d="M85 586h-37v96h-34v34h105v-34h-34v-96zM217 716h47v-130h-32v80l-22 -80h-20l-22 80v-80h-33v130h47l18 -79z" />
    <glyph glyph-name="registered" unicode="&#xae;" horiz-adv-x="669" 
d="M446 190c0 -5 2 -10 3 -14l1 -1c0 -1 -1 -2 -2 -2h-11h-56c-4 0 -7 8 -7 18v113c0 11 1 16 -33 16h-34v-147h-72v130v244h106c45 0 65 -9 81 -25c17 -16 24 -34 24 -65v-48c0 -31 -10 -44 -24 -60c19 -16 24 -38 24 -61v-95v-3zM374 397v73c0 10 -1 16 -33 16h-34v-105
h34c33 0 33 5 33 16zM558 587c58 -61 90 -141 90 -227s-32 -167 -90 -227c-58 -61 -138 -93 -224 -93c-85 0 -165 32 -223 93c-58 60 -90 141 -90 227s32 166 90 227s138 92 223 92c86 0 166 -31 224 -92zM334 110c135 0 240 111 240 250s-105 249 -240 249
c-134 0 -239 -110 -239 -249s105 -250 239 -250z" />
    <glyph glyph-name="copyright" unicode="&#xa9;" horiz-adv-x="669" 
d="M334 551c39 0 66 -5 81 -21c17 -16 27 -36 27 -61v-76h-74v80c0 11 -17 12 -34 12c-16 0 -34 -1 -34 -12v-231c0 -11 18 -12 34 -12c17 0 34 1 34 12v77h74v-73c0 -26 -10 -44 -27 -61c-15 -16 -43 -21 -81 -21c-40 0 -65 5 -81 21c-17 17 -27 35 -27 61v223
c0 25 10 45 27 61c16 16 44 21 81 21zM558 587c58 -61 90 -141 90 -227s-32 -167 -90 -227c-59 -61 -138 -93 -224 -93s-165 32 -224 93c-58 60 -89 141 -89 227s31 166 89 227c59 61 138 92 224 92s165 -31 224 -92zM334 110c134 0 240 111 240 250s-106 249 -240 249
s-239 -110 -239 -249s105 -250 239 -250z" />
    <glyph glyph-name="ampersand" unicode="&#x26;" horiz-adv-x="426" 
d="M365 311v-186c0 -15 15 -25 35 -29c8 -3 14 -3 14 -13v-83s-10 -14 -16 -13c-29 0 -67 0 -90 22l-5 3l-6 -3c-27 -14 -62 -23 -102 -23c-45 0 -99 14 -123 37c-32 33 -47 68 -47 111v128c0 29 0 65 52 96c0 0 -50 28 -50 93v135c0 40 15 75 47 106c27 26 60 37 109 37
c47 0 80 -11 107 -37c32 -32 48 -68 48 -111v-23c0 -15 -12 -27 -27 -27h-71c-15 0 -27 12 -27 27v33c0 21 -16 31 -30 31c-16 0 -31 -10 -31 -31v-164c0 -7 2 -29 31 -29h57v43c0 15 12 27 27 27h71c15 0 27 -12 27 -27v-43h22c15 0 27 -12 27 -27v-33
c0 -15 -12 -27 -27 -27h-22zM240 125v186h-57c-25 0 -33 -15 -33 -29v-157c0 -21 10 -31 45 -31c44 0 45 16 45 31z" />
    <glyph glyph-name="at" unicode="@" horiz-adv-x="579" 
d="M405 499v-210c0 -22 24 -24 33 -21c12 4 25 12 37 37c11 21 13 54 8 90v1c-17 103 -96 185 -191 185c-12 0 -24 -2 -36 -4c-54 -11 -97 -51 -127 -101c-29 -48 -40 -105 -32 -161c17 -104 95 -182 190 -182c12 0 22 1 35 4c15 3 31 7 48 15l48 -68
c-27 -14 -54 -24 -82 -29c-18 -4 -34 -5 -52 -5s-35 2 -53 6c-35 8 -68 21 -96 44c-30 21 -54 48 -74 82c-21 36 -35 75 -41 116c-7 42 -6 84 3 123c7 38 22 74 43 109v1c21 33 46 61 77 82c30 22 65 37 101 45c18 4 34 5 51 5c19 0 36 -2 54 -6c35 -8 68 -22 96 -45
c30 -23 56 -54 75 -86c20 -35 33 -73 40 -114c8 -51 3 -103 -15 -146c-9 -22 -22 -41 -37 -54h-1c-21 -21 -43 -29 -69 -29c-27 0 -61 9 -73 21c-17 17 -20 26 -23 38c-5 -12 -16 -20 -24 -23c-15 -6 -22 -7 -36 -7c-35 0 -63 12 -88 41c-25 27 -39 64 -39 104s14 77 39 105
s53 40 88 40c21 0 50 -8 50 -28v25h73zM282 290c29 0 44 35 44 67s-15 67 -44 67s-48 -35 -48 -67s19 -67 48 -67z" />
    <glyph glyph-name="germandbls" unicode="&#xdf;" horiz-adv-x="398" 
d="M338 371c29 -32 44 -74 44 -119v-79c0 -18 -2 -35 -7 -52c-8 -28 -22 -54 -43 -74c-31 -30 -79 -47 -123 -47h-1v118h1c8 0 14 1 18 3c9 5 12 14 12 28v151c0 27 -3 31 -34 31v70c25 0 26 0 26 30v149c0 20 -12 30 -30 30h-1c-18 0 -30 -10 -30 -30v-552
c0 -15 -12 -27 -27 -27h-89c-15 0 -27 12 -27 27v528c0 48 18 93 50 125c31 31 79 48 123 48h1c44 0 92 -17 123 -48c32 -32 50 -77 50 -125v-77c0 -40 -12 -78 -36 -108z" />
    <glyph glyph-name="C" unicode="C" 
d="M303 690c33 -32 51 -69 51 -118v-119c0 -15 -12 -27 -27 -27h-88c-15 0 -27 12 -27 27v127c0 21 -18 23 -25 23s-25 -2 -25 -23v-445c0 -21 18 -23 25 -23s25 2 25 23v122c0 15 12 27 27 27h88c15 0 27 -12 27 -27v-114c0 -49 -18 -85 -51 -118c-30 -30 -72 -39 -116 -39
s-86 9 -116 39c-33 33 -51 69 -51 118v429c0 49 18 86 51 118c30 30 72 39 116 39s86 -9 116 -39z" />
    <glyph glyph-name="D" unicode="D" horiz-adv-x="380" 
d="M311 673c33 -33 51 -77 51 -126v-374c0 -49 -18 -93 -51 -126c-31 -30 -72 -47 -117 -47h-140c-15 0 -27 12 -27 27v666c0 15 12 27 27 27h140c45 0 86 -17 117 -47zM219 149v422c0 21 -10 31 -25 31h-24v-484h24c17 0 25 10 25 31z" />
    </font>
</defs>
</svg>
